SplineFontDB: 3.0
FontName: HiPrspctv
FullName: Hi. Perspective
FamilyName: Hi.
Weight: Perspective Regular
Copyright: Copyright (c) 2015, Mew Too/Cannot Into Space Fonts, All Rights Reserved.
Version: 1.996
ItalicAngle: 0
UnderlinePosition: -150
UnderlineWidth: 50
Ascent: 800
Descent: 200
InvalidEm: 0
sfntRevision: 0x0001fef9
LayerCount: 2
Layer: 0 0 "Back" 1
Layer: 1 0 "Fore" 0
XUID: [1021 604 120746000 10768]
StyleMap: 0x0000
FSType: 0
OS2Version: 4
OS2_WeightWidthSlopeOnly: 0
OS2_UseTypoMetrics: 1
CreationTime: -657661179
ModificationTime: 1428970230
PfmFamily: 17
TTFWeight: 400
TTFWidth: 5
LineGap: 90
VLineGap: 0
Panose: 2 0 5 3 0 0 0 0 0 0
OS2TypoAscent: 800
OS2TypoAOffset: 0
OS2TypoDescent: -200
OS2TypoDOffset: 0
OS2TypoLinegap: 90
OS2WinAscent: 813
OS2WinAOffset: 0
OS2WinDescent: 184
OS2WinDOffset: 0
HheadAscent: 813
HheadAOffset: 0
HheadDescent: -184
HheadDOffset: 0
OS2SubXSize: 650
OS2SubYSize: 699
OS2SubXOff: 0
OS2SubYOff: 140
OS2SupXSize: 650
OS2SupYSize: 699
OS2SupXOff: 0
OS2SupYOff: 479
OS2StrikeYSize: 49
OS2StrikeYPos: 258
OS2CapHeight: 590
OS2XHeight: 590
OS2FamilyClass: 2063
OS2Vendor: 'CiSf'
OS2CodePages: 00000001.00000000
OS2UnicodeRanges: 0000002f.90000002.00000000.00000000
Lookup: 3 0 0 "'salt' Stylistic Alternatives in Latin lookup 0" { "'salt' Stylistic Alternatives in Latin lookup 0 subtable"  } ['salt' ('DFLT' <'dflt' > 'latn' <'dflt' > ) ]
Lookup: 4 0 1 "'liga' Standard Ligatures lookup 1" { "'liga' Standard Ligatures lookup 1 subtable"  } ['liga' ('DFLT' <'dflt' > ) ]
Lookup: 258 0 0 "'kern' Horizontal Kerning in Latin lookup 0" { "'kern' Horizontal Kerning in Latin lookup 0 subtable"  } ['kern' ('DFLT' <'dflt' > 'latn' <'dflt' > ) ]
MarkAttachClasses: 1
DEI: 91125

StartChar: .notdef
Encoding: 65536 -1 0
Width: 523
Flags: MW
HStem: 0 50 483 50
VStem: 61 50 412 50
LayerCount: 2
Back
Fore
SplineSet
78 -41 m 1
 177 344 l 1
 464 414 l 1
 386 -13 l 1
 78 -41 l 1
122 3 m 1
 351 27 l 1
 417 369 l 1
 201 318 l 1
 122 3 l 1
EndSplineSet
EndChar

StartChar: exclam
Encoding: 33 33 4
Width: 198
GlyphClass: 2
Flags: MW
HStem: 0 93
VStem: 55 89 58 74
LayerCount: 2
Back
Fore
SplineSet
83 -5 m 0xc0
 88 15 104 33 121 35 c 0
 139 37 149 22 144 2 c 0
 139 -18 121 -37 103 -39 c 0
 86 -40 77 -24 83 -5 c 0xc0
228 368 m 2xa0
 160 87 l 2
 157 76 143 64 129 62 c 0
 115 60 106 69 109 80 c 2
 180 356 l 2
 183 366 195 377 209 380 c 0
 222 384 231 378 228 368 c 2xa0
EndSplineSet
EndChar

StartChar: quotedbl
Encoding: 34 34 5
Width: 319
GlyphClass: 2
Flags: MW
HStem: 558 21G 608 93
VStem: 49 89 115 32 170 89 236 32
LayerCount: 2
Back
Fore
SplineSet
267 440 m 0xc8
 271 456 287 473 304 478 c 0
 321 483 332 473 328 457 c 0xc8
 329 445 331 424 324 412 c 0
 320 404 286 389 261 380 c 1
 282 394 300 402 306 426 c 1xc4
 301 422 295 420 290 418 c 0
 273 414 263 424 267 440 c 0xc8
189 419 m 0xe0
 193 434 208 451 224 455 c 0
 240 460 250 450 246 434 c 0xe0
 246 422 247 403 241 391 c 0
 236 383 204 368 181 360 c 1
 201 373 218 381 224 404 c 1xd0
 219 401 214 398 209 397 c 0
 193 393 185 403 189 419 c 0xe0
EndSplineSet
EndChar

StartChar: numbersign
Encoding: 35 35 6
Width: 791
GlyphClass: 2
Flags: MW
HStem: 172 70 344 69
LayerCount: 2
Back
Fore
SplineSet
629 495 m 2
 552 348 l 1
 663 372 l 2
 678 375 695 367 701 352 c 0
 706 337 696 323 680 320 c 2
 680 320 608 306 520 289 c 1
 473 200 l 1
 600 221 l 2
 615 223 632 213 637 197 c 0
 642 181 632 166 616 164 c 2
 616 164 536 152 441 139 c 1
 374 10 l 2
 367 -3 347 -16 329 -18 c 0
 312 -20 305 -9 312 4 c 2
 312 4 341 58 379 130 c 1
 339 124 300 119 265 114 c 1
 199 -7 l 2
 192 -20 174 -32 159 -33 c 0
 144 -35 138 -25 145 -12 c 2
 145 -12 173 39 210 106 c 1
 161 99 128 95 128 95 c 2
 117 93 107 102 106 116 c 0
 105 130 114 141 124 143 c 2
 241 162 l 1
 256 189 271 217 286 244 c 1
 230 234 191 226 191 226 c 2
 180 224 170 232 169 245 c 0
 167 258 175 269 186 271 c 2
 316 299 l 1
 358 374 390 433 390 434 c 0
 396 445 414 458 430 462 c 0
 446 466 453 460 447 448 c 2
 372 311 l 1
 488 335 l 1
 531 415 564 479 564 479 c 2
 571 491 590 505 608 510 c 0
 627 514 635 508 629 495 c 2
342 255 m 1
 296 171 l 1
 410 190 l 1
 426 218 442 248 457 277 c 1
 418 270 378 262 342 255 c 1
EndSplineSet
AlternateSubs2: "'salt' Stylistic Alternatives in Latin lookup 0 subtable" uniE008
EndChar

StartChar: dollar
Encoding: 36 36 7
Width: 540
GlyphClass: 2
Flags: MW
HStem: 77 56 265 56 455 56
VStem: 48 62 229 74 431 62
LayerCount: 2
Back
Fore
SplineSet
276 316 m 1
 229 302 190 280 181 242 c 0
 180 241 161 204 212 214 c 2
 212 214 228 217 255 222 c 1
 263 256 270 289 276 316 c 1
278 86 m 1
 335 97 385 121 394 167 c 0
 394 168 414 210 353 200 c 2
 353 200 334 196 301 190 c 1
 278 86 l 1
346 404 m 2
 339 369 l 1
 415 387 467 399 467 399 c 2
 476 401 483 394 481 383 c 0
 478 371 469 361 460 359 c 2
 460 359 389 343 330 329 c 1
 310 233 l 1
 325 236 343 239 362 243 c 0
 406 251 462 271 446 175 c 0
 430 85 355 54 268 40 c 1
 260 -1 l 2
 257 -14 242 -26 226 -27 c 0
 210 -29 200 -19 203 -7 c 2
 203 -7 206 9 212 33 c 1
 142 26 100 21 100 21 c 2
 92 20 88 29 91 41 c 0
 94 52 103 62 110 63 c 2
 110 63 167 71 222 78 c 1
 229 109 237 145 245 180 c 1
 232 178 218 176 202 173 c 0
 164 166 118 150 140 234 c 0
 158 305 214 335 285 356 c 1
 290 377 293 391 293 391 c 2
 296 401 309 412 324 416 c 0
 339 420 348 414 346 404 c 2
EndSplineSet
EndChar

StartChar: percent
Encoding: 37 37 8
Width: 610
GlyphClass: 2
Flags: MW
HStem: 0 58 175 58 384 58 560 58
VStem: 39 59 225 59 326 59 512 59
LayerCount: 2
Back
Fore
SplineSet
281 349 m 0
 286 370 271 384 247 378 c 0
 223 372 200 349 195 328 c 0
 190 307 204 293 228 298 c 0
 252 304 276 327 281 349 c 0
323 359 m 0
 314 313 265 267 218 258 c 0
 172 248 146 276 157 319 c 0
 168 361 212 404 256 416 c 0
 302 428 333 403 323 359 c 0
340 81 m 0
 335 55 354 34 384 37 c 0
 414 40 443 67 448 95 c 0
 453 121 432 141 402 137 c 0
 373 133 345 107 340 81 c 0
293 75 m 0
 304 127 356 175 411 184 c 0
 468 194 510 157 501 101 c 0
 492 44 434 -9 374 -14 c 0
 317 -19 282 21 293 75 c 0
516 466 m 2
 157 -11 l 2
 147 -24 127 -36 113 -37 c 0
 98 -39 95 -29 105 -16 c 2
 105 -16 456 450 456 451 c 0
 465 463 486 477 503 482 c 0
 520 486 525 479 516 466 c 2
EndSplineSet
EndChar

StartChar: ampersand
Encoding: 38 38 9
Width: 790
GlyphClass: 2
Flags: MW
HStem: 0 74 253 74 364 74 505 75
VStem: 557 74
LayerCount: 2
Back
Fore
SplineSet
378 329 m 2
 551 367 l 2
 555 369 559 370 563 371 c 0
 568 372 572 372 575 372 c 2
 680 395 l 2
 695 399 706 388 704 371 c 0
 702 354 687 338 673 335 c 2
 588 318 l 1
 547 36 l 2
 545 17 530 0 515 -1 c 2
 83 -40 l 2
 73 -41 67 -29 72 -13 c 0
 90 59 116 122 155 166 c 0
 154 170 154 175 155 182 c 0
 183 293 293 402 411 433 c 0
 540 466 520 460 520 460 c 2
 533 463 542 455 539 439 c 0
 537 424 524 410 511 407 c 2
 511 407 489 401 401 380 c 0
 326 362 263 296 225 220 c 1
 253 225 l 2
 257 227 262 228 267 229 c 0
 391 252 392 252 392 252 c 2
 404 254 412 244 409 227 c 0
 406 211 393 196 380 194 c 2
 380 194 310 182 250 172 c 0
 184 159 182 102 142 23 c 1
 483 62 l 1
 491 117 509 225 522 305 c 1
 438 288 367 274 367 274 c 2
 355 272 347 282 351 297 c 0
 354 312 366 326 378 329 c 2
EndSplineSet
EndChar

StartChar: quotesingle
Encoding: 39 39 10
Width: 198
GlyphClass: 2
Flags: MW
HStem: 558 21G 608 93
VStem: 49 89 115 32
LayerCount: 2
Back
Fore
SplineSet
189 419 m 0xe0
 193 434 208 451 224 455 c 0
 240 460 250 450 246 434 c 0xe0
 246 422 247 403 241 391 c 0
 236 383 204 368 181 360 c 1
 201 373 218 381 224 404 c 1xd0
 219 401 214 398 209 397 c 0
 193 393 185 403 189 419 c 0xe0
EndSplineSet
EndChar

StartChar: parenleft
Encoding: 40 40 11
Width: 395
GlyphClass: 2
Flags: MW
HStem: 0 1 506 75 580 1
VStem: 23 82 42 82
LayerCount: 2
Back
Fore
SplineSet
333 412 m 1xa8
 344 415 351 407 348 392 c 0
 345 378 333 364 322 362 c 0
 243 343 197 270 176 186 c 0
 155 98 168 27 251 36 c 0
 262 37 270 25 266 8 c 0
 262 -10 249 -25 237 -26 c 1
 237 -26 369 -14 237 -26 c 1
 118 -37 91 59 121 176 c 0
 150 286 222 384 333 413 c 0xd0
 455 444 333 412 333 412 c 1xa8
EndSplineSet
EndChar

StartChar: parenright
Encoding: 41 41 12
Width: 397
GlyphClass: 2
Flags: MW
HStem: 0 1 1 74 580 1
VStem: 211 82 271 82
LayerCount: 2
Back
Fore
SplineSet
219 383 m 1x68
 219 383 118 357 219 384 c 0
 330 412 368 335 343 216 c 0
 317 89 234 -27 115 -37 c 1
 7 -47 115 -37 115 -37 c 1xb0
 105 -38 99 -26 103 -9 c 0
 107 7 119 21 130 22 c 0
 210 31 261 113 281 205 c 0
 300 292 283 352 207 334 c 0
 197 332 191 341 195 354 c 0
 198 368 209 381 219 383 c 1x68
EndSplineSet
EndChar

StartChar: asterisk
Encoding: 42 42 13
Width: 331
GlyphClass: 2
Flags: MW
HStem: 608 30
VStem: 151 30
LayerCount: 2
Back
Fore
SplineSet
286 493 m 2
 275 445 l 1
 299 470 320 490 320 490 c 2
 328 499 339 490 331 481 c 2
 286 435 l 1
 315 443 339 450 339 450 c 2
 343 451 346 448 345 442 c 0
 344 437 339 432 335 430 c 2
 281 416 l 1
 297 402 311 390 311 390 c 2
 317 385 299 367 293 372 c 2
 264 399 l 1
 252 348 l 2
 251 343 245 339 240 338 c 0
 234 336 230 339 231 343 c 2
 231 343 237 366 244 393 c 1
 199 349 l 2
 191 341 181 351 189 359 c 2
 233 403 l 1
 184 390 l 2
 180 389 178 393 179 398 c 0
 180 403 185 408 188 409 c 2
 188 409 210 415 238 422 c 1
 211 447 l 2
 206 451 223 468 228 464 c 2
 228 464 240 453 255 440 c 1
 261 466 266 488 266 488 c 2
 267 491 272 496 278 498 c 0
 283 499 287 497 286 493 c 2
EndSplineSet
AlternateSubs2: "'salt' Stylistic Alternatives in Latin lookup 0 subtable" uniE006
EndChar

StartChar: plus
Encoding: 43 43 14
Width: 572
GlyphClass: 2
Flags: MW
HStem: 272 74
VStem: 249 74
LayerCount: 2
Back
Fore
SplineSet
458 222 m 2
 317 198 l 1
 302 126 288 59 288 59 c 2
 285 47 270 35 254 33 c 0
 238 31 228 40 231 52 c 2
 261 188 l 1
 140 167 l 2
 130 165 124 175 128 190 c 0
 132 204 143 217 153 219 c 2
 273 243 l 1
 301 366 l 2
 303 376 317 388 332 392 c 0
 347 395 357 389 355 379 c 2
 355 379 343 321 329 254 c 1
 400 268 468 281 468 281 c 2
 481 283 490 273 487 256 c 0
 484 239 471 225 458 222 c 2
EndSplineSet
AlternateSubs2: "'salt' Stylistic Alternatives in Latin lookup 0 subtable" uniE005
EndChar

StartChar: comma
Encoding: 44 44 15
Width: 205
GlyphClass: 2
Flags: MW
HStem: 0 93
VStem: 53 89 118 32
LayerCount: 2
Back
Fore
SplineSet
81 -5 m 0xc0
 86 15 103 32 120 34 c 0
 137 37 147 21 143 2 c 0xc0
 142 -15 143 -41 135 -55 c 0
 130 -64 95 -75 70 -81 c 1
 92 -68 111 -62 118 -33 c 1xa0
 113 -36 107 -38 102 -39 c 0
 85 -40 76 -25 81 -5 c 0xc0
EndSplineSet
EndChar

StartChar: hyphen
Encoding: 45 45 16
Width: 592
GlyphClass: 2
Flags: MW
HStem: 272 74
LayerCount: 2
Back
Fore
SplineSet
466 224 m 2
 146 168 l 2
 136 166 131 176 134 191 c 0
 138 206 150 219 160 220 c 2
 160 220 476 283 476 282 c 1
 489 285 498 274 495 258 c 0
 493 241 479 226 466 224 c 2
EndSplineSet
EndChar

StartChar: period
Encoding: 46 46 17
Width: 196
GlyphClass: 2
Flags: MW
HStem: 0 93
VStem: 54 89
LayerCount: 2
Back
Fore
SplineSet
82 -5 m 0
 87 15 104 32 121 35 c 0
 138 37 148 22 143 2 c 0
 138 -18 120 -37 102 -39 c 0
 85 -40 77 -24 82 -5 c 0
EndSplineSet
EndChar

StartChar: slash
Encoding: 47 47 18
Width: 363
GlyphClass: 2
Flags: MW
VStem: 41 281
LayerCount: 2
Back
Fore
SplineSet
364 427 m 2
 121 -15 l 2
 114 -27 97 -39 82 -40 c 0
 68 -41 63 -32 70 -20 c 2
 311 413 l 2
 317 424 334 437 349 441 c 0
 364 445 370 438 364 427 c 2
EndSplineSet
EndChar

StartChar: zero
Encoding: 48 48 19
Width: 708
GlyphClass: 2
Flags: MW
HStem: 0 82 503 82
VStem: 48 79 581 79
LayerCount: 2
Back
Fore
SplineSet
178 188 m 0
 158 105 213 38 310 49 c 0
 414 62 519 159 534 252 c 0
 548 341 474 396 376 372 c 0
 284 351 198 267 178 188 c 0
126 178 m 0
 155 290 267 399 387 430 c 0
 520 464 624 395 607 265 c 0
 587 125 440 -8 295 -21 c 0
 165 -33 95 60 126 178 c 0
EndSplineSet
AlternateSubs2: "'salt' Stylistic Alternatives in Latin lookup 0 subtable" uniE019
EndChar

StartChar: one
Encoding: 49 49 20
Width: 298
GlyphClass: 2
Flags: MW
VStem: 174 74
LayerCount: 2
Back
Fore
SplineSet
240 316 m 1
 185 261 l 2
 176 252 162 251 155 259 c 0
 148 267 151 281 159 289 c 2
 250 380 l 2
 259 389 268 403 285 406 c 0
 300 410 309 404 307 394 c 2
 218 -5 l 2
 215 -18 200 -30 184 -31 c 0
 169 -32 160 -23 163 -11 c 2
 163 -11 213 202 240 316 c 1
EndSplineSet
EndChar

StartChar: two
Encoding: 50 50 21
Width: 691
GlyphClass: 2
Flags: MW
HStem: 0 75 211 75 504 75
VStem: 49 82 559 82
LayerCount: 2
Back
Fore
SplineSet
524 1 m 2
 524 1 423 -9 286 -22 c 0
 162 -33 66 -56 97 65 c 0
 127 181 184 184 236 193 c 0
 357 215 446 230 446 230 c 2
 493 238 519 278 527 328 c 0
 542 419 459 393 372 372 c 0
 290 353 183 327 183 327 c 2
 173 325 168 334 171 347 c 0
 175 361 186 373 195 376 c 2
 195 376 267 395 383 424 c 0
 509 457 618 467 601 344 c 0
 584 224 519 183 435 169 c 0
 304 149 223 137 223 137 c 2
 145 124 154 74 153 73 c 0
 142 25 213 32 299 42 c 0
 391 53 534 69 534 69 c 2
 549 71 559 57 556 38 c 0
 554 18 539 2 524 1 c 2
EndSplineSet
EndChar

StartChar: three
Encoding: 51 51 22
Width: 768
GlyphClass: 2
Flags: MW
HStem: 0 75 253 74 506 75
VStem: 639 82
LayerCount: 2
Back
Fore
SplineSet
149 206 m 2
 441 261 l 2
 454 264 462 252 459 236 c 0
 457 219 443 205 431 203 c 2
 136 153 l 2
 126 151 120 161 124 176 c 0
 128 191 139 204 149 206 c 2
248 391 m 2
 248 391 323 410 444 441 c 0
 577 475 682 405 666 274 c 0
 649 133 503 -2 358 -16 c 0
 227 -27 146 -34 146 -34 c 2
 135 -35 129 -23 134 -6 c 0
 138 11 150 25 161 26 c 2
 161 26 279 39 370 50 c 0
 468 61 573 158 587 260 c 0
 601 356 525 410 434 388 c 0
 349 368 236 341 236 341 c 2
 226 339 220 348 224 361 c 0
 227 375 238 388 248 391 c 2
EndSplineSet
EndChar

StartChar: four
Encoding: 52 52 23
Width: 645
GlyphClass: 2
Flags: MW
HStem: 239 75 515 75
VStem: 416 74
LayerCount: 2
Back
Fore
SplineSet
490 437 m 1
 458 254 l 1
 531 268 l 2
 544 270 554 259 551 242 c 0
 549 225 534 209 521 207 c 2
 521 207 492 202 447 195 c 1
 416 15 l 2
 413 1 397 -12 379 -13 c 0
 361 -15 349 -5 352 8 c 2
 385 184 l 1
 357 180 336 176 336 176 c 2
 266 165 233 159 128 142 c 1
 102 144 121 167 145 197 c 0
 240 316 322 413 388 433 c 0
 502 467 490 437 490 437 c 1
425 393 m 1
 413 390 398 386 378 381 c 0
 346 373 306 335 215 221 c 0
 202 205 239 214 348 234 c 2
 348 234 353 235 397 243 c 1
 408 304 419 362 425 393 c 1
EndSplineSet
AlternateSubs2: "'salt' Stylistic Alternatives in Latin lookup 0 subtable" uniE012
EndChar

StartChar: five
Encoding: 53 53 24
Width: 690
GlyphClass: 2
Flags: MW
HStem: 0 75 293 75 503 75
VStem: 49 82 559 82
LayerCount: 2
Back
Fore
SplineSet
594 478 m 2
 607 481 617 472 615 457 c 0
 613 441 600 426 586 423 c 2
 586 423 453 391 366 371 c 0
 285 351 217 335 207 293 c 0
 207 291 173 238 249 253 c 2
 249 253 329 270 457 296 c 0
 539 312 593 294 576 171 c 0
 556 26 429 -9 291 -22 c 0
 166 -33 90 -39 90 -39 c 2
 79 -40 74 -28 78 -12 c 0
 82 5 94 18 104 19 c 2
 104 19 218 32 304 42 c 0
 396 53 483 55 500 159 c 0
 508 213 493 246 447 237 c 2
 447 237 358 221 237 199 c 0
 185 189 124 170 153 281 c 0
 179 383 262 393 377 422 c 0
 503 455 594 478 594 478 c 2
EndSplineSet
EndChar

StartChar: six
Encoding: 54 54 25
Width: 692
GlyphClass: 2
Flags: MW
HStem: 1 74 252 75 504 75
VStem: 52 82 560 82
LayerCount: 2
Back
Fore
SplineSet
324 -18 m 2
 324 -18 392 -12 293 -21 c 1
 292 -21 l 1
 290 -21 l 1
 288 -22 l 1
 287 -22 l 1
 196 -30 257 -24 257 -24 c 2
 150 -30 80 -9 108 100 c 0
 117 136 129 161 142 178 c 1
 136 191 135 213 145 249 c 0
 172 353 262 393 377 423 c 0
 503 455 595 478 595 478 c 2
 608 481 618 472 616 457 c 0
 613 441 600 426 587 423 c 2
 587 423 453 391 367 371 c 0
 285 351 214 319 199 260 c 0
 199 259 177 217 228 221 c 0
 234 222 239 223 245 224 c 0
 281 231 315 237 344 243 c 0
 374 249 410 255 452 263 c 0
 515 275 596 304 577 170 c 0
 559 41 450 -2 324 -18 c 2
359 190 m 0
 324 184 280 176 230 168 c 1
 218 165 l 2
 162 150 164 110 164 109 c 0
 148 43 213 32 298 42 c 1
 303 42 l 2
 305 42 306 43 308 43 c 0
 400 54 489 85 501 159 c 0
 501 160 529 218 443 204 c 1
 443 204 l 1
 443 204 404 197 359 190 c 0
EndSplineSet
EndChar

StartChar: seven
Encoding: 55 55 26
Width: 686
GlyphClass: 2
Flags: MW
HStem: 506 75
VStem: 553 82 556 74
LayerCount: 2
Back
Fore
SplineSet
474 20 m 0xa0
 475 20 495 147 511 246 c 0
 526 340 457 394 370 373 c 0
 288 354 181 328 181 328 c 2
 171 326 166 334 169 348 c 0
 173 362 184 374 193 377 c 2
 193 377 265 395 380 425 c 0
 507 457 595 386 586 260 c 1xc0
 545 27 l 2
 543 13 525 0 505 -2 c 0
 485 -4 472 7 474 20 c 0xa0
EndSplineSet
EndChar

StartChar: eight
Encoding: 56 56 27
Width: 693
GlyphClass: 2
Flags: MW
HStem: 1 74 252 75 504 75 578 1
VStem: 27 82 50 82 538 82 561 82
LayerCount: 2
Back
Fore
SplineSet
459 206 m 0xc5
 453 205 447 204 442 203 c 0
 399 196 362 190 332 185 c 0
 302 180 268 174 230 168 c 0
 226 167 221 166 216 165 c 0
 161 150 163 110 162 108 c 0
 146 43 211 32 296 41 c 0
 298 42 300 42 302 42 c 0
 304 42 307 43 309 43 c 0
 400 54 490 85 501 159 c 0
 502 160 526 211 459 206 c 0xc5
349 415 m 2xda
 349 415 296 402 377 422 c 0xda
 377 423 377 423 378 423 c 2
 381 424 l 1
 384 424 l 1xea
 384 424 384 425 385 425 c 0
 471 447 413 431 413 431 c 2
 527 457 618 455 602 345 c 0
 597 304 585 275 569 256 c 1
 580 240 584 214 578 170 c 0
 560 41 450 -2 324 -18 c 2
 324 -18 387 -13 294 -21 c 1
 292 -21 l 1
 289 -22 l 1
 286 -22 l 1
 285 -22 l 1
 198 -30 255 -24 255 -24 c 2
 148 -30 78 -9 107 100 c 0
 116 137 128 162 142 179 c 1
 136 192 136 214 145 249 c 0
 170 345 248 386 349 415 c 2xda
344 243 m 0
 374 248 410 255 452 263 c 0
 458 264 464 266 470 267 c 0
 537 286 528 328 529 329 c 0
 539 394 462 393 376 373 c 0
 374 373 372 372 370 372 c 0xea
 368 371 366 371 364 370 c 0
 284 351 214 319 200 260 c 0
 199 259 177 217 229 221 c 0
 234 222 239 223 243 224 c 0
 280 231 314 237 344 243 c 0
EndSplineSet
EndChar

StartChar: nine
Encoding: 57 57 28
Width: 695
GlyphClass: 2
Flags: MW
HStem: 0 75 252 75 504 75
VStem: 51 82 562 82
LayerCount: 2
Back
Fore
SplineSet
349 415 m 2
 349 415 293 401 378 423 c 1
 378 423 l 1
 380 423 l 1
 382 424 l 1
 383 424 l 1
 474 447 412 431 412 431 c 2
 525 457 616 455 601 344 c 0
 595 305 592 261 592 261 c 2
 579 170 585 215 579 170 c 0
 559 29 431 -9 293 -21 c 0
 169 -32 92 -39 92 -39 c 2
 81 -40 76 -28 80 -11 c 0
 84 5 96 19 106 20 c 2
 106 20 220 33 306 43 c 0
 399 53 490 84 502 159 c 0
 502 160 526 211 460 206 c 0
 453 205 447 204 440 203 c 0
 398 196 362 190 331 185 c 0
 302 180 268 174 231 168 c 0
 179 159 117 137 146 249 c 0
 170 345 249 386 349 415 c 2
317 237 m 0
 351 244 397 253 453 264 c 0
 458 264 462 265 467 266 c 0
 536 286 527 327 527 329 c 0
 538 394 460 393 374 373 c 0
 373 372 371 372 370 372 c 0
 368 371 367 371 365 370 c 0
 285 351 215 319 200 261 c 0
 200 259 174 211 242 223 c 1
 242 223 l 1
 242 223 276 230 317 237 c 0
EndSplineSet
EndChar

StartChar: colon
Encoding: 58 58 29
Width: 200
GlyphClass: 2
Flags: MW
HStem: -1 93 182 93
VStem: 56 89
LayerCount: 2
Back
Fore
SplineSet
119 133 m 0
 123 151 140 168 156 171 c 0
 173 174 183 161 179 143 c 0
 174 124 156 106 139 103 c 0
 122 101 114 114 119 133 c 0
83 -5 m 0
 88 15 105 32 122 34 c 0
 139 37 149 21 145 2 c 0
 140 -19 121 -37 104 -39 c 0
 87 -40 78 -25 83 -5 c 0
EndSplineSet
EndChar

StartChar: semicolon
Encoding: 59 59 30
Width: 206
GlyphClass: 2
Flags: MW
HStem: -1 93 182 93
VStem: 53 89 118 32
LayerCount: 2
Back
Fore
SplineSet
82 -5 m 0xe0
 87 14 103 32 120 34 c 0
 138 36 148 21 143 1 c 0xe0
 142 -15 143 -41 135 -55 c 0
 130 -64 96 -75 70 -81 c 1
 93 -69 111 -62 118 -33 c 1xd0
 113 -36 108 -38 102 -39 c 0
 85 -40 77 -25 82 -5 c 0xe0
117 133 m 0
 122 151 138 168 155 171 c 0
 172 174 182 161 177 142 c 0
 173 124 155 105 138 103 c 0
 121 100 112 114 117 133 c 0
EndSplineSet
EndChar

StartChar: less
Encoding: 60 60 31
Width: 363
GlyphClass: 2
Flags: MW
VStem: 46 270
LayerCount: 2
Back
Fore
SplineSet
134 213 m 0
 138 228 150 244 161 250 c 2
 332 382 l 2
 343 388 351 384 349 373 c 0
 347 362 335 349 323 344 c 2
 178 222 l 1
 280 144 l 1
 291 142 298 131 295 119 c 0
 293 106 281 98 270 100 c 1
 270 100 144 183 144 184 c 0
 135 186 130 199 134 213 c 0
EndSplineSet
EndChar

StartChar: equal
Encoding: 61 61 32
Width: 515
GlyphClass: 2
Flags: MW
HStem: 134 72 278 72
LayerCount: 2
Back
Fore
SplineSet
372 99 m 2
 126 66 l 2
 111 64 106 75 110 89 c 0
 113 102 122 113 137 120 c 1
 383 158 l 1
 403 157 410 148 406 131 c 0
 403 115 391 104 372 99 c 2
394 216 m 2
 153 173 l 2
 138 170 133 180 137 193 c 0
 140 206 149 216 163 224 c 1
 239 239 320 257 405 271 c 0
 425 275 432 265 429 248 c 0
 425 233 413 222 394 216 c 2
EndSplineSet
EndChar

StartChar: greater
Encoding: 62 62 33
Width: 365
GlyphClass: 2
Flags: MW
VStem: 47 270
LayerCount: 2
Back
Fore
SplineSet
324 251 m 0
 321 235 307 217 295 211 c 2
 118 79 l 2
 107 74 100 79 103 91 c 0
 106 102 117 115 128 120 c 2
 274 241 l 1
 176 310 l 1
 167 310 162 319 164 329 c 0
 167 339 177 347 186 346 c 2
 310 281 l 2
 321 279 327 266 324 251 c 0
EndSplineSet
EndChar

StartChar: question
Encoding: 63 63 34
Width: 597
GlyphClass: 2
Flags: MW
HStem: 0 80 299 64 516 64
VStem: 213 76 220 64
LayerCount: 2
Back
Fore
SplineSet
292 213 m 1xe8
 264 84 l 2
 261 73 249 63 235 61 c 0
 222 60 214 67 216 77 c 2
 250 228 l 2
 253 241 264 252 273 254 c 2
 450 290 l 1
 441 350 402 388 338 372 c 0
 270 356 178 334 178 334 c 2
 170 332 165 339 168 351 c 0
 171 362 181 373 189 375 c 2
 189 375 250 391 347 416 c 0
 452 443 531 385 514 278 c 0
 511 264 499 251 488 249 c 2
 488 249 351 224 292 213 c 1xe8
195 2 m 0xf0
 199 20 214 36 230 38 c 0
 247 40 257 26 253 8 c 0
 249 -10 232 -27 216 -28 c 0
 199 -30 191 -16 195 2 c 0xf0
EndSplineSet
EndChar

StartChar: at
Encoding: 64 64 35
Width: 680
GlyphClass: 2
Flags: MW
HStem: 5 75 113 49 414 49 511 1 511 75
VStem: 22 82 45 82 171 47 194 47
LayerCount: 2
Back
Fore
SplineSet
552 120 m 0xea80
 568 140 470 -2 283 -18 c 0
 159 -29 94 63 124 180 c 0
 153 290 260 397 375 427 c 0xed
 500 459 592 482 592 482 c 2
 605 486 614 477 612 461 c 0
 610 446 597 431 583 428 c 1
 516 245 l 2
 486 164 419 88 334 77 c 0
 254 67 208 120 225 193 c 0
 241 263 312 332 388 349 c 0
 432 359 469 350 492 328 c 1
 518 362 482 390 435 392 c 0
 424 390 414 387 404 385 c 1
 412 387 422 389 433 392 c 1xf5
 410 393 386 388 364 375 c 1
 377 378 390 381 404 385 c 1
 379 378 362 374 364 375 c 1
 283 356 200 274 179 190 c 0
 157 102 211 38 296 45 c 0
 416 55 504 153 509 158 c 0
 519 169 536 168 550 159 c 0
 573 146 542 108 552 120 c 0xea80
259 199 m 0
 247 149 283 109 342 118 c 0
 404 126 465 183 475 238 c 0
 484 291 441 326 381 313 c 0
 324 301 270 248 259 199 c 0
EndSplineSet
EndChar

StartChar: A
Encoding: 65 65 36
Width: 720
GlyphClass: 2
Flags: MW
HStem: 0 82 503 82
VStem: 54 79 591 74
LayerCount: 2
Back
Fore
SplineSet
578 14 m 2
 576 0 503 -7 505 7 c 0
 510 35 514 63 518 90 c 1
 457 29 378 -14 300 -21 c 0
 170 -32 99 61 130 179 c 0
 158 290 271 400 392 431 c 0
 525 465 630 396 612 266 c 2
 578 14 l 2
182 188 m 0
 162 106 217 38 314 50 c 0
 420 62 525 160 539 253 c 0
 553 342 479 397 380 373 c 0
 288 352 202 268 182 188 c 0
EndSplineSet
EndChar

StartChar: B
Encoding: 66 66 37
Width: 723
GlyphClass: 2
Flags: MW
HStem: 0 82 503 82
VStem: 56 74 589 79
LayerCount: 2
Back
Fore
SplineSet
203 460 m 2
 206 469 253 484 251 474 c 0
 246 455 219 342 213 322 c 1
 261 373 325 414 393 431 c 0
 526 466 631 397 614 266 c 0
 595 126 447 -7 301 -20 c 0
 171 -32 100 61 131 179 c 2
 203 460 l 2
541 253 m 0
 554 342 480 397 381 374 c 0
 289 352 203 268 183 189 c 0
 163 106 218 39 316 50 c 0
 421 62 526 160 541 253 c 0
EndSplineSet
EndChar

StartChar: C
Encoding: 67 67 38
Width: 684
GlyphClass: 2
Flags: MW
HStem: 0 75 506 75
VStem: 47 82
LayerCount: 2
Back
Fore
SplineSet
593 479 m 2
 606 483 616 474 613 458 c 0
 611 442 598 428 585 424 c 2
 585 424 451 393 365 372 c 0
 284 353 200 271 179 186 c 0
 158 98 211 31 297 41 c 0
 389 52 532 68 532 68 c 2
 546 70 556 57 554 37 c 0
 551 18 536 1 521 0 c 2
 521 0 420 -10 283 -22 c 0
 160 -33 94 59 124 176 c 0
 153 287 261 394 376 424 c 0
 501 456 593 479 593 479 c 2
EndSplineSet
EndChar

StartChar: D
Encoding: 68 68 39
Width: 721
GlyphClass: 2
Flags: MW
HStem: 0 82 503 82
VStem: 55 79 592 75
LayerCount: 2
Back
Fore
SplineSet
656 592 m 2
 613 266 l 2
 594 126 446 -7 301 -21 c 0
 170 -32 99 61 130 179 c 0
 159 291 271 400 392 431 c 0
 463 449 526 438 567 404 c 1
 570 427 589 553 593 574 c 0
 594 584 658 602 656 592 c 2
183 189 m 0
 163 106 218 38 315 50 c 0
 420 62 525 160 540 253 c 0
 554 342 479 397 381 374 c 0
 289 352 202 268 183 189 c 0
EndSplineSet
EndChar

StartChar: E
Encoding: 69 69 40
Width: 677
GlyphClass: 2
Flags: MW
HStem: -25 60 371 68
VStem: 113 55
LayerCount: 2
Back
Fore
SplineSet
560 144 m 0
 493 82 508 84 419 26 c 0
 295 -56 147 -37 118 67 c 0
 92 161 159 293 270 373 c 0
 365 441 473 458 539 416 c 0
 555 406 597 389 574 368 c 0
 512 310 448 255 384 202 c 0
 374 193 355 187 347 198 c 0
 340 209 344 225 354 234 c 0
 379 256 505 358 487 362 c 0
 427 375 359 381 288 331 c 0
 202 271 152 169 173 103 c 0
 195 33 300 3 394 80 c 2
 516 179 l 2
 528 189 544 194 558 185 c 0
 571 175 571 155 560 144 c 0
EndSplineSet
AlternateSubs2: "'salt' Stylistic Alternatives in Latin lookup 0 subtable" uniE00A
EndChar

StartChar: F
Encoding: 70 70 41
Width: 685
GlyphClass: 2
Flags: MW
HStem: 279 74 506 75
VStem: 56 74
LayerCount: 2
Back
Fore
SplineSet
514 238 m 2
 217 185 l 2
 206 183 200 193 204 209 c 0
 207 224 219 237 230 239 c 2
 524 297 l 2
 537 300 547 289 544 272 c 0
 541 255 528 240 514 238 c 2
131 -14 m 2
 128 -26 114 -37 99 -39 c 0
 85 -40 77 -31 80 -19 c 2
 125 176 l 1
 160 288 261 394 376 424 c 0
 502 456 593 479 593 479 c 2
 606 483 616 474 614 458 c 0
 612 443 598 428 585 424 c 2
 585 424 452 393 365 372 c 0
 284 353 200 271 180 186 c 0
 158 98 131 -14 131 -14 c 2
EndSplineSet
EndChar

StartChar: G
Encoding: 71 71 42
Width: 701
GlyphClass: 2
Flags: MW
HStem: 0 75 506 75
VStem: 55 82 572 74
LayerCount: 2
Back
Fore
SplineSet
600 481 m 2
 613 484 623 475 621 460 c 0
 619 444 605 429 592 426 c 2
 592 426 458 394 371 374 c 0
 290 354 206 272 185 187 c 0
 164 99 217 32 303 42 c 0
 364 49 446 58 496 64 c 1
 528 263 l 2
 530 276 546 289 564 292 c 0
 584 296 597 288 595 276 c 2
 562 38 l 2
 559 18 544 2 530 1 c 2
 530 1 428 -9 290 -22 c 0
 166 -33 100 60 130 177 c 0
 158 288 267 396 382 425 c 0
 508 458 600 481 600 481 c 2
EndSplineSet
AlternateSubs2: "'salt' Stylistic Alternatives in Latin lookup 0 subtable" uniE003
EndChar

StartChar: H
Encoding: 72 72 43
Width: 663
GlyphClass: 2
Flags: MW
HStem: 400 82
VStem: 58 74 531 75
LayerCount: 2
Back
Fore
SplineSet
101 -39 m 1
 86 -40 78 -31 81 -19 c 2
 81 -19 81 -18 112 105 c 0
 114 111 116 116 117 122 c 0
 147 239 184 380 184 380 c 2
 186 390 199 401 212 404 c 0
 226 408 234 402 232 392 c 2
 198 255 l 1
 245 304 292 339 354 354 c 0
 480 383 564 304 544 170 c 0
 522 26 521 25 521 25 c 2
 519 11 502 -2 482 -4 c 0
 463 -6 450 5 452 18 c 2
 452 18 460 63 476 160 c 0
 491 251 435 314 342 294 c 0
 257 277 188 200 165 120 c 2
 132 -14 l 2
 129 -26 115 -37 101 -39 c 1
 101 -39 l 1
EndSplineSet
AlternateSubs2: "'salt' Stylistic Alternatives in Latin lookup 0 subtable" uniE004
EndChar

StartChar: I
Encoding: 73 73 44
Width: 197
GlyphClass: 2
Flags: MW
VStem: 61 74
LayerCount: 2
Back
Fore
SplineSet
230 375 m 2
 135 -13 l 2
 132 -25 118 -37 103 -38 c 0
 89 -40 81 -30 84 -18 c 2
 84 -18 181 362 181 363 c 0
 184 372 196 383 210 387 c 0
 223 390 232 385 230 375 c 2
EndSplineSet
EndChar

StartChar: J
Encoding: 74 74 45
Width: 691
GlyphClass: 2
Flags: MW
HStem: 0 75
VStem: 555 74 556 82 558 74
LayerCount: 2
Back
Fore
SplineSet
546 448 m 2x90
 547 459 562 472 580 476 c 0
 599 481 611 475 610 464 c 2xc0
 588 260 l 1
 559 121 429 -9 291 -21 c 0
 166 -33 89 -39 89 -39 c 2
 79 -40 74 -28 78 -12 c 0
 82 5 94 18 104 19 c 2
 104 19 217 32 304 42 c 0
 396 53 498 148 513 247 c 0xa0
 529 341 546 448 546 448 c 2x90
EndSplineSet
EndChar

StartChar: K
Encoding: 75 75 46
Width: 571
GlyphClass: 2
Flags: MW
VStem: 48 74
LayerCount: 2
Back
Fore
SplineSet
443 17 m 0
 448 5 435 -8 412 -10 c 0
 389 -13 367 -3 362 9 c 2
 291 188 l 1
 144 -12 l 2
 134 -25 112 -38 94 -39 c 0
 82 -40 76 -37 75 -31 c 0
 74 -28 73 -24 74 -19 c 2
 177 378 l 2
 180 388 192 399 205 402 c 0
 219 406 227 400 225 391 c 2
 146 72 l 1
 182 121 227 182 270 240 c 0
 270 246 275 252 282 256 c 0
 354 354 418 441 418 441 c 2
 427 453 451 468 471 473 c 0
 492 479 500 472 491 460 c 2
 339 253 l 2
 340 252 441 20 443 17 c 0
EndSplineSet
EndChar

StartChar: L
Encoding: 76 76 47
Width: 681
GlyphClass: 2
Flags: MW
HStem: 0 75
VStem: 27 82 54 74
LayerCount: 2
Back
Fore
SplineSet
223 367 m 2xa0
 223 367 199 271 178 186 c 0
 157 98 210 31 295 41 c 0
 387 52 530 68 530 68 c 2
 544 70 555 57 552 37 c 0
 549 18 534 1 520 0 c 2
 520 0 419 -10 282 -22 c 0
 159 -33 100 60 123 176 c 1xc0
 175 355 l 2
 178 365 190 376 203 380 c 0
 217 383 226 377 223 367 c 2xa0
EndSplineSet
EndChar

StartChar: M
Encoding: 77 77 48
Width: 1066
GlyphClass: 2
Flags: MW
HStem: 508 82
VStem: 59 75 496 75 932 75
LayerCount: 2
Back
Fore
SplineSet
967 69 m 2
 966 53 945 38 918 35 c 0
 892 33 873 45 874 60 c 2
 874 60 884 218 890 321 c 0
 896 419 835 486 716 457 c 0
 606 431 540 343 526 255 c 0
 511 162 489 22 489 22 c 2
 487 8 470 -5 450 -7 c 1
 450 -7 l 1
 450 -7 l 1
 431 -9 418 2 421 15 c 2
 421 15 445 152 460 243 c 0
 476 330 439 391 347 369 c 0
 262 349 203 272 184 192 c 2
 134 -13 l 2
 131 -26 117 -37 102 -38 c 0
 88 -40 79 -30 82 -19 c 2
 82 -19 103 65 134 183 c 0
 162 295 247 397 359 426 c 0
 441 447 481 417 511 361 c 1
 565 437 624 495 723 520 c 0
 884 562 983 481 978 337 c 0
 972 182 967 69 967 69 c 2
EndSplineSet
EndChar

StartChar: N
Encoding: 78 78 49
Width: 699
GlyphClass: 2
Flags: MW
HStem: 508 82
VStem: 59 75 565 75
LayerCount: 2
Back
Fore
SplineSet
554 28 m 2
 552 14 535 1 514 -1 c 0
 495 -3 481 8 483 21 c 2
 483 21 506 161 521 254 c 0
 535 342 466 398 373 375 c 0
 286 355 203 272 184 192 c 2
 134 -13 l 2
 131 -26 117 -37 102 -38 c 0
 88 -40 79 -30 82 -19 c 2
 82 -19 103 65 134 183 c 0
 162 295 270 403 385 432 c 0
 510 465 607 395 589 266 c 0
 569 128 554 28 554 28 c 2
EndSplineSet
EndChar

StartChar: O
Encoding: 79 79 50
Width: 716
GlyphClass: 2
Flags: MW
HStem: 0 82 503 82
VStem: 52 79 585 79
LayerCount: 2
Back
Fore
SplineSet
181 188 m 0
 161 106 216 38 313 50 c 0
 418 62 523 159 538 253 c 0
 551 342 477 396 379 373 c 0
 287 351 200 267 181 188 c 0
128 179 m 0
 157 290 270 399 390 430 c 0
 523 465 628 396 610 266 c 0
 591 126 444 -8 299 -21 c 0
 168 -32 98 60 128 179 c 0
EndSplineSet
EndChar

StartChar: P
Encoding: 80 80 51
Width: 726
GlyphClass: 2
Flags: MW
HStem: 0 82 503 82
VStem: 58 74 590 79
LayerCount: 2
Back
Fore
SplineSet
55 -118 m 2
 132 179 l 2
 160 291 273 400 394 431 c 0
 527 466 633 397 615 267 c 0
 596 126 448 -7 303 -20 c 0
 229 -27 175 0 146 44 c 1
 141 20 113 -90 107 -116 c 0
 104 -129 52 -131 55 -118 c 2
542 253 m 0
 556 343 481 397 382 374 c 0
 291 352 204 268 185 189 c 0
 164 106 220 39 317 50 c 0
 422 62 528 160 542 253 c 0
EndSplineSet
EndChar

StartChar: Q
Encoding: 81 81 52
Width: 720
GlyphClass: 2
Flags: MW
HStem: 0 82 503 82
VStem: 54 79 591 74
LayerCount: 2
Back
Fore
SplineSet
564 -89 m 2
 562 -104 488 -109 490 -94 c 0
 494 -65 514 63 518 90 c 1
 457 29 378 -14 300 -21 c 0
 170 -32 99 61 130 179 c 0
 158 290 271 400 392 431 c 0
 525 465 630 396 612 266 c 2
 564 -89 l 2
182 188 m 0
 162 106 217 38 314 50 c 0
 420 62 525 160 539 253 c 0
 553 342 479 397 380 373 c 0
 288 352 202 268 182 188 c 0
EndSplineSet
EndChar

StartChar: R
Encoding: 82 82 53
Width: 686
GlyphClass: 2
Flags: MW
HStem: 506 75
VStem: 56 74
LayerCount: 2
Back
Fore
SplineSet
131 -14 m 2
 128 -26 114 -37 100 -39 c 0
 85 -40 77 -31 80 -19 c 2
 125 177 l 1
 160 288 262 395 376 424 c 0
 502 456 594 479 594 479 c 2
 607 483 617 474 614 458 c 0
 612 443 599 428 585 425 c 2
 585 425 452 393 366 372 c 0
 285 353 201 271 180 186 c 0
 159 98 131 -14 131 -14 c 2
EndSplineSet
EndChar

StartChar: S
Encoding: 83 83 54
Width: 697
GlyphClass: 2
Flags: MW
HStem: 0 75 251 75 504 75
VStem: 52 82 563 82
LayerCount: 2
Back
Fore
SplineSet
454 264 m 0
 517 276 599 305 580 171 c 0
 560 29 432 -9 294 -21 c 0
 169 -32 92 -39 92 -39 c 2
 82 -40 77 -28 81 -11 c 0
 85 5 97 19 107 20 c 2
 107 20 221 33 307 43 c 0
 400 53 491 85 503 159 c 0
 503 161 532 219 443 204 c 2
 443 204 354 189 232 168 c 0
 180 159 117 137 146 249 c 0
 173 353 264 394 379 423 c 0
 505 456 597 479 597 479 c 2
 610 482 620 473 618 457 c 0
 616 442 602 427 589 424 c 2
 589 424 455 392 369 371 c 0
 287 352 215 320 201 261 c 0
 201 259 175 210 245 223 c 2
 245 223 325 239 454 264 c 0
EndSplineSet
AlternateSubs2: "'salt' Stylistic Alternatives in Latin lookup 0 subtable" uniE016
EndChar

StartChar: T
Encoding: 84 84 55
Width: 584
GlyphClass: 2
Flags: MW
HStem: 516 74
VStem: 255 74
LayerCount: 2
Back
Fore
SplineSet
190 381 m 2
 333 419 l 2
 336 420 339 422 343 422 c 0
 346 423 349 424 352 424 c 2
 516 466 l 2
 528 469 537 461 535 446 c 0
 532 430 519 416 507 413 c 2
 507 413 435 395 359 377 c 1
 280 1 l 2
 278 -12 262 -24 246 -25 c 0
 230 -27 220 -17 222 -5 c 2
 222 -5 283 268 305 364 c 1
 236 348 177 333 177 333 c 2
 168 331 162 340 166 353 c 0
 169 367 180 379 190 381 c 2
EndSplineSet
EndChar

StartChar: U
Encoding: 85 85 56
Width: 696
GlyphClass: 2
Flags: MW
HStem: 0 82
VStem: 58 75 564 75
LayerCount: 2
Back
Fore
SplineSet
616 473 m 2
 616 473 605 391 587 261 c 0
 567 123 427 -9 290 -21 c 0
 167 -33 101 61 132 179 c 0
 161 291 179 362 179 362 c 2
 182 372 194 383 208 387 c 0
 221 390 230 384 228 375 c 2
 228 375 201 268 182 188 c 0
 162 106 213 38 305 49 c 0
 404 60 504 156 518 249 c 0
 533 338 552 456 552 456 c 2
 553 467 568 480 586 485 c 0
 605 490 617 484 616 473 c 2
EndSplineSet
EndChar

StartChar: V
Encoding: 86 86 57
Width: 592
GlyphClass: 2
Flags: MW
HStem: -1 1 0 74
VStem: 394 74 395 82
LayerCount: 2
Back
Fore
SplineSet
230 33 m 1x40
 228 33 l 1
 230 33 l 1x40
172 354 m 2
 171 363 180 373 194 377 c 0
 207 380 219 375 220 366 c 2
 220 366 235 133 241 35 c 1
 325 52 414 140 430 231 c 0x90
 447 323 466 428 466 428 c 2
 468 438 482 451 499 455 c 0
 516 460 528 454 526 443 c 2xa0
 501 244 l 1
 469 109 344 -17 214 -29 c 0
 97 -39 218 -28 218 -28 c 2x90
 202 -29 189 -20 187 -8 c 2
 172 354 l 2
EndSplineSet
AlternateSubs2: "'salt' Stylistic Alternatives in Latin lookup 0 subtable" uniE015
EndChar

StartChar: W
Encoding: 87 87 58
Width: 1064
GlyphClass: 2
Flags: MW
HStem: 0 82
VStem: 58 75 494 75 931 75
LayerCount: 2
Back
Fore
SplineSet
180 362 m 2
 182 372 195 383 208 387 c 0
 222 390 230 384 228 375 c 2
 228 375 202 268 182 188 c 0
 162 106 188 35 277 45 c 0
 374 57 442 147 458 238 c 0
 473 325 494 442 494 442 c 2
 496 452 510 465 527 470 c 1
 528 470 l 1
 528 470 l 1
 546 474 558 468 556 458 c 2
 556 458 537 339 523 250 c 0
 508 157 553 78 673 92 c 0
 803 107 882 212 889 316 c 0
 895 414 903 545 903 545 c 2
 904 557 922 572 944 578 c 0
 968 584 985 578 985 566 c 2
 985 566 982 476 977 332 c 0
 970 176 845 29 663 12 c 0
 552 2 503 52 470 125 c 1
 413 42 352 -16 263 -24 c 0
 142 -35 102 61 132 179 c 0
 161 291 180 362 180 362 c 2
EndSplineSet
EndChar

StartChar: X
Encoding: 88 88 59
Width: 630
GlyphClass: 2
Flags: MW
HStem: -20 21G<71 71> -5 21G
VStem: 62 508 67 508
LayerCount: 2
Back
Fore
SplineSet
571 461 m 2x50
 350 221 l 1
 422 128 504 23 504 23 c 2
 511 11 497 -3 473 -5 c 0
 449 -7 425 2 419 15 c 2x60
 305 172 l 1
 135 -13 l 2
 125 -26 103 -38 85 -40 c 0
 67 -42 62 -32 71 -20 c 2xa0
 71 -20 175 93 280 208 c 1
 170 360 l 2
 167 368 176 378 193 382 c 0
 210 387 226 383 230 375 c 2
 230 375 271 322 323 255 c 1
 413 354 494 441 494 441 c 2
 503 454 528 469 550 475 c 0
 572 481 581 474 571 461 c 2x50
EndSplineSet
EndChar

StartChar: Y
Encoding: 89 89 60
Width: 661
GlyphClass: 2
Flags: MW
HStem: -65 75 108 82
VStem: 56 75 530 75
LayerCount: 2
Back
Fore
SplineSet
558 477 m 1
 576 482 588 476 586 465 c 2
 586 465 587 465 569 343 c 0
 568 336 567 330 565 324 c 0
 545 190 541 166 541 166 c 1
 525 6 393 -71 256 -80 c 0
 133 -89 161 -86 161 -86 c 2
 150 -87 144 -74 148 -57 c 0
 152 -39 165 -25 176 -24 c 2
 176 -24 184 -23 270 -15 c 0
 362 -7 454 36 472 140 c 0
 473 145 473 149 474 153 c 2
 474 156 l 1
 477 172 l 1
 422 115 366 77 297 68 c 0
 176 53 121 141 150 254 c 2
 178 362 l 2
 181 372 193 383 207 386 c 0
 220 390 229 384 227 374 c 2
 227 374 218 341 200 265 c 0
 180 186 221 122 311 135 c 0
 404 149 483 235 502 321 c 1
 523 449 l 2
 525 460 540 473 558 477 c 1
 558 477 l 1
478 175 m 0
 485 218 478 177 477 172 c 1
 477 173 477 174 478 175 c 0
EndSplineSet
AlternateSubs2: "'salt' Stylistic Alternatives in Latin lookup 0 subtable" uniE00D
EndChar

StartChar: Z
Encoding: 90 90 61
Width: 699
GlyphClass: 2
Flags: MW
HStem: 0 75 252 75 504 75
VStem: 53 82 564 82
LayerCount: 2
Back
Fore
SplineSet
245 224 m 0
 367 247 455 263 455 263 c 2
 542 280 531 328 531 330 c 0
 542 395 463 394 375 373 c 0
 294 353 186 328 186 328 c 2
 176 325 170 334 174 348 c 0
 177 361 188 374 198 376 c 2
 198 376 270 395 386 425 c 0
 513 457 622 465 605 345 c 0
 587 214 508 215 444 204 c 0
 313 182 233 169 233 169 c 2
 162 157 165 110 165 109 c 0
 148 43 215 32 302 42 c 0
 394 53 537 69 537 69 c 2
 552 71 562 57 560 38 c 0
 557 18 542 2 527 1 c 2
 527 1 426 -9 288 -22 c 0
 164 -33 78 -19 109 100 c 0
 138 215 194 214 245 224 c 0
EndSplineSet
AlternateSubs2: "'salt' Stylistic Alternatives in Latin lookup 0 subtable" uniE017
EndChar

StartChar: bracketleft
Encoding: 91 91 62
Width: 353
GlyphClass: 2
Flags: MW
HStem: 0 1 506 75 580 1
VStem: 27 82 42 82
LayerCount: 2
Back
Fore
SplineSet
303 405 m 1xa8
 314 407 321 399 317 385 c 0
 314 370 302 357 292 355 c 0
 215 336 197 270 176 186 c 0
 155 98 138 23 219 32 c 0
 230 34 237 22 233 4 c 0
 230 -13 217 -28 205 -29 c 1
 205 -29 334 -18 205 -29 c 1
 89 -40 91 59 121 176 c 0
 150 286 195 377 303 405 c 1xd0
 422 436 303 405 303 405 c 1xa8
EndSplineSet
EndChar

StartChar: backslash
Encoding: 92 92 63
Width: 362
GlyphClass: 2
Flags: MW
VStem: 40 281
LayerCount: 2
Back
Fore
SplineSet
173 377 m 2
 172 386 181 396 194 399 c 0
 208 403 219 398 220 389 c 2
 274 1 l 2
 276 -12 264 -24 248 -25 c 0
 232 -27 218 -17 217 -5 c 2
 173 377 l 2
EndSplineSet
EndChar

StartChar: bracketright
Encoding: 93 93 64
Width: 356
GlyphClass: 2
Flags: MW
HStem: 0 1 1 74 580 1
VStem: 169 82 230 82
LayerCount: 2
Back
Fore
SplineSet
219 383 m 1x68
 219 383 118 357 219 384 c 0
 330 412 336 328 311 210 c 0
 285 84 234 -27 115 -37 c 1
 7 -47 115 -37 115 -37 c 1xb0
 105 -38 99 -26 103 -9 c 0
 107 7 120 21 130 22 c 0
 210 31 230 109 250 199 c 0
 270 286 283 353 207 334 c 0
 197 332 192 341 195 354 c 0
 198 368 210 381 219 383 c 1x68
EndSplineSet
EndChar

StartChar: asciicircum
Encoding: 94 94 65
Width: 476
GlyphClass: 2
Flags: MW
HStem: 494 270
LayerCount: 2
Back
Fore
SplineSet
329 523 m 0
 344 528 357 524 358 515 c 0
 359 515 436 400 436 400 c 1
 437 390 429 379 416 376 c 0
 404 373 394 380 393 389 c 1
 320 481 l 1
 202 343 l 2
 196 332 184 321 174 319 c 0
 164 317 161 324 166 334 c 2
 293 496 l 2
 299 507 315 519 329 523 c 0
EndSplineSet
EndChar

StartChar: underscore
Encoding: 95 95 66
Width: 865
GlyphClass: 2
Flags: MW
HStem: -133 74
LayerCount: 2
Back
Fore
SplineSet
90 -86 m 2
 677 -45 l 2
 694 -44 707 -60 704 -82 c 0
 702 -104 686 -121 669 -122 c 2
 74 -148 l 2
 64 -149 58 -136 63 -118 c 0
 67 -101 79 -87 90 -86 c 2
EndSplineSet
EndChar

StartChar: grave
Encoding: 96 96 67
Width: 228
GlyphClass: 2
Flags: MW
HStem: 558 21G 608 93
LayerCount: 2
Back
Fore
SplineSet
190 419 m 0
 187 433 196 447 211 452 c 0
 227 456 243 449 247 435 c 0
 254 424 266 407 264 397 c 0
 263 390 234 376 211 367 c 1
 228 380 243 388 238 408 c 1
 234 405 230 402 225 401 c 0
 208 397 193 405 190 419 c 0
EndSplineSet
EndChar

StartChar: a
Encoding: 97 97 68
Width: 720
GlyphClass: 2
Flags: MW
HStem: 0 82 503 82
VStem: 54 79 591 74
LayerCount: 2
Back
Fore
SplineSet
578 14 m 2
 576 0 503 -7 505 7 c 0
 510 35 514 63 518 90 c 1
 457 29 378 -14 300 -21 c 0
 170 -32 99 61 130 179 c 0
 158 290 271 400 392 431 c 0
 525 465 630 396 612 266 c 2
 578 14 l 2
182 188 m 0
 162 106 217 38 314 50 c 0
 420 62 525 160 539 253 c 0
 553 342 479 397 380 373 c 0
 288 352 202 268 182 188 c 0
EndSplineSet
EndChar

StartChar: b
Encoding: 98 98 69
Width: 723
GlyphClass: 2
Flags: MW
HStem: 0 82 503 82
VStem: 56 74 589 79
LayerCount: 2
Back
Fore
SplineSet
203 460 m 2
 206 469 253 484 251 474 c 0
 246 455 219 342 213 322 c 1
 261 373 325 414 393 431 c 0
 526 466 631 397 614 266 c 0
 595 126 447 -7 301 -20 c 0
 171 -32 100 61 131 179 c 2
 203 460 l 2
541 253 m 0
 554 342 480 397 381 374 c 0
 289 352 203 268 183 189 c 0
 163 106 218 39 316 50 c 0
 421 62 526 160 541 253 c 0
EndSplineSet
EndChar

StartChar: c
Encoding: 99 99 70
Width: 684
GlyphClass: 2
Flags: MW
HStem: 0 75 506 75
VStem: 47 82
LayerCount: 2
Back
Fore
SplineSet
593 479 m 2
 606 483 616 474 613 458 c 0
 611 442 598 428 585 424 c 2
 585 424 451 393 365 372 c 0
 284 353 200 271 179 186 c 0
 158 98 211 31 297 41 c 0
 389 52 532 68 532 68 c 2
 546 70 556 57 554 37 c 0
 551 18 536 1 521 0 c 2
 521 0 420 -10 283 -22 c 0
 160 -33 94 59 124 176 c 0
 153 287 261 394 376 424 c 0
 501 456 593 479 593 479 c 2
EndSplineSet
EndChar

StartChar: d
Encoding: 100 100 71
Width: 721
GlyphClass: 2
Flags: MW
HStem: 0 82 503 82
VStem: 55 79 592 75
LayerCount: 2
Back
Fore
SplineSet
656 592 m 2
 613 266 l 2
 594 126 446 -7 301 -21 c 0
 170 -32 99 61 130 179 c 0
 159 291 271 400 392 431 c 0
 463 449 526 438 567 404 c 1
 570 427 589 553 593 574 c 0
 594 584 658 602 656 592 c 2
183 189 m 0
 163 106 218 38 315 50 c 0
 420 62 525 160 540 253 c 0
 554 342 479 397 381 374 c 0
 289 352 202 268 183 189 c 0
EndSplineSet
EndChar

StartChar: e
Encoding: 101 101 72
Width: 677
GlyphClass: 2
Flags: MW
HStem: -25 60 371 68
VStem: 113 55
LayerCount: 2
Back
Fore
SplineSet
560 144 m 0
 493 82 508 84 419 26 c 0
 295 -56 147 -37 118 67 c 0
 92 161 159 293 270 373 c 0
 365 441 473 458 539 416 c 0
 555 406 597 389 574 368 c 0
 512 310 448 255 384 202 c 0
 374 193 355 187 347 198 c 0
 340 209 344 225 354 234 c 0
 379 256 505 358 487 362 c 0
 427 375 359 381 288 331 c 0
 202 271 152 169 173 103 c 0
 195 33 300 3 394 80 c 2
 516 179 l 2
 528 189 544 194 558 185 c 0
 571 175 571 155 560 144 c 0
EndSplineSet
AlternateSubs2: "'salt' Stylistic Alternatives in Latin lookup 0 subtable" uniE00A
EndChar

StartChar: f
Encoding: 102 102 73
Width: 685
GlyphClass: 2
Flags: MW
HStem: 279 74 506 75
VStem: 56 74
LayerCount: 2
Back
Fore
SplineSet
514 238 m 2
 217 185 l 2
 206 183 200 193 204 209 c 0
 207 224 219 237 230 239 c 2
 524 297 l 2
 537 300 547 289 544 272 c 0
 541 255 528 240 514 238 c 2
131 -14 m 2
 128 -26 114 -37 99 -39 c 0
 85 -40 77 -31 80 -19 c 2
 125 176 l 1
 160 288 261 394 376 424 c 0
 502 456 593 479 593 479 c 2
 606 483 616 474 614 458 c 0
 612 443 598 428 585 424 c 2
 585 424 452 393 365 372 c 0
 284 353 200 271 180 186 c 0
 158 98 131 -14 131 -14 c 2
EndSplineSet
EndChar

StartChar: g
Encoding: 103 103 74
Width: 701
GlyphClass: 2
Flags: MW
HStem: 0 75 506 75
VStem: 55 82 572 74
LayerCount: 2
Back
Fore
SplineSet
600 481 m 2
 613 484 623 475 621 460 c 0
 619 444 605 429 592 426 c 2
 592 426 458 394 371 374 c 0
 290 354 206 272 185 187 c 0
 164 99 217 32 303 42 c 0
 364 49 446 58 496 64 c 1
 528 263 l 2
 530 276 546 289 564 292 c 0
 584 296 597 288 595 276 c 2
 562 38 l 2
 559 18 544 2 530 1 c 2
 530 1 428 -9 290 -22 c 0
 166 -33 100 60 130 177 c 0
 158 288 267 396 382 425 c 0
 508 458 600 481 600 481 c 2
EndSplineSet
AlternateSubs2: "'salt' Stylistic Alternatives in Latin lookup 0 subtable" uniE003
EndChar

StartChar: h
Encoding: 104 104 75
Width: 663
GlyphClass: 2
Flags: MW
HStem: 400 82
VStem: 58 74 531 75
LayerCount: 2
Back
Fore
SplineSet
101 -39 m 1
 86 -40 78 -31 81 -19 c 2
 81 -19 81 -18 112 105 c 0
 114 111 116 116 117 122 c 0
 147 239 184 380 184 380 c 2
 186 390 199 401 212 404 c 0
 226 408 234 402 232 392 c 2
 198 255 l 1
 245 304 292 339 354 354 c 0
 480 383 564 304 544 170 c 0
 522 26 521 25 521 25 c 2
 519 11 502 -2 482 -4 c 0
 463 -6 450 5 452 18 c 2
 452 18 460 63 476 160 c 0
 491 251 435 314 342 294 c 0
 257 277 188 200 165 120 c 2
 132 -14 l 2
 129 -26 115 -37 101 -39 c 1
 101 -39 l 1
EndSplineSet
AlternateSubs2: "'salt' Stylistic Alternatives in Latin lookup 0 subtable" uniE004
EndChar

StartChar: i
Encoding: 105 105 76
Width: 197
GlyphClass: 2
Flags: MW
VStem: 61 74
LayerCount: 2
Back
Fore
SplineSet
230 375 m 2
 135 -13 l 2
 132 -25 118 -37 103 -38 c 0
 89 -40 81 -30 84 -18 c 2
 84 -18 181 362 181 363 c 0
 184 372 196 383 210 387 c 0
 223 390 232 385 230 375 c 2
EndSplineSet
EndChar

StartChar: j
Encoding: 106 106 77
Width: 691
GlyphClass: 2
Flags: MW
HStem: 0 75
VStem: 555 74 556 82 558 74
LayerCount: 2
Back
Fore
SplineSet
546 448 m 2x90
 547 459 562 472 580 476 c 0
 599 481 611 475 610 464 c 2xc0
 588 260 l 1
 559 121 429 -9 291 -21 c 0
 166 -33 89 -39 89 -39 c 2
 79 -40 74 -28 78 -12 c 0
 82 5 94 18 104 19 c 2
 104 19 217 32 304 42 c 0
 396 53 498 148 513 247 c 0xa0
 529 341 546 448 546 448 c 2x90
EndSplineSet
EndChar

StartChar: k
Encoding: 107 107 78
Width: 571
GlyphClass: 2
Flags: MW
VStem: 48 74
LayerCount: 2
Back
Fore
SplineSet
443 17 m 0
 448 5 435 -8 412 -10 c 0
 389 -13 367 -3 362 9 c 2
 291 188 l 1
 144 -12 l 2
 134 -25 112 -38 94 -39 c 0
 82 -40 76 -37 75 -31 c 0
 74 -28 73 -24 74 -19 c 2
 177 378 l 2
 180 388 192 399 205 402 c 0
 219 406 227 400 225 391 c 2
 146 72 l 1
 182 121 227 182 270 240 c 0
 270 246 275 252 282 256 c 0
 354 354 418 441 418 441 c 2
 427 453 451 468 471 473 c 0
 492 479 500 472 491 460 c 2
 339 253 l 2
 340 252 441 20 443 17 c 0
EndSplineSet
EndChar

StartChar: l
Encoding: 108 108 79
Width: 681
GlyphClass: 2
Flags: MW
HStem: 0 75
VStem: 27 82 54 74
LayerCount: 2
Back
Fore
SplineSet
223 367 m 2xa0
 223 367 199 271 178 186 c 0
 157 98 210 31 295 41 c 0
 387 52 530 68 530 68 c 2
 544 70 555 57 552 37 c 0
 549 18 534 1 520 0 c 2
 520 0 419 -10 282 -22 c 0
 159 -33 100 60 123 176 c 1xc0
 175 355 l 2
 178 365 190 376 203 380 c 0
 217 383 226 377 223 367 c 2xa0
EndSplineSet
EndChar

StartChar: m
Encoding: 109 109 80
Width: 1066
GlyphClass: 2
Flags: MW
HStem: 508 82
VStem: 59 75 496 75 932 75
LayerCount: 2
Back
Fore
SplineSet
967 69 m 2
 966 53 945 38 918 35 c 0
 892 33 873 45 874 60 c 2
 874 60 884 218 890 321 c 0
 896 419 835 486 716 457 c 0
 606 431 540 343 526 255 c 0
 511 162 489 22 489 22 c 2
 487 8 470 -5 450 -7 c 1
 450 -7 l 1
 450 -7 l 1
 431 -9 418 2 421 15 c 2
 421 15 445 152 460 243 c 0
 476 330 439 391 347 369 c 0
 262 349 203 272 184 192 c 2
 134 -13 l 2
 131 -26 117 -37 102 -38 c 0
 88 -40 79 -30 82 -19 c 2
 82 -19 103 65 134 183 c 0
 162 295 247 397 359 426 c 0
 441 447 481 417 511 361 c 1
 565 437 624 495 723 520 c 0
 884 562 983 481 978 337 c 0
 972 182 967 69 967 69 c 2
EndSplineSet
EndChar

StartChar: n
Encoding: 110 110 81
Width: 699
GlyphClass: 2
Flags: MW
HStem: 508 82
VStem: 59 75 565 75
LayerCount: 2
Back
Fore
SplineSet
554 28 m 2
 552 14 535 1 514 -1 c 0
 495 -3 481 8 483 21 c 2
 483 21 506 161 521 254 c 0
 535 342 466 398 373 375 c 0
 286 355 203 272 184 192 c 2
 134 -13 l 2
 131 -26 117 -37 102 -38 c 0
 88 -40 79 -30 82 -19 c 2
 82 -19 103 65 134 183 c 0
 162 295 270 403 385 432 c 0
 510 465 607 395 589 266 c 0
 569 128 554 28 554 28 c 2
EndSplineSet
EndChar

StartChar: o
Encoding: 111 111 82
Width: 716
GlyphClass: 2
Flags: MW
HStem: 0 82 503 82
VStem: 52 79 585 79
LayerCount: 2
Back
Fore
SplineSet
181 188 m 0
 161 106 216 38 313 50 c 0
 418 62 523 159 538 253 c 0
 551 342 477 396 379 373 c 0
 287 351 200 267 181 188 c 0
128 179 m 0
 157 290 270 399 390 430 c 0
 523 465 628 396 610 266 c 0
 591 126 444 -8 299 -21 c 0
 168 -32 98 60 128 179 c 0
EndSplineSet
EndChar

StartChar: p
Encoding: 112 112 83
Width: 726
GlyphClass: 2
Flags: MW
HStem: 0 82 503 82
VStem: 58 74 590 79
LayerCount: 2
Back
Fore
SplineSet
55 -118 m 2
 132 179 l 2
 160 291 273 400 394 431 c 0
 527 466 633 397 615 267 c 0
 596 126 448 -7 303 -20 c 0
 229 -27 175 0 146 44 c 1
 141 20 113 -90 107 -116 c 0
 104 -129 52 -131 55 -118 c 2
542 253 m 0
 556 343 481 397 382 374 c 0
 291 352 204 268 185 189 c 0
 164 106 220 39 317 50 c 0
 422 62 528 160 542 253 c 0
EndSplineSet
EndChar

StartChar: q
Encoding: 113 113 84
Width: 720
GlyphClass: 2
Flags: MW
HStem: 0 82 503 82
VStem: 54 79 591 74
LayerCount: 2
Back
Fore
SplineSet
564 -89 m 2
 562 -104 488 -109 490 -94 c 0
 494 -65 514 63 518 90 c 1
 457 29 378 -14 300 -21 c 0
 170 -32 99 61 130 179 c 0
 158 290 271 400 392 431 c 0
 525 465 630 396 612 266 c 2
 564 -89 l 2
182 188 m 0
 162 106 217 38 314 50 c 0
 420 62 525 160 539 253 c 0
 553 342 479 397 380 373 c 0
 288 352 202 268 182 188 c 0
EndSplineSet
EndChar

StartChar: r
Encoding: 114 114 85
Width: 686
GlyphClass: 2
Flags: MW
HStem: 506 75
VStem: 56 74
LayerCount: 2
Back
Fore
SplineSet
131 -14 m 2
 128 -26 114 -37 100 -39 c 0
 85 -40 77 -31 80 -19 c 2
 125 177 l 1
 160 288 262 395 376 424 c 0
 502 456 594 479 594 479 c 2
 607 483 617 474 614 458 c 0
 612 443 599 428 585 425 c 2
 585 425 452 393 366 372 c 0
 285 353 201 271 180 186 c 0
 159 98 131 -14 131 -14 c 2
EndSplineSet
EndChar

StartChar: s
Encoding: 115 115 86
Width: 697
GlyphClass: 2
Flags: MW
HStem: 0 75 251 75 504 75
VStem: 52 82 563 82
LayerCount: 2
Back
Fore
SplineSet
454 264 m 0
 517 276 599 305 580 171 c 0
 560 29 432 -9 294 -21 c 0
 169 -32 92 -39 92 -39 c 2
 82 -40 77 -28 81 -11 c 0
 85 5 97 19 107 20 c 2
 107 20 221 33 307 43 c 0
 400 53 491 85 503 159 c 0
 503 161 532 219 443 204 c 2
 443 204 354 189 232 168 c 0
 180 159 117 137 146 249 c 0
 173 353 264 394 379 423 c 0
 505 456 597 479 597 479 c 2
 610 482 620 473 618 457 c 0
 616 442 602 427 589 424 c 2
 589 424 455 392 369 371 c 0
 287 352 215 320 201 261 c 0
 201 259 175 210 245 223 c 2
 245 223 325 239 454 264 c 0
EndSplineSet
AlternateSubs2: "'salt' Stylistic Alternatives in Latin lookup 0 subtable" uniE016
EndChar

StartChar: t
Encoding: 116 116 87
Width: 584
GlyphClass: 2
Flags: MW
HStem: 516 74
VStem: 255 74
LayerCount: 2
Back
Fore
SplineSet
190 381 m 2
 333 419 l 2
 336 420 339 422 343 422 c 0
 346 423 349 424 352 424 c 2
 516 466 l 2
 528 469 537 461 535 446 c 0
 532 430 519 416 507 413 c 2
 507 413 435 395 359 377 c 1
 280 1 l 2
 278 -12 262 -24 246 -25 c 0
 230 -27 220 -17 222 -5 c 2
 222 -5 283 268 305 364 c 1
 236 348 177 333 177 333 c 2
 168 331 162 340 166 353 c 0
 169 367 180 379 190 381 c 2
EndSplineSet
EndChar

StartChar: u
Encoding: 117 117 88
Width: 696
GlyphClass: 2
Flags: MW
HStem: 0 82
VStem: 58 75 564 75
LayerCount: 2
Back
Fore
SplineSet
616 473 m 2
 616 473 605 391 587 261 c 0
 567 123 427 -9 290 -21 c 0
 167 -33 101 61 132 179 c 0
 161 291 179 362 179 362 c 2
 182 372 194 383 208 387 c 0
 221 390 230 384 228 375 c 2
 228 375 201 268 182 188 c 0
 162 106 213 38 305 49 c 0
 404 60 504 156 518 249 c 0
 533 338 552 456 552 456 c 2
 553 467 568 480 586 485 c 0
 605 490 617 484 616 473 c 2
EndSplineSet
EndChar

StartChar: v
Encoding: 118 118 89
Width: 592
GlyphClass: 2
Flags: MW
HStem: -1 1 0 74
VStem: 394 74 395 82
LayerCount: 2
Back
Fore
SplineSet
230 33 m 1x40
 228 33 l 1
 230 33 l 1x40
172 354 m 2
 171 363 180 373 194 377 c 0
 207 380 219 375 220 366 c 2
 220 366 235 133 241 35 c 1
 325 52 414 140 430 231 c 0x90
 447 323 466 428 466 428 c 2
 468 438 482 451 499 455 c 0
 516 460 528 454 526 443 c 2xa0
 501 244 l 1
 469 109 344 -17 214 -29 c 0
 97 -39 218 -28 218 -28 c 2x90
 202 -29 189 -20 187 -8 c 2
 172 354 l 2
EndSplineSet
AlternateSubs2: "'salt' Stylistic Alternatives in Latin lookup 0 subtable" uniE015
EndChar

StartChar: w
Encoding: 119 119 90
Width: 1064
GlyphClass: 2
Flags: MW
HStem: 0 82
VStem: 58 75 494 75 931 75
LayerCount: 2
Back
Fore
SplineSet
180 362 m 2
 182 372 195 383 208 387 c 0
 222 390 230 384 228 375 c 2
 228 375 202 268 182 188 c 0
 162 106 188 35 277 45 c 0
 374 57 442 147 458 238 c 0
 473 325 494 442 494 442 c 2
 496 452 510 465 527 470 c 1
 528 470 l 1
 528 470 l 1
 546 474 558 468 556 458 c 2
 556 458 537 339 523 250 c 0
 508 157 553 78 673 92 c 0
 803 107 882 212 889 316 c 0
 895 414 903 545 903 545 c 2
 904 557 922 572 944 578 c 0
 968 584 985 578 985 566 c 2
 985 566 982 476 977 332 c 0
 970 176 845 29 663 12 c 0
 552 2 503 52 470 125 c 1
 413 42 352 -16 263 -24 c 0
 142 -35 102 61 132 179 c 0
 161 291 180 362 180 362 c 2
EndSplineSet
EndChar

StartChar: x
Encoding: 120 120 91
Width: 630
GlyphClass: 2
Flags: MW
HStem: -20 21G<71 71> -5 21G
VStem: 62 508 67 508
LayerCount: 2
Back
Fore
SplineSet
571 461 m 2x50
 350 221 l 1
 422 128 504 23 504 23 c 2
 511 11 497 -3 473 -5 c 0
 449 -7 425 2 419 15 c 2x60
 305 172 l 1
 135 -13 l 2
 125 -26 103 -38 85 -40 c 0
 67 -42 62 -32 71 -20 c 2xa0
 71 -20 175 93 280 208 c 1
 170 360 l 2
 167 368 176 378 193 382 c 0
 210 387 226 383 230 375 c 2
 230 375 271 322 323 255 c 1
 413 354 494 441 494 441 c 2
 503 454 528 469 550 475 c 0
 572 481 581 474 571 461 c 2x50
EndSplineSet
EndChar

StartChar: y
Encoding: 121 121 92
Width: 661
GlyphClass: 2
Flags: MW
HStem: -65 75 108 82
VStem: 56 75 530 75
LayerCount: 2
Back
Fore
SplineSet
558 477 m 1
 576 482 588 476 586 465 c 2
 586 465 587 465 569 343 c 0
 568 336 567 330 565 324 c 0
 545 190 541 166 541 166 c 1
 525 6 393 -71 256 -80 c 0
 133 -89 161 -86 161 -86 c 2
 150 -87 144 -74 148 -57 c 0
 152 -39 165 -25 176 -24 c 2
 176 -24 184 -23 270 -15 c 0
 362 -7 454 36 472 140 c 0
 473 145 473 149 474 153 c 2
 474 156 l 1
 477 172 l 1
 422 115 366 77 297 68 c 0
 176 53 121 141 150 254 c 2
 178 362 l 2
 181 372 193 383 207 386 c 0
 220 390 229 384 227 374 c 2
 227 374 218 341 200 265 c 0
 180 186 221 122 311 135 c 0
 404 149 483 235 502 321 c 1
 523 449 l 2
 525 460 540 473 558 477 c 1
 558 477 l 1
478 175 m 0
 485 218 478 177 477 172 c 1
 477 173 477 174 478 175 c 0
EndSplineSet
AlternateSubs2: "'salt' Stylistic Alternatives in Latin lookup 0 subtable" uniE00D
EndChar

StartChar: z
Encoding: 122 122 93
Width: 699
GlyphClass: 2
Flags: MW
HStem: 0 75 252 75 504 75
VStem: 53 82 564 82
LayerCount: 2
Back
Fore
SplineSet
245 224 m 0
 367 247 455 263 455 263 c 2
 542 280 531 328 531 330 c 0
 542 395 463 394 375 373 c 0
 294 353 186 328 186 328 c 2
 176 325 170 334 174 348 c 0
 177 361 188 374 198 376 c 2
 198 376 270 395 386 425 c 0
 513 457 622 465 605 345 c 0
 587 214 508 215 444 204 c 0
 313 182 233 169 233 169 c 2
 162 157 165 110 165 109 c 0
 148 43 215 32 302 42 c 0
 394 53 537 69 537 69 c 2
 552 71 562 57 560 38 c 0
 557 18 542 2 527 1 c 2
 527 1 426 -9 288 -22 c 0
 164 -33 78 -19 109 100 c 0
 138 215 194 214 245 224 c 0
EndSplineSet
AlternateSubs2: "'salt' Stylistic Alternatives in Latin lookup 0 subtable" uniE017
EndChar

StartChar: braceleft
Encoding: 123 123 94
Width: 348
GlyphClass: 2
Flags: MW
HStem: 0 1 506 75 580 1
VStem: 22 133 39 133 72 83
LayerCount: 2
Back
Fore
SplineSet
302 404 m 1xa8
 313 407 320 399 316 385 c 0
 313 370 301 357 291 354 c 0
 214 336 212 207 209 192 c 0xd0
 204 173 137 23 218 32 c 0
 229 34 236 21 232 4 c 0
 228 -13 216 -28 204 -29 c 1
 204 -29 332 -18 204 -29 c 1
 102 -39 116 39 141 137 c 1xc4
 133 149 124 162 124 162 c 2
 120 163 118 170 120 177 c 0
 121 185 128 193 133 196 c 2
 133 196 149 212 164 228 c 1
 186 316 208 381 302 405 c 0xd0
 421 435 302 404 302 404 c 1xa8
EndSplineSet
EndChar

StartChar: bar
Encoding: 124 124 95
Width: 199
GlyphClass: 2
Flags: MW
VStem: 62 74
LayerCount: 2
Back
Fore
SplineSet
244 432 m 2
 126 -54 l 2
 123 -66 109 -78 94 -79 c 0
 79 -80 71 -70 74 -58 c 2
 196 419 l 2
 199 428 211 439 224 443 c 0
 238 447 246 441 244 432 c 2
EndSplineSet
EndChar

StartChar: braceright
Encoding: 125 125 96
Width: 349
GlyphClass: 2
Flags: MW
HStem: 0 1 1 74 580 1
VStem: 116 83 116 133 177 133
LayerCount: 2
Back
Fore
SplineSet
216 382 m 1x64
 216 382 115 357 216 383 c 0
 311 407 303 343 283 251 c 1
 293 240 303 228 303 227 c 0
 308 226 312 219 310 212 c 0x68
 308 204 302 195 296 192 c 2
 296 192 278 174 262 157 c 1
 239 54 215 -28 112 -38 c 0
 4 -47 112 -37 112 -37 c 1xb0
 102 -38 96 -26 100 -9 c 0
 104 7 116 21 127 22 c 0
 207 31 208 174 213 192 c 0
 216 208 280 352 204 334 c 0
 194 331 189 340 192 354 c 0
 195 367 207 380 216 382 c 1x64
EndSplineSet
EndChar

StartChar: asciitilde
Encoding: 126 126 97
Width: 469
GlyphClass: 2
Flags: MW
HStem: 174 48 235 44 292 7
VStem: 131 40<185.5 189 185.5 198.5> 239 43<212 238> 370 31
LayerCount: 2
Back
Fore
SplineSet
277 259 m 1
 286 252 281 252 282 238 c 0
 282 225 291 215 320 227 c 0
 350 240 356 258 355 270 c 0
 355 277 368 305 370 292 c 1
 370 292 374 295 377 296 c 0
 387 301 400 300 401 290 c 0
 406 232 352 197 322 184 c 0
 298 174 256 164 243 197 c 1
 235 204 239 205 239 219 c 0
 239 232 230 241 204 229 c 0
 177 217 170 200 171 189 c 0
 171 182 157 155 156 168 c 1
 156 168 152 165 150 164 c 0
 141 160 131 162 131 172 c 0
 131 225 178 257 203 269 c 0
 225 278 264 290 277 259 c 1
EndSplineSet
EndChar

StartChar: exclamdown
Encoding: 161 161 99
Width: 199
GlyphClass: 2
Flags: MW
HStem: 488 93
VStem: 55 89 60 74
LayerCount: 2
Back
Fore
SplineSet
231 357 m 0xc0
 227 341 211 324 194 320 c 0
 178 316 168 327 173 343 c 0
 177 359 193 376 209 381 c 0
 226 385 235 374 231 357 c 0xc0
84 -19 m 2xa0
 158 271 l 2
 161 281 174 292 188 295 c 0
 201 299 210 292 208 282 c 2
 208 282 136 -13 135 -13 c 0
 133 -26 119 -37 104 -38 c 0
 89 -40 81 -30 84 -19 c 2xa0
EndSplineSet
EndChar

StartChar: cent
Encoding: 162 162 100
Width: 532
GlyphClass: 2
Flags: MW
HStem: 77 56 457 56
VStem: 45 62 244 74
LayerCount: 2
Back
Fore
SplineSet
288 320 m 1
 233 301 179 245 165 187 c 0
 150 127 181 82 234 81 c 1
 250 154 273 254 288 320 c 1
358 407 m 2
 350 373 l 1
 419 389 465 400 465 400 c 2
 474 402 480 395 478 384 c 0
 476 372 467 362 457 359 c 2
 457 359 398 346 342 333 c 1
 290 87 l 1
 348 95 411 104 411 104 c 2
 421 105 427 96 425 82 c 0
 423 69 412 57 403 56 c 2
 403 56 354 50 281 41 c 1
 272 0 l 2
 269 -12 254 -25 238 -26 c 0
 222 -28 212 -18 215 -5 c 2
 215 -5 218 10 224 36 c 1
 144 34 102 97 124 179 c 0
 144 258 218 334 297 360 c 1
 301 381 304 394 304 394 c 2
 307 404 320 415 335 419 c 0
 350 423 360 417 358 407 c 2
EndSplineSet
EndChar

StartChar: sterling
Encoding: 163 163 101
Width: 682
GlyphClass: 2
Flags: MW
HStem: 0 74 253 74 505 75
LayerCount: 2
Back
Fore
SplineSet
530 68 m 2
 545 69 555 56 552 37 c 0
 549 17 535 1 520 -1 c 2
 86 -40 l 2
 76 -41 71 -29 75 -12 c 0
 92 53 115 112 149 155 c 1
 141 153 136 153 136 153 c 2
 126 151 120 161 124 176 c 0
 153 287 261 394 376 423 c 0
 501 456 525 461 525 461 c 2
 537 464 546 456 544 440 c 0
 541 425 528 411 516 408 c 2
 516 408 451 392 365 372 c 0
 292 354 230 289 192 214 c 1
 256 226 l 1
 271 229 l 2
 394 253 396 253 396 253 c 2
 408 255 416 244 413 228 c 0
 410 211 397 197 384 195 c 2
 384 195 317 183 254 173 c 0
 187 159 185 102 145 24 c 1
 530 68 l 2
EndSplineSet
EndChar

StartChar: currency
Encoding: 164 164 102
Width: 501
GlyphClass: 2
Flags: MW
HStem: 73 21 128 46 411 46 491 21
VStem: 79 44 378 44
LayerCount: 2
Back
Fore
SplineSet
176 187 m 0
 164 141 194 106 246 113 c 0
 299 121 353 172 363 221 c 0
 373 269 337 301 285 290 c 0
 235 279 187 232 176 187 c 0
337 62 m 2
 313 107 l 1
 290 91 263 80 237 76 c 0
 212 73 190 78 174 88 c 1
 134 37 l 2
 126 29 110 19 97 17 c 0
 83 16 79 23 86 32 c 2
 86 32 130 86 151 113 c 1
 141 131 139 155 146 182 c 0
 152 209 167 235 187 257 c 1
 178 276 160 314 159 314 c 0
 157 320 164 328 177 331 c 0
 190 334 201 330 205 324 c 2
 223 290 l 1
 244 305 268 317 292 323 c 0
 317 328 339 327 357 319 c 1
 398 370 l 2
 406 379 423 390 438 394 c 0
 454 397 460 392 453 383 c 2
 453 383 407 326 385 298 c 1
 399 281 404 257 399 228 c 0
 393 198 377 168 354 143 c 1
 368 119 395 69 395 69 c 2
 400 61 390 51 374 49 c 0
 357 47 342 54 337 62 c 2
EndSplineSet
EndChar

StartChar: yen
Encoding: 165 165 103
Width: 685
GlyphClass: 2
Flags: MW
HStem: -27 21G 26 37 86 37 108 82
VStem: 23 75 46 75 497 74 520 74
LayerCount: 2
Back
Fore
SplineSet
549 475 m 1xd5
 567 480 579 474 578 463 c 2
 560 341 l 2
 559 335 558 328 556 322 c 0
 546 255 534 175 524 110 c 1
 553 114 l 2
 560 115 565 109 564 99 c 0
 563 90 555 82 548 81 c 2
 548 81 536 79 519 77 c 1
 518 70 517 63 516 57 c 1
 545 60 l 2
 552 61 558 54 556 44 c 0
 555 35 547 26 540 26 c 2
 540 26 528 24 510 23 c 1
 507 -1 l 2
 505 -15 487 -29 468 -31 c 0
 448 -32 436 -21 438 -8 c 2
 442 16 l 1
 415 13 394 11 394 11 c 2
 387 10 383 17 384 26 c 0
 386 35 393 43 399 44 c 2
 447 49 l 1
 451 69 l 1
 424 66 403 64 403 64 c 2
 397 63 392 69 394 78 c 0
 396 87 402 94 409 95 c 2
 456 102 l 1xea
 468 170 l 1
 413 114 358 76 289 67 c 0
 169 52 114 140 144 253 c 0
 172 360 172 361 172 361 c 2
 175 370 187 381 200 385 c 0
 214 388 222 382 220 373 c 2
 220 373 212 339 193 263 c 0
 174 184 214 120 303 134 c 0
 396 148 474 234 493 319 c 1
 515 447 l 2
 517 458 532 471 549 475 c 1
 549 475 l 1xd5
EndSplineSet
EndChar

StartChar: brokenbar
Encoding: 166 166 104
Width: 198
GlyphClass: 2
Flags: MW
VStem: 62 74
LayerCount: 2
Back
Fore
SplineSet
186 194 m 2
 135 -13 l 2
 132 -25 118 -37 104 -38 c 0
 89 -40 81 -30 84 -18 c 2
 136 185 l 2
 139 196 152 207 166 210 c 0
 180 212 188 205 186 194 c 2
247 446 m 2
 203 265 l 2
 201 255 187 243 173 241 c 0
 159 238 151 245 154 255 c 2
 199 432 l 2
 202 442 214 453 227 456 c 0
 241 460 249 455 247 446 c 2
EndSplineSet
EndChar

StartChar: section
Encoding: 167 167 105
Width: 690
GlyphClass: 2
Flags: MW
HStem: 0 75 146 57 251 75 382 57 504 75
VStem: 48 82 559 82
LayerCount: 2
Back
Fore
SplineSet
233 221 m 1
 255 270 307 314 360 325 c 0
 416 338 458 313 463 266 c 1
 524 278 594 295 576 170 c 0
 557 29 429 -9 291 -21 c 0
 167 -33 90 -39 90 -39 c 2
 80 -40 74 -28 78 -11 c 0
 83 5 95 18 105 19 c 2
 105 19 218 32 304 42 c 0
 397 53 488 84 500 159 c 0
 500 160 526 214 451 205 c 1
 427 153 370 109 314 101 c 0
 260 94 224 122 222 166 c 1
 172 157 117 142 144 249 c 0
 171 353 262 393 377 423 c 0
 502 455 594 478 594 478 c 2
 607 481 617 472 615 457 c 0
 612 441 599 426 586 423 c 2
 586 423 452 391 366 371 c 0
 285 351 213 319 199 260 c 0
 198 259 175 214 233 221 c 1
414 256 m 1
 406 278 382 290 352 284 c 0
 321 278 292 255 276 230 c 1
 305 235 352 244 414 256 c 1
266 174 m 1
 274 154 295 142 323 147 c 0
 353 151 382 172 400 197 c 1
 369 191 322 183 266 174 c 1
EndSplineSet
EndChar

StartChar: dieresis
Encoding: 168 168 106
Width: 366
GlyphClass: 2
Flags: MW
HStem: 611 89
VStem: 63 93 211 93
LayerCount: 2
Back
Fore
SplineSet
220 402 m 0
 204 398 193 406 197 422 c 0
 201 438 218 454 234 458 c 0
 250 463 261 454 258 438 c 0
 254 422 237 407 220 402 c 0
320 429 m 0
 303 424 291 432 295 449 c 0
 298 465 316 482 333 487 c 0
 351 492 363 483 360 467 c 0
 356 450 338 433 320 429 c 0
EndSplineSet
EndChar

StartChar: copyright
Encoding: 169 169 107
Width: 708
GlyphClass: 2
Flags: MW
HStem: 0 82 145 37 398 37 503 82
VStem: 48 79 181 41 581 79
LayerCount: 2
Back
Fore
SplineSet
178 188 m 0
 158 105 213 38 310 49 c 0
 414 62 519 159 534 252 c 0
 548 341 474 396 376 372 c 0
 284 351 198 267 178 188 c 0
126 178 m 0
 155 290 267 399 387 430 c 0
 520 464 624 395 607 265 c 0
 587 125 440 -8 295 -21 c 0
 165 -33 95 60 126 178 c 0
451 343 m 2
 458 344 462 339 460 331 c 0
 459 324 453 316 446 315 c 2
 446 315 383 302 340 293 c 0
 299 284 255 242 245 198 c 0
 235 154 263 122 306 128 c 0
 350 135 415 144 415 144 c 2
 422 145 426 139 425 131 c 0
 423 122 416 114 410 114 c 2
 410 114 364 107 299 98 c 0
 238 90 202 133 216 193 c 0
 229 251 286 307 346 320 c 0
 408 334 451 343 451 343 c 2
EndSplineSet
EndChar

StartChar: ordfeminine
Encoding: 170 170 108
Width: 316
GlyphClass: 2
Flags: MW
HStem: 495 29 671 29
VStem: 51 28 239 26
LayerCount: 2
Back
Fore
SplineSet
309 354 m 2
 308 350 290 346 291 349 c 0
 292 357 294 364 296 371 c 1
 278 353 256 339 234 334 c 0
 195 325 171 347 181 384 c 0
 190 419 228 456 266 467 c 0
 306 479 332 459 324 421 c 2
 309 354 l 2
198 388 m 0
 192 363 209 346 239 353 c 0
 269 361 299 390 305 416 c 0
 311 442 291 457 262 449 c 0
 233 441 204 413 198 388 c 0
EndSplineSet
EndChar

StartChar: guillemotleft
Encoding: 171 171 109
Width: 586
GlyphClass: 2
Flags: MW
HStem: 100 328
VStem: 131 392 133 392 268 25 330 17 502 21
LayerCount: 2
Back
Fore
SplineSet
288 244 m 0xa0
 291 259 304 276 316 282 c 0
 316 283 504 425 504 425 c 2
 517 431 527 427 525 416 c 0
 523 404 510 390 497 384 c 2x84
 338 253 l 1
 461 172 l 1
 474 171 483 159 481 146 c 0
 479 132 466 124 453 125 c 1
 301 212 l 2
 291 214 285 228 288 244 c 0xa0
134 213 m 0
 138 228 150 244 161 250 c 2
 332 382 l 2
 343 388 351 384 349 373 c 0
 347 362 335 349 323 344 c 2
 178 222 l 1
 280 144 l 1
 291 142 298 131 295 119 c 0
 293 106 281 98 270 100 c 1x98
 270 100 144 183 144 184 c 0
 135 186 130 199 134 213 c 0
EndSplineSet
EndChar

StartChar: logicalnot
Encoding: 172 172 110
Width: 593
GlyphClass: 2
Flags: MW
HStem: 272 74
VStem: 461 74
LayerCount: 2
Back
Fore
SplineSet
427 217 m 1
 147 168 l 2
 137 166 131 176 135 191 c 0
 139 206 150 219 160 221 c 2
 477 283 l 2
 490 285 499 275 496 258 c 2
 478 150 l 2
 476 137 460 124 441 122 c 0
 423 119 411 128 414 141 c 2
 414 141 422 186 427 217 c 1
EndSplineSet
EndChar

StartChar: uni00AD
Encoding: 173 173 111
Width: 515
GlyphClass: 2
Flags: MW
HStem: 272 74
LayerCount: 2
Back
Fore
SplineSet
402 212 m 2
 146 168 l 2
 136 166 131 176 134 191 c 0
 138 206 150 219 160 220 c 2
 412 270 l 2
 425 272 433 262 430 246 c 0
 427 229 414 215 402 212 c 2
EndSplineSet
EndChar

StartChar: registered
Encoding: 174 174 112
Width: 708
GlyphClass: 2
Flags: MW
HStem: 0 82 398 37 503 82
VStem: 48 79 201 41 581 79
LayerCount: 2
Back
Fore
SplineSet
178 188 m 0
 158 105 213 38 310 49 c 0
 414 62 519 159 534 252 c 0
 548 341 474 396 376 372 c 0
 284 351 198 267 178 188 c 0
126 178 m 0
 155 290 267 399 387 430 c 0
 520 464 624 395 607 265 c 0
 587 125 440 -8 295 -21 c 0
 165 -33 95 60 126 178 c 0
237 100 m 2
 235 94 228 88 221 87 c 0
 213 86 208 91 210 96 c 2
 229 195 l 1
 247 254 301 310 361 323 c 0
 423 337 467 346 467 346 c 2
 474 348 478 343 477 335 c 0
 475 327 469 320 462 318 c 2
 462 318 398 305 355 296 c 0
 313 287 269 245 259 201 c 0
 249 156 237 100 237 100 c 2
EndSplineSet
EndChar

StartChar: macron
Encoding: 175 175 113
Width: 863
GlyphClass: 2
Flags: MW
HStem: 626 74
LayerCount: 2
Back
Fore
SplineSet
225 456 m 2
 747 605 l 2
 761 609 773 601 771 585 c 0
 769 570 755 555 741 551 c 2
 214 409 l 2
 204 407 198 415 202 428 c 0
 205 441 216 453 225 456 c 2
EndSplineSet
EndChar

StartChar: degree
Encoding: 176 176 114
Width: 344
GlyphClass: 2
Flags: MW
HStem: 465 33 667 33
VStem: 49 32 263 32
LayerCount: 2
Back
Fore
SplineSet
197 379 m 0
 190 350 210 330 244 338 c 0
 279 346 314 380 321 411 c 0
 327 441 305 459 270 449 c 0
 237 440 204 408 197 379 c 0
177 374 m 0
 187 415 231 458 275 470 c 0
 322 483 353 460 344 417 c 0
 334 372 286 326 239 315 c 0
 193 305 166 332 177 374 c 0
EndSplineSet
EndChar

StartChar: plusminus
Encoding: 177 177 115
Width: 571
GlyphClass: 2
Flags: MW
HStem: 0 74 330 74
VStem: 249 74
LayerCount: 2
Back
Fore
SplineSet
416 -10 m 2
 87 -40 l 2
 76 -41 71 -29 75 -12 c 0
 79 4 91 17 101 19 c 2
 428 56 l 2
 441 57 450 44 447 26 c 0
 444 7 430 -8 416 -10 c 2
465 268 m 2
 326 242 l 1
 311 171 298 107 297 106 c 0
 295 94 280 82 264 80 c 0
 248 78 239 87 241 99 c 2
 271 231 l 1
 150 208 l 2
 140 206 135 216 138 230 c 0
 142 245 153 257 163 259 c 2
 163 259 218 271 283 285 c 1
 310 405 l 2
 312 415 325 427 340 431 c 0
 355 435 365 429 363 419 c 2
 363 419 351 362 337 296 c 1
 408 311 475 326 475 326 c 2
 488 328 497 318 494 302 c 0
 491 286 478 271 465 268 c 2
EndSplineSet
EndChar

StartChar: uni00B2
Encoding: 178 178 116
Width: 396
GlyphClass: 2
Flags: MW
HStem: 411 37 516 37 663 37
VStem: 50 41 305 41
LayerCount: 2
Back
Fore
SplineSet
345 303 m 2
 345 303 304 294 247 282 c 0
 191 270 146 254 160 307 c 0
 174 359 201 362 225 368 c 0
 280 382 318 391 318 391 c 2
 338 396 350 414 354 435 c 0
 363 475 327 462 288 452 c 0
 251 441 200 427 200 427 c 2
 195 426 192 430 194 436 c 0
 196 442 201 449 206 450 c 2
 206 450 240 460 294 475 c 0
 350 491 395 497 384 443 c 0
 374 393 347 374 312 366 c 0
 256 352 219 343 219 343 c 2
 182 335 187 314 187 313 c 0
 182 292 214 299 253 308 c 0
 292 317 350 330 350 330 c 2
 356 331 360 326 358 319 c 0
 357 311 351 304 345 303 c 2
EndSplineSet
EndChar

StartChar: uni00B3
Encoding: 179 179 117
Width: 431
GlyphClass: 2
Flags: MW
HStem: 410 37 536 37 663 37
VStem: 343 41
LayerCount: 2
Back
Fore
SplineSet
183 370 m 2
 315 403 l 2
 321 405 324 400 322 393 c 0
 321 386 315 380 310 378 c 2
 177 346 l 2
 172 344 169 349 171 355 c 0
 172 362 178 368 183 370 c 2
230 457 m 2
 230 457 266 467 320 483 c 0
 377 499 417 469 406 414 c 0
 395 358 335 300 276 287 c 0
 219 275 183 267 183 267 c 2
 178 266 175 271 177 278 c 0
 178 285 184 292 189 293 c 2
 189 293 243 305 282 313 c 0
 322 322 366 365 375 407 c 0
 383 447 354 470 315 459 c 0
 277 448 224 434 224 434 c 2
 219 432 217 436 218 443 c 0
 220 449 225 456 230 457 c 2
EndSplineSet
EndChar

StartChar: acute
Encoding: 180 180 118
Width: 229
GlyphClass: 2
Flags: MW
HStem: 558 21G 608 93
LayerCount: 2
Back
Fore
SplineSet
272 442 m 0
 260 423 238 405 221 400 c 0
 216 399 212 399 210 401 c 1
 193 375 206 374 218 369 c 1
 198 367 173 367 176 374 c 0
 179 385 201 410 213 426 c 0
 225 443 248 462 264 467 c 0
 281 472 283 460 272 442 c 0
EndSplineSet
EndChar

StartChar: mu
Encoding: 181 181 119
Width: 699
GlyphClass: 2
Flags: MW
HStem: 0 82
VStem: 59 75 565 75
LayerCount: 2
Back
Fore
SplineSet
169 320 m 2
 175 343 180 363 180 363 c 2
 183 372 195 383 209 387 c 0
 222 390 231 385 229 375 c 2
 229 375 202 268 183 189 c 0
 163 106 214 38 306 49 c 0
 405 60 505 157 520 249 c 0
 534 338 553 457 553 457 c 2
 555 468 570 481 588 485 c 0
 606 490 619 484 617 473 c 2
 617 473 606 391 588 262 c 0
 568 123 429 -9 292 -21 c 0
 224 -27 173 -2 147 42 c 1
 120 -66 l 2
 117 -79 103 -90 88 -91 c 0
 74 -92 66 -82 69 -70 c 2
 169 320 l 2
EndSplineSet
EndChar

StartChar: paragraph
Encoding: 182 182 120
Width: 489
GlyphClass: 2
Flags: MW
HStem: 516 74
VStem: 52 266 242 74 361 74 363 74
LayerCount: 2
Back
Fore
SplineSet
448 430 m 2xc8
 369 10 l 2
 367 -3 351 -16 333 -18 c 0
 316 -19 305 -9 308 4 c 2
 308 4 365 290 384 383 c 1
 351 375 l 1
 271 0 l 2
 269 -12 254 -25 237 -26 c 0
 221 -28 211 -18 214 -5 c 2xb0
 214 -5 238 99 260 199 c 1
 149 180 149 259 151 268 c 0
 153 272 169 376 275 404 c 2
 423 442 l 2
 439 446 450 440 448 430 c 2xc8
EndSplineSet
EndChar

StartChar: periodcentered
Encoding: 183 183 121
Width: 200
GlyphClass: 2
Flags: MW
HStem: 219 93
VStem: 56 89
LayerCount: 2
Back
Fore
SplineSet
126 159 m 0
 130 177 146 195 163 198 c 0
 180 201 190 188 185 170 c 0
 181 151 163 133 146 131 c 0
 129 128 121 141 126 159 c 0
EndSplineSet
EndChar

StartChar: cedilla
Encoding: 184 184 122
Width: 204
GlyphClass: 2
Flags: MW
HStem: -50 93
VStem: 52 89 114 32
LayerCount: 2
Back
Fore
SplineSet
71 -44 m 0xc0
 76 -25 93 -7 110 -5 c 0
 115 -4 120 -5 124 -8 c 1
 131 21 115 24 99 32 c 1
 122 31 152 27 152 18 c 0xa0
 154 6 140 -22 132 -39 c 0
 127 -59 109 -78 91 -79 c 0
 74 -81 66 -64 71 -44 c 0xc0
EndSplineSet
EndChar

StartChar: uni00B9
Encoding: 185 185 123
Width: 195
GlyphClass: 2
Flags: MW
HStem: 405 295
VStem: 110 37
LayerCount: 2
Back
Fore
SplineSet
225 419 m 1
 198 393 l 2
 194 388 188 387 184 391 c 0
 181 394 182 401 186 405 c 2
 230 449 l 2
 234 453 239 460 247 462 c 0
 254 464 258 461 257 457 c 2
 214 280 l 2
 213 275 206 269 199 268 c 0
 192 266 188 270 189 275 c 2
 225 419 l 1
EndSplineSet
EndChar

StartChar: ordmasculine
Encoding: 186 186 124
Width: 311
GlyphClass: 2
Flags: MW
HStem: 495 29 671 29
VStem: 48 28 235 28
LayerCount: 2
Back
Fore
SplineSet
197 388 m 0
 190 363 208 346 237 353 c 0
 267 360 297 390 303 416 c 0
 309 441 289 457 260 449 c 0
 231 441 203 413 197 388 c 0
179 383 m 0
 188 419 226 456 264 467 c 0
 304 478 331 458 322 421 c 0
 314 383 273 343 232 334 c 0
 193 324 170 347 179 383 c 0
EndSplineSet
EndChar

StartChar: guillemotright
Encoding: 187 187 125
Width: 588
GlyphClass: 2
Flags: MW
HStem: 77 307
VStem: 310 14
LayerCount: 2
Back
Fore
SplineSet
324 251 m 0
 321 235 307 217 295 211 c 2
 118 79 l 2
 107 74 100 79 103 91 c 0
 106 102 117 115 128 120 c 2
 274 241 l 1
 176 310 l 1
 167 310 162 319 164 329 c 0
 167 339 177 347 186 346 c 2
 310 281 l 2
 321 279 327 266 324 251 c 0
505 286 m 0
 502 269 488 250 474 244 c 0
 474 243 278 101 278 101 c 2
 266 96 257 101 260 114 c 0
 263 126 275 140 287 145 c 2
 448 275 l 1
 331 345 l 1
 320 346 313 354 316 365 c 0
 318 376 329 384 339 384 c 1
 487 318 l 2
 499 316 507 302 505 286 c 0
EndSplineSet
EndChar

StartChar: onequarter
Encoding: 188 188 126
Width: 588
GlyphClass: 2
Flags: MW
HStem: 120 37 258 37
VStem: 114 37 457 37
LayerCount: 2
Back
Fore
SplineSet
485 458 m 2
 121 -15 l 2
 111 -27 92 -39 77 -41 c 0
 63 -42 61 -32 70 -20 c 2
 426 443 l 2
 436 455 457 469 473 474 c 0
 490 478 494 471 485 458 c 2
456 227 m 1
 439 127 l 1
 476 132 l 2
 482 133 487 127 485 118 c 0
 484 109 477 101 470 100 c 2
 470 100 456 98 433 95 c 1
 417 2 l 2
 416 -4 407 -11 398 -12 c 0
 389 -13 383 -7 384 -1 c 2
 384 -1 392 40 401 91 c 1
 386 89 375 88 375 88 c 2
 337 83 319 80 260 73 c 0
 245 75 255 87 268 103 c 0
 321 169 366 222 402 230 c 0
 463 244 456 227 456 227 c 1
422 205 m 1
 416 204 407 203 396 201 c 0
 379 197 357 177 308 115 c 0
 301 106 321 111 381 119 c 2
 381 119 383 119 407 123 c 1
 413 156 419 187 422 205 c 1
214 367 m 1
 187 340 l 2
 183 336 177 335 173 339 c 0
 170 342 171 349 175 353 c 2
 175 353 219 398 220 398 c 0
 224 402 228 409 237 411 c 0
 243 413 248 410 247 405 c 2
 203 223 l 2
 201 218 195 212 188 211 c 0
 180 209 176 213 177 218 c 2
 177 218 201 314 214 367 c 1
EndSplineSet
EndChar

StartChar: onehalf
Encoding: 189 189 127
Width: 669
GlyphClass: 2
Flags: MW
HStem: 0 37 105 37 252 37
VStem: 119 37 330 41 585 41
LayerCount: 2
Back
Fore
SplineSet
489 459 m 2
 125 -14 l 2
 115 -27 95 -39 81 -40 c 0
 67 -42 64 -32 74 -19 c 2
 430 444 l 2
 440 456 461 470 477 475 c 0
 494 479 498 472 489 459 c 2
523 0 m 2
 523 0 472 -5 399 -12 c 0
 330 -18 274 -31 288 36 c 0
 302 101 336 101 366 105 c 0
 434 114 482 121 482 121 c 2
 507 124 521 145 525 172 c 0
 533 222 488 212 440 203 c 0
 394 196 330 185 330 185 c 2
 325 184 321 189 323 197 c 0
 324 205 331 212 336 214 c 2
 336 214 379 221 446 233 c 0
 515 246 573 246 563 178 c 0
 554 114 521 94 477 88 c 0
 406 79 360 74 360 74 c 2
 314 68 322 40 321 39 c 0
 316 13 357 17 405 22 c 0
 455 27 529 34 529 34 c 2
 536 35 541 28 540 19 c 0
 538 9 531 1 523 0 c 2
218 368 m 1
 191 341 l 2
 186 337 180 336 176 340 c 0
 173 343 174 350 178 354 c 2
 223 399 l 2
 227 403 232 410 240 412 c 0
 247 414 251 411 250 406 c 2
 206 224 l 2
 205 218 198 213 191 211 c 0
 184 210 179 214 181 219 c 2
 181 219 204 315 218 368 c 1
EndSplineSet
EndChar

StartChar: threequarters
Encoding: 190 190 128
Width: 673
GlyphClass: 2
Flags: MW
HStem: 120 37 258 37 328 37 454 37 581 37
VStem: 294 41 544 37
LayerCount: 2
Back
Fore
SplineSet
556 477 m 2
 183 -8 l 2
 173 -21 153 -34 138 -35 c 0
 123 -37 120 -26 130 -14 c 2
 495 461 l 2
 505 473 526 488 544 492 c 0
 561 497 566 489 556 477 c 2
532 241 m 1
 516 138 l 1
 555 143 l 2
 562 144 568 138 566 129 c 0
 565 119 558 111 550 110 c 2
 550 110 535 108 511 105 c 1
 496 10 l 2
 495 3 487 -4 477 -5 c 0
 467 -5 461 0 462 7 c 2
 462 7 469 49 477 101 c 1
 461 99 450 97 450 97 c 2
 410 92 390 89 328 82 c 0
 312 83 323 96 336 113 c 0
 390 180 436 235 474 243 c 0
 539 257 532 241 532 241 c 1
496 218 m 1
 490 217 481 215 469 213 c 0
 451 210 429 189 378 125 c 0
 371 116 392 121 455 129 c 2
 455 129 458 130 482 133 c 1
 488 167 493 200 496 218 c 1
162 314 m 2
 268 339 l 2
 274 341 277 336 275 329 c 0
 274 321 268 315 263 314 c 2
 156 290 l 2
 151 289 148 293 150 300 c 0
 152 307 157 313 162 314 c 2
210 403 m 2
 210 403 221 406 275 421 c 0
 331 436 369 404 357 348 c 0
 345 290 286 232 228 221 c 0
 172 210 161 209 161 209 c 2
 156 208 153 213 155 220 c 0
 157 227 163 234 168 235 c 2
 168 235 196 240 234 248 c 0
 274 256 318 298 327 341 c 0
 336 382 308 406 269 396 c 0
 231 387 204 380 204 380 c 2
 199 378 197 383 198 389 c 0
 200 396 205 402 210 403 c 2
EndSplineSet
EndChar

StartChar: questiondown
Encoding: 191 191 129
Width: 593
GlyphClass: 2
Flags: MW
HStem: 0 64 218 64 501 80
VStem: 283 76 311 64
LayerCount: 2
Back
Fore
SplineSet
309 203 m 1xe8
 335 326 l 2
 337 335 349 345 362 348 c 0
 376 351 385 346 383 337 c 2
 383 337 354 187 353 187 c 0
 351 173 340 161 329 159 c 2
 161 132 l 1
 164 70 195 22 259 29 c 0
 336 37 453 50 453 50 c 2
 465 52 473 40 471 24 c 0
 468 8 456 -6 444 -7 c 2
 444 -7 361 -15 248 -25 c 0
 143 -35 88 45 114 147 c 0
 117 160 127 171 136 173 c 2
 136 173 251 193 309 203 c 1xe8
401 404 m 0xf0
 398 389 383 373 366 369 c 0
 350 365 340 375 343 390 c 0
 347 404 362 420 378 424 c 0
 394 428 404 419 401 404 c 0xf0
EndSplineSet
EndChar

StartChar: Agrave
Encoding: 192 192 130
Width: 720
GlyphClass: 2
Flags: MW
HStem: 0 82 503 82 666 93
VStem: 54 79 591 74
LayerCount: 2
Back
Fore
SplineSet
578 14 m 2
 576 0 503 -7 505 7 c 0
 510 35 514 63 518 90 c 1
 457 29 378 -14 300 -21 c 0
 170 -32 99 61 130 179 c 0
 158 290 271 400 392 431 c 0
 525 465 630 396 612 266 c 2
 578 14 l 2
182 188 m 0
 162 106 217 38 314 50 c 0
 420 62 525 160 539 253 c 0
 553 342 479 397 380 373 c 0
 288 352 202 268 182 188 c 0
368 504 m 0
 363 518 372 533 390 538 c 0
 408 544 427 536 433 523 c 0
 441 512 456 495 455 485 c 0
 455 477 422 462 396 452 c 1
 415 465 432 474 424 495 c 1
 420 491 415 489 409 487 c 0
 391 482 373 490 368 504 c 0
EndSplineSet
EndChar

StartChar: Aacute
Encoding: 193 193 131
Width: 720
GlyphClass: 2
Flags: MW
HStem: 0 82 503 82 666 93
VStem: 54 79 591 74
LayerCount: 2
Back
Fore
SplineSet
578 14 m 2
 576 0 503 -7 505 7 c 0
 510 35 514 63 518 90 c 1
 457 29 378 -14 300 -21 c 0
 170 -32 99 61 130 179 c 0
 158 290 271 400 392 431 c 0
 525 465 630 396 612 266 c 2
 578 14 l 2
182 188 m 0
 162 106 217 38 314 50 c 0
 420 62 525 160 539 253 c 0
 553 342 479 397 380 373 c 0
 288 352 202 268 182 188 c 0
450 528 m 0
 438 508 413 488 395 483 c 0
 389 482 385 482 382 483 c 0
 364 456 379 456 394 451 c 1
 370 448 342 447 344 454 c 0
 348 465 371 492 384 509 c 0
 396 527 420 547 439 553 c 0
 458 558 462 547 450 528 c 0
EndSplineSet
EndChar

StartChar: Acircumflex
Encoding: 194 194 132
Width: 720
GlyphClass: 2
Flags: MW
HStem: 0 82 503 82
VStem: 54 79 250 51 413 51 591 74
LayerCount: 2
Back
Fore
SplineSet
578 14 m 2
 576 0 503 -7 505 7 c 0
 510 35 514 63 518 90 c 1
 457 29 378 -14 300 -21 c 0
 170 -32 99 61 130 179 c 0
 158 290 271 400 392 431 c 0
 525 465 630 396 612 266 c 2
 578 14 l 2
182 188 m 0
 162 106 217 38 314 50 c 0
 420 62 525 160 539 253 c 0
 553 342 479 397 380 373 c 0
 288 352 202 268 182 188 c 0
414 548 m 0
 424 551 434 549 437 543 c 0
 441 537 478 487 478 487 c 1
 478 486 l 1
 479 485 l 2
 479 480 477 474 472 468 c 0
 468 464 462 461 457 460 c 0
 447 457 439 461 438 468 c 2
 405 505 l 1
 354 445 l 2
 348 437 339 429 330 426 c 0
 325 425 321 425 319 428 c 0
 316 431 316 436 319 442 c 2
 319 443 l 1
 320 445 l 1
 320 445 379 519 386 528 c 0
 392 538 403 545 414 548 c 0
EndSplineSet
EndChar

StartChar: Atilde
Encoding: 195 195 133
Width: 720
GlyphClass: 2
Flags: MW
HStem: 0 82 503 82
VStem: 54 79 591 74
LayerCount: 2
Back
Fore
SplineSet
578 14 m 2
 576 0 503 -7 505 7 c 0
 510 35 514 63 518 90 c 1
 457 29 378 -14 300 -21 c 0
 170 -32 99 61 130 179 c 0
 158 290 271 400 392 431 c 0
 525 465 630 396 612 266 c 2
 578 14 l 2
182 188 m 0
 162 106 217 38 314 50 c 0
 420 62 525 160 539 253 c 0
 553 342 479 397 380 373 c 0
 288 352 202 268 182 188 c 0
427 533 m 1
 435 529 431 525 432 516 c 0
 433 508 440 503 463 514 c 0
 487 526 490 537 489 545 c 0
 488 547 499 576 506 568 c 1
 506 568 508 569 509 570 c 0
 520 575 533 577 534 567 c 0
 542 524 493 490 467 477 c 0
 447 468 409 454 394 479 c 0
 387 483 390 486 389 495 c 0
 389 503 383 509 361 498 c 0
 339 487 336 475 336 469 c 0
 337 466 326 437 319 446 c 1
 317 444 l 2
 307 439 296 439 296 448 c 0
 293 489 335 520 358 532 c 0
 377 541 413 555 427 533 c 1
EndSplineSet
EndChar

StartChar: Adieresis
Encoding: 196 196 134
Width: 720
GlyphClass: 2
Flags: MW
HStem: 0 82 503 82 631 89
VStem: 54 79 234 93 382 93 591 74
LayerCount: 2
Back
Fore
SplineSet
578 14 m 2
 576 0 503 -7 505 7 c 0
 510 35 514 63 518 90 c 1
 457 29 378 -14 300 -21 c 0
 170 -32 99 61 130 179 c 0
 158 290 271 400 392 431 c 0
 525 465 630 396 612 266 c 2
 578 14 l 2
182 188 m 0
 162 106 217 38 314 50 c 0
 420 62 525 160 539 253 c 0
 553 342 479 397 380 373 c 0
 288 352 202 268 182 188 c 0
340 446 m 0
 322 442 310 450 314 466 c 0
 318 482 335 499 353 504 c 0
 370 509 383 501 380 484 c 0
 376 468 358 451 340 446 c 0
450 476 m 0
 431 471 417 479 420 496 c 0
 424 512 442 530 461 536 c 0
 480 541 495 533 492 516 c 0
 488 499 469 481 450 476 c 0
EndSplineSet
EndChar

StartChar: Aring
Encoding: 197 197 135
Width: 720
GlyphClass: 2
Flags: MW
HStem: 0 82 503 82 625 44 735 44
VStem: 54 79 281 45 397 45 591 74
LayerCount: 2
Back
Fore
SplineSet
578 14 m 2
 576 0 503 -7 505 7 c 0
 510 35 514 63 518 90 c 1
 457 29 378 -14 300 -21 c 0
 170 -32 99 61 130 179 c 0
 158 290 271 400 392 431 c 0
 525 465 630 396 612 266 c 2
 578 14 l 2
182 188 m 0
 162 106 217 38 314 50 c 0
 420 62 525 160 539 253 c 0
 553 342 479 397 380 373 c 0
 288 352 202 268 182 188 c 0
382 502 m 0
 380 490 390 483 404 487 c 0
 419 491 433 505 435 517 c 0
 438 528 428 535 413 531 c 0
 399 526 385 513 382 502 c 0
351 492 m 0
 357 520 387 549 419 559 c 0
 452 569 475 554 469 526 c 0
 464 498 432 467 398 458 c 0
 366 449 345 465 351 492 c 0
EndSplineSet
EndChar

StartChar: AE
Encoding: 198 198 136
Width: 1208
GlyphClass: 2
Flags: MW
HStem: 0 82 503 82
VStem: 44 79 581 75
LayerCount: 2
Back
Fore
SplineSet
175 187 m 0
 155 105 210 38 306 49 c 0
 403 60 501 145 526 232 c 0
 526 246 528 259 532 273 c 1
 531 349 462 393 372 372 c 0
 281 350 195 266 175 187 c 0
567 13 m 2
 565 -1 493 -8 495 6 c 0
 500 34 504 62 508 89 c 1
 448 28 369 -14 292 -21 c 0
 162 -33 92 60 123 178 c 0
 152 289 264 398 384 429 c 0
 470 451 543 430 580 377 c 1
 609 419 650 460 700 494 c 0
 822 577 974 604 1080 562 c 0
 1105 552 1172 537 1142 511 c 0
 1063 440 982 373 900 309 c 0
 886 298 860 290 846 303 c 0
 833 315 836 333 849 344 c 0
 880 371 1043 494 1015 497 c 0
 924 508 826 510 734 449 c 0
 663 402 617 337 604 277 c 0
 603 273 603 269 602 264 c 2
 600 248 l 2
 599 226 604 204 615 186 c 0
 660 106 818 76 940 169 c 2
 1099 290 l 2
 1114 302 1138 309 1160 299 c 0
 1182 289 1187 265 1173 252 c 0
 1086 175 1108 179 989 107 c 0
 847 21 665 21 579 98 c 1
 567 13 l 2
EndSplineSet
EndChar

StartChar: Ccedilla
Encoding: 199 199 137
Width: 684
GlyphClass: 2
Flags: MW
HStem: -143 93 0 75 506 75
VStem: 23 82 47 82 303 89 368 32 392 32
LayerCount: 2
Back
Fore
SplineSet
593 479 m 2xe9
 606 483 616 474 613 458 c 0
 611 442 598 428 585 424 c 2
 585 424 451 393 365 372 c 0
 284 353 200 271 179 186 c 0
 158 98 211 31 297 41 c 0
 389 52 532 68 532 68 c 2
 546 70 556 57 554 37 c 0
 551 18 536 1 521 0 c 2
 521 0 420 -10 283 -22 c 1
 311 -24 348 -29 349 -39 c 0xf2
 352 -53 338 -84 330 -103 c 0
 325 -127 304 -147 283 -148 c 0
 262 -149 251 -130 256 -108 c 0xf4
 260 -85 279 -65 300 -64 c 0
 306 -63 312 -65 317 -68 c 1
 323 -36 304 -32 283 -22 c 1
 160 -33 94 59 124 176 c 0
 153 287 261 394 376 424 c 0
 501 456 593 479 593 479 c 2xe9
EndSplineSet
EndChar

StartChar: Egrave
Encoding: 200 200 138
Width: 675
GlyphClass: 2
Flags: MW
HStem: 670 93
LayerCount: 2
Back
Fore
SplineSet
559 144 m 0
 492 82 507 84 418 26 c 0
 294 -56 147 -37 117 67 c 0
 91 161 158 293 269 372 c 0
 364 440 472 457 539 415 c 0
 554 406 596 389 573 368 c 0
 511 310 447 254 384 202 c 0
 373 193 354 187 346 198 c 0
 339 209 343 224 353 234 c 0
 378 256 504 357 486 361 c 0
 426 374 359 381 287 331 c 0
 202 270 151 169 172 103 c 0
 194 33 299 3 393 80 c 2
 515 179 l 2
 527 189 543 193 557 184 c 0
 570 175 570 154 559 144 c 0
328 495 m 0
 323 508 332 523 350 529 c 0
 367 534 386 527 391 513 c 1
 399 503 413 486 412 475 c 0
 412 468 379 453 355 443 c 1
 372 457 389 465 382 485 c 1
 378 482 373 480 367 478 c 0
 350 473 332 481 328 495 c 0
EndSplineSet
EndChar

StartChar: Eacute
Encoding: 201 201 139
Width: 675
GlyphClass: 2
Flags: MW
HStem: 670 93
LayerCount: 2
Back
Fore
SplineSet
559 144 m 0
 492 82 507 84 418 26 c 0
 294 -56 147 -37 117 67 c 0
 91 161 158 293 269 372 c 0
 364 440 472 457 539 415 c 0
 554 406 596 389 573 368 c 0
 511 310 447 254 384 202 c 0
 373 193 354 187 346 198 c 0
 339 209 343 224 353 234 c 0
 378 256 504 357 486 361 c 0
 426 374 359 381 287 331 c 0
 202 270 151 169 172 103 c 0
 194 33 299 3 393 80 c 2
 515 179 l 2
 527 189 543 193 557 184 c 0
 570 175 570 154 559 144 c 0
421 522 m 0
 409 503 385 483 367 478 c 0
 362 476 357 476 354 478 c 1
 337 451 352 451 366 446 c 1
 343 443 315 442 318 450 c 0
 321 460 344 487 357 503 c 0
 369 522 393 541 411 547 c 0
 429 552 433 541 421 522 c 0
EndSplineSet
EndChar

StartChar: Ecircumflex
Encoding: 202 202 140
Width: 675
GlyphClass: 2
Flags: MW
VStem: 239 51 402 51
LayerCount: 2
Back
Fore
SplineSet
559 144 m 0
 492 82 507 84 418 26 c 0
 294 -56 147 -37 117 67 c 0
 91 161 158 293 269 372 c 0
 364 440 472 457 539 415 c 0
 554 406 596 389 573 368 c 0
 511 310 447 254 384 202 c 0
 373 193 354 187 346 198 c 0
 339 209 343 224 353 234 c 0
 378 256 504 357 486 361 c 0
 426 374 359 381 287 331 c 0
 202 270 151 169 172 103 c 0
 194 33 299 3 393 80 c 2
 515 179 l 2
 527 189 543 193 557 184 c 0
 570 175 570 154 559 144 c 0
406 550 m 0
 417 553 426 551 429 544 c 0
 433 538 470 489 470 489 c 1
 470 488 l 1
 471 487 l 2
 471 482 469 476 464 470 c 0
 460 466 455 463 450 462 c 0
 439 459 432 463 430 470 c 2
 397 507 l 1
 346 447 l 2
 341 439 332 431 323 428 c 0
 319 427 315 427 312 429 c 0
 309 432 309 438 312 444 c 2
 312 445 l 1
 313 446 l 1
 313 446 372 521 379 529 c 0
 385 539 396 546 406 550 c 0
EndSplineSet
EndChar

StartChar: Edieresis
Encoding: 203 203 141
Width: 675
GlyphClass: 2
Flags: MW
HStem: 633 89
VStem: 219 93 366 93
LayerCount: 2
Back
Fore
SplineSet
559 144 m 0
 492 82 507 84 418 26 c 0
 294 -56 147 -37 117 67 c 0
 91 161 158 293 269 372 c 0
 364 440 472 457 539 415 c 0
 554 406 596 389 573 368 c 0
 511 310 447 254 384 202 c 0
 373 193 354 187 346 198 c 0
 339 209 343 224 353 234 c 0
 378 256 504 357 486 361 c 0
 426 374 359 381 287 331 c 0
 202 270 151 169 172 103 c 0
 194 33 299 3 393 80 c 2
 515 179 l 2
 527 189 543 193 557 184 c 0
 570 175 570 154 559 144 c 0
329 445 m 0
 312 440 300 448 304 464 c 0
 307 480 325 497 342 502 c 0
 360 507 372 499 369 482 c 0
 365 466 347 449 329 445 c 0
438 474 m 0
 419 469 406 477 409 494 c 0
 412 510 431 528 450 533 c 0
 469 539 483 530 480 514 c 0
 476 497 457 479 438 474 c 0
EndSplineSet
EndChar

StartChar: Igrave
Encoding: 204 204 142
Width: 225
GlyphClass: 2
Flags: MW
HStem: 669 93
VStem: 104 74
LayerCount: 2
Back
Fore
SplineSet
258 382 m 2
 165 -10 l 2
 162 -23 148 -34 133 -36 c 0
 118 -37 110 -27 113 -16 c 2
 209 369 l 2
 211 379 224 390 238 394 c 0
 252 398 260 392 258 382 c 2
199 457 m 0
 196 470 204 484 220 489 c 0
 236 494 252 487 256 473 c 0
 262 463 274 447 273 437 c 0
 272 430 242 416 220 407 c 1
 237 419 252 427 246 447 c 1
 243 444 238 441 233 440 c 0
 217 436 202 444 199 457 c 0
EndSplineSet
EndChar

StartChar: Iacute
Encoding: 205 205 143
Width: 225
GlyphClass: 2
Flags: MW
HStem: 671 93
VStem: 48 74
LayerCount: 2
Back
Fore
SplineSet
221 373 m 2
 125 -14 l 2
 123 -26 109 -38 94 -39 c 0
 80 -40 72 -31 75 -19 c 2
 173 360 l 2
 175 370 188 381 201 385 c 0
 215 388 223 382 221 373 c 2
280 481 m 0
 268 464 246 445 230 440 c 0
 225 439 221 439 219 440 c 0
 202 415 215 415 227 410 c 1
 207 407 182 407 185 414 c 0
 188 424 210 449 222 465 c 0
 233 482 256 501 272 506 c 0
 289 511 291 499 280 481 c 0
EndSplineSet
EndChar

StartChar: Icircumflex
Encoding: 206 206 144
Width: 279
GlyphClass: 2
Flags: MW
VStem: 32 51 101 74 196 51
LayerCount: 2
Back
Fore
SplineSet
256 381 m 2
 163 -10 l 2
 160 -23 146 -34 131 -36 c 0
 116 -37 108 -28 111 -16 c 2
 207 369 l 2
 209 379 222 390 236 393 c 0
 250 397 258 391 256 381 c 2
262 499 m 0
 272 502 280 500 282 494 c 0
 286 488 315 439 315 439 c 1
 316 439 l 1
 316 437 l 2
 316 433 314 427 309 421 c 0
 305 418 300 415 296 414 c 0
 286 411 280 416 279 422 c 2
 252 458 l 1
 204 402 l 2
 199 394 191 386 183 384 c 0
 179 383 175 383 173 385 c 0
 170 388 171 394 174 399 c 2
 174 401 l 1
 175 402 l 1
 175 402 231 472 237 480 c 0
 243 490 253 497 262 499 c 0
EndSplineSet
EndChar

StartChar: Idieresis
Encoding: 207 207 145
Width: 302
GlyphClass: 2
Flags: MW
HStem: 615 89
VStem: 28 93 113 74 176 93
LayerCount: 2
Back
Fore
SplineSet
265 384 m 2xa0
 172 -10 l 2
 169 -22 155 -34 140 -35 c 0
 125 -36 116 -27 119 -15 c 2
 215 371 l 2
 217 381 230 392 244 396 c 0
 258 399 267 393 265 384 c 2xa0
200 399 m 0
 184 395 174 403 178 419 c 0
 182 434 198 450 214 455 c 0
 230 459 241 451 237 435 c 0xc0
 233 419 216 403 200 399 c 0
298 425 m 0
 281 421 270 429 273 445 c 0
 277 461 295 478 312 483 c 0
 329 488 341 479 337 463 c 0x90
 334 446 316 430 298 425 c 0
EndSplineSet
EndChar

StartChar: Eth
Encoding: 208 208 146
Width: 836
GlyphClass: 2
Flags: MW
HStem: 0 82 258 74 503 82
VStem: 174 80 709 75
LayerCount: 2
Back
Fore
SplineSet
380 198 m 2
 262 178 l 1
 260 105 319 50 413 61 c 0
 526 75 637 176 650 273 c 0
 661 365 578 421 473 395 c 0
 386 375 306 305 276 233 c 1
 333 245 391 256 391 256 c 2
 403 258 411 247 408 231 c 0
 405 215 392 200 380 198 c 2
763 623 m 2
 728 287 l 2
 713 142 557 3 400 -12 c 0
 269 -23 191 59 205 168 c 1
 141 157 l 2
 131 155 125 166 129 180 c 0
 133 195 144 208 154 210 c 2
 154 210 182 215 218 222 c 1
 256 326 364 424 483 454 c 0
 559 474 627 464 673 429 c 1
 676 453 692 582 695 603 c 0
 696 614 764 633 763 623 c 2
EndSplineSet
EndChar

StartChar: Ntilde
Encoding: 209 209 147
Width: 698
GlyphClass: 2
Flags: MW
HStem: 508 82
VStem: 59 75 565 75
LayerCount: 2
Back
Fore
SplineSet
554 28 m 2
 552 14 534 1 514 -1 c 0
 494 -3 481 8 483 21 c 2
 483 21 505 161 520 254 c 0
 534 342 465 397 373 375 c 0
 286 355 203 271 184 192 c 0
 163 110 133 -13 133 -13 c 2
 130 -26 116 -37 102 -38 c 0
 87 -40 79 -30 82 -19 c 2
 82 -19 103 65 133 183 c 0
 162 295 270 403 384 432 c 0
 509 465 606 395 588 266 c 0
 568 127 554 28 554 28 c 2
420 532 m 1
 428 528 425 524 426 516 c 0
 427 507 433 502 456 513 c 0
 479 525 483 537 482 544 c 0
 481 546 492 575 499 568 c 1
 499 568 501 569 502 569 c 0
 512 574 525 576 527 566 c 0
 534 523 486 489 460 477 c 0
 440 467 402 453 388 478 c 1
 380 482 384 486 383 494 c 0
 382 503 376 508 355 497 c 0
 333 486 329 475 330 468 c 0
 330 465 319 437 313 445 c 1
 313 445 312 444 310 443 c 0
 301 439 290 438 289 448 c 0
 287 489 329 519 352 531 c 0
 370 541 406 555 420 532 c 1
EndSplineSet
EndChar

StartChar: Ograve
Encoding: 210 210 148
Width: 716
GlyphClass: 2
Flags: MW
HStem: 0 82 503 82 666 93
VStem: 52 79 585 79
LayerCount: 2
Back
Fore
SplineSet
181 188 m 0
 161 106 216 38 313 50 c 0
 418 62 523 159 538 253 c 0
 551 342 477 396 379 373 c 0
 287 351 200 267 181 188 c 0
128 179 m 0
 157 290 270 399 390 430 c 0
 523 465 628 396 610 266 c 0
 591 126 444 -8 299 -21 c 0
 168 -32 98 60 128 179 c 0
369 504 m 0
 365 518 374 533 392 539 c 0
 410 544 429 537 435 523 c 0
 443 513 458 496 457 485 c 0
 457 478 424 462 398 452 c 1
 417 466 434 475 426 495 c 1
 422 492 417 489 411 488 c 0
 392 482 374 491 369 504 c 0
EndSplineSet
EndChar

StartChar: Oacute
Encoding: 211 211 149
Width: 716
GlyphClass: 2
Flags: MW
HStem: 0 82 503 82 666 93
VStem: 52 79 585 79
LayerCount: 2
Back
Fore
SplineSet
181 188 m 0
 161 106 216 38 313 50 c 0
 418 62 523 159 538 253 c 0
 551 342 477 396 379 373 c 0
 287 351 200 267 181 188 c 0
128 179 m 0
 157 290 270 399 390 430 c 0
 523 465 628 396 610 266 c 0
 591 126 444 -8 299 -21 c 0
 168 -32 98 60 128 179 c 0
452 528 m 0
 440 509 415 489 396 484 c 0
 391 482 386 482 384 483 c 0
 366 456 381 456 396 452 c 1
 372 448 343 447 346 455 c 0
 349 466 372 493 386 509 c 1
 397 528 422 548 441 553 c 0
 460 559 464 547 452 528 c 0
EndSplineSet
EndChar

StartChar: Ocircumflex
Encoding: 212 212 150
Width: 716
GlyphClass: 2
Flags: MW
HStem: 0 82 503 82
VStem: 52 79 253 51 416 51 585 79
LayerCount: 2
Back
Fore
SplineSet
181 188 m 0
 161 106 216 38 313 50 c 0
 418 62 523 159 538 253 c 0
 551 342 477 396 379 373 c 0
 287 351 200 267 181 188 c 0
128 179 m 0
 157 290 270 399 390 430 c 0
 523 465 628 396 610 266 c 0
 591 126 444 -8 299 -21 c 0
 168 -32 98 60 128 179 c 0
416 549 m 0
 427 552 436 550 439 543 c 0
 443 538 480 488 480 488 c 1
 481 487 l 1
 481 486 l 2
 482 481 480 475 474 469 c 0
 470 465 465 462 460 460 c 0
 449 458 442 462 440 469 c 2
 407 506 l 1
 356 446 l 2
 351 437 341 429 332 427 c 0
 328 426 324 426 321 428 c 0
 318 431 318 437 321 442 c 2
 321 444 l 1
 322 445 l 1
 322 445 381 520 388 528 c 0
 394 538 405 546 416 549 c 0
EndSplineSet
EndChar

StartChar: Otilde
Encoding: 213 213 151
Width: 716
GlyphClass: 2
Flags: MW
HStem: 0 82 503 82
VStem: 52 79 585 79
LayerCount: 2
Back
Fore
SplineSet
181 188 m 0
 161 106 216 38 313 50 c 0
 418 62 523 159 538 253 c 0
 551 342 477 396 379 373 c 0
 287 351 200 267 181 188 c 0
128 179 m 0
 157 290 270 399 390 430 c 0
 523 465 628 396 610 266 c 0
 591 126 444 -8 299 -21 c 0
 168 -32 98 60 128 179 c 0
429 533 m 1
 437 529 433 526 434 517 c 0
 435 509 442 503 465 514 c 0
 489 526 492 538 491 545 c 0
 490 548 501 577 508 569 c 1
 508 569 510 570 511 571 c 0
 522 576 535 577 536 568 c 0
 544 524 495 490 469 478 c 0
 449 468 411 455 396 479 c 0
 389 483 392 487 391 496 c 0
 390 504 384 509 363 498 c 0
 341 487 338 476 338 469 c 0
 338 466 327 438 321 446 c 1
 321 446 320 445 318 444 c 0
 309 440 298 439 297 449 c 0
 295 490 337 521 360 532 c 0
 379 542 415 556 429 533 c 1
EndSplineSet
EndChar

StartChar: Odieresis
Encoding: 214 214 152
Width: 716
GlyphClass: 2
Flags: MW
HStem: 0 82 503 82 631 89
VStem: 52 79 234 93 381 93 585 79
LayerCount: 2
Back
Fore
SplineSet
181 188 m 0
 161 106 216 38 313 50 c 0
 418 62 523 159 538 253 c 0
 551 342 477 396 379 373 c 0
 287 351 200 267 181 188 c 0
128 179 m 0
 157 290 270 399 390 430 c 0
 523 465 628 396 610 266 c 0
 591 126 444 -8 299 -21 c 0
 168 -32 98 60 128 179 c 0
340 446 m 0
 322 441 310 450 314 466 c 0
 317 482 335 499 352 504 c 0
 370 509 383 501 379 484 c 0
 376 468 358 451 340 446 c 0
449 476 m 0
 430 471 417 479 420 496 c 0
 423 512 442 530 461 535 c 0
 480 541 494 532 491 516 c 0
 488 498 469 481 449 476 c 0
EndSplineSet
EndChar

StartChar: multiply
Encoding: 215 215 153
Width: 454
GlyphClass: 2
Flags: MW
HStem: 330 37
VStem: 403 8
LayerCount: 2
Back
Fore
SplineSet
315 91 m 2
 243 173 l 1
 185 117 133 67 133 67 c 2
 124 58 110 58 103 68 c 0
 96 77 99 92 108 101 c 2
 214 206 l 1
 153 275 l 2
 148 281 153 295 165 307 c 0
 177 319 191 324 196 318 c 2
 196 318 225 287 260 251 c 1
 370 359 l 2
 379 368 395 370 404 362 c 0
 414 354 412 339 403 330 c 2
 403 330 349 278 290 220 c 1
 329 179 366 140 366 140 c 2
 373 132 368 115 353 101 c 0
 339 88 322 84 315 91 c 2
EndSplineSet
EndChar

StartChar: Oslash
Encoding: 216 216 154
Width: 716
GlyphClass: 2
Flags: MW
HStem: 0 82 503 82
VStem: 52 79 585 79
LayerCount: 2
Back
Fore
SplineSet
224 66 m 1
 247 52 277 45 313 50 c 0
 418 62 523 159 538 253 c 0
 543 290 533 322 512 345 c 1
 224 66 l 1
192 99 m 1
 264 170 393 295 471 371 c 1
 445 380 413 381 379 373 c 0
 287 351 200 267 181 188 c 0
 173 154 177 123 192 99 c 1
128 179 m 0
 157 290 270 399 390 430 c 0
 443 444 490 442 528 426 c 1
 534 432 l 2
 544 442 562 445 573 437 c 0
 587 427 581 411 569 400 c 1
 601 370 618 323 610 266 c 0
 591 126 444 -8 299 -21 c 0
 244 -26 200 -12 169 14 c 1
 163 8 l 2
 153 -2 139 -1 132 9 c 0
 124 20 127 36 136 45 c 2
 136 45 138 46 140 49 c 0
 120 83 115 128 128 179 c 0
EndSplineSet
EndChar

StartChar: Ugrave
Encoding: 217 217 155
Width: 696
GlyphClass: 2
Flags: MW
HStem: 0 82 666 93
VStem: 58 75 564 75
LayerCount: 2
Back
Fore
SplineSet
616 473 m 2
 616 473 605 391 587 261 c 0
 567 123 427 -9 290 -21 c 0
 167 -33 101 61 132 179 c 0
 161 291 179 362 179 362 c 2
 182 372 194 383 208 387 c 0
 221 390 230 384 228 375 c 2
 228 375 201 268 182 188 c 0
 162 106 213 38 305 49 c 0
 404 60 504 156 518 249 c 0
 533 338 552 456 552 456 c 2
 553 467 568 480 586 485 c 0
 605 490 617 484 616 473 c 2
374 506 m 0
 369 519 378 535 396 540 c 0
 414 545 434 538 439 525 c 1
 448 514 463 497 462 486 c 0
 462 479 428 463 403 454 c 1
 421 467 439 476 430 497 c 1
 426 493 421 490 415 489 c 0
 397 484 379 492 374 506 c 0
EndSplineSet
EndChar

StartChar: Uacute
Encoding: 218 218 156
Width: 696
GlyphClass: 2
Flags: MW
HStem: 0 82 666 93
VStem: 58 75 564 75
LayerCount: 2
Back
Fore
SplineSet
616 473 m 2
 616 473 605 391 587 261 c 0
 567 123 427 -9 290 -21 c 0
 167 -33 101 61 132 179 c 0
 161 291 179 362 179 362 c 2
 182 372 194 383 208 387 c 0
 221 390 230 384 228 375 c 2
 228 375 201 268 182 188 c 0
 162 106 213 38 305 49 c 0
 404 60 504 156 518 249 c 0
 533 338 552 456 552 456 c 2
 553 467 568 480 586 485 c 0
 605 490 617 484 616 473 c 2
456 529 m 0
 444 510 420 490 401 485 c 0
 395 483 391 483 388 485 c 1
 370 457 386 458 400 453 c 1
 376 449 348 448 350 456 c 0
 354 467 377 494 390 510 c 0
 402 529 427 549 445 555 c 0
 464 560 468 549 456 529 c 0
EndSplineSet
EndChar

StartChar: Ucircumflex
Encoding: 219 219 157
Width: 696
GlyphClass: 2
Flags: MW
HStem: 0 82
VStem: 58 75 241 51 404 51 564 75
LayerCount: 2
Back
Fore
SplineSet
616 473 m 2
 616 473 605 391 587 261 c 0
 567 123 427 -9 290 -21 c 0
 167 -33 101 61 132 179 c 0
 161 291 179 362 179 362 c 2
 182 372 194 383 208 387 c 0
 221 390 230 384 228 375 c 2
 228 375 201 268 182 188 c 0
 162 106 213 38 305 49 c 0
 404 60 504 156 518 249 c 0
 533 338 552 456 552 456 c 2
 553 467 568 480 586 485 c 0
 605 490 617 484 616 473 c 2
407 546 m 0
 418 549 427 547 430 541 c 0
 434 535 471 485 471 485 c 1
 471 484 l 1
 471 483 l 2
 472 478 470 472 465 466 c 0
 461 462 455 459 450 458 c 0
 440 455 433 460 431 466 c 2
 398 503 l 1
 347 444 l 2
 342 435 333 427 323 425 c 0
 319 423 315 424 313 426 c 0
 309 429 310 435 312 440 c 2
 313 442 l 1
 314 443 l 1
 314 443 373 518 379 526 c 0
 386 536 397 543 407 546 c 0
EndSplineSet
EndChar

StartChar: Udieresis
Encoding: 220 220 158
Width: 696
GlyphClass: 2
Flags: MW
HStem: 0 82 631 89
VStem: 58 75 235 93 382 93 564 75
LayerCount: 2
Back
Fore
SplineSet
616 473 m 2
 616 473 605 391 587 261 c 0
 567 123 427 -9 290 -21 c 0
 167 -33 101 61 132 179 c 0
 161 291 179 362 179 362 c 2
 182 372 194 383 208 387 c 0
 221 390 230 384 228 375 c 2
 228 375 201 268 182 188 c 0
 162 106 213 38 305 49 c 0
 404 60 504 156 518 249 c 0
 533 338 552 456 552 456 c 2
 553 467 568 480 586 485 c 0
 605 490 617 484 616 473 c 2
340 446 m 0
 323 442 311 450 314 466 c 0
 318 482 335 499 353 504 c 0
 371 509 383 501 380 484 c 0
 376 468 358 451 340 446 c 0
450 476 m 0
 431 471 417 479 421 496 c 0
 424 512 442 530 461 536 c 0
 481 541 495 533 492 516 c 0
 489 499 470 481 450 476 c 0
EndSplineSet
EndChar

StartChar: Yacute
Encoding: 221 221 159
Width: 661
GlyphClass: 2
Flags: MW
HStem: -65 75 108 82 666 93
VStem: 56 75 530 75
LayerCount: 2
Back
Fore
SplineSet
558 477 m 1
 576 482 588 476 586 465 c 2
 586 465 587 465 569 343 c 0
 568 336 567 330 565 324 c 0
 545 190 541 166 541 166 c 1
 525 6 393 -71 256 -80 c 0
 133 -89 161 -86 161 -86 c 2
 150 -87 144 -74 148 -57 c 0
 152 -39 165 -25 176 -24 c 2
 176 -24 184 -23 270 -15 c 0
 362 -7 454 36 472 140 c 0
 473 145 473 149 474 153 c 2
 474 156 l 1
 477 172 l 1
 422 115 366 77 297 68 c 0
 176 53 121 141 150 254 c 2
 178 362 l 2
 181 372 193 383 207 386 c 0
 220 390 229 384 227 374 c 2
 227 374 218 341 200 265 c 0
 180 186 221 122 311 135 c 0
 404 149 483 235 502 321 c 1
 523 449 l 2
 525 460 540 473 558 477 c 1
 558 477 l 1
478 175 m 0
 485 218 478 177 477 172 c 1
 477 173 477 174 478 175 c 0
453 528 m 0
 441 509 416 489 398 484 c 0
 392 482 388 482 385 484 c 1
 367 456 382 457 397 452 c 1
 373 449 344 447 347 455 c 0
 350 466 373 493 387 509 c 0
 399 528 423 548 442 554 c 0
 461 559 465 548 453 528 c 0
EndSplineSet
EndChar

StartChar: Thorn
Encoding: 222 222 160
Width: 728
GlyphClass: 2
Flags: MW
HStem: 0 82 503 82
VStem: 59 75 591 79
LayerCount: 2
Back
Fore
SplineSet
318 50 m 0
 423 63 528 160 543 254 c 0
 556 343 482 398 383 374 c 0
 291 352 205 268 185 189 c 0
 165 106 220 39 318 50 c 0
205 461 m 2
 207 470 255 484 253 475 c 0
 248 456 221 344 215 323 c 1
 263 373 327 414 395 432 c 1
 395 432 l 1
 395 432 l 1
 528 466 634 397 616 267 c 0
 597 127 449 -7 304 -20 c 1
 303 -20 l 1
 303 -20 l 1
 230 -27 175 0 147 44 c 1
 141 20 114 -90 108 -116 c 0
 105 -129 53 -131 56 -118 c 2
 132 179 l 2
 133 183 134 188 136 192 c 2
 205 461 l 2
EndSplineSet
EndChar

StartChar: germandbls
Encoding: 223 223 161
Width: 574
GlyphClass: 2
Flags: MW
HStem: 0 75 268 75
VStem: 34 76 48 76 53 74 429 82 443 82
LayerCount: 2
Back
Fore
SplineSet
448 325 m 0xd2
 465 273 498 274 364 231 c 1
 435 239 477 195 470 155 c 0
 447 15 314 -19 187 -31 c 0
 73 -41 184 -30 184 -30 c 1
 173 -31 166 -19 170 -2 c 0
 174 14 186 28 197 30 c 2
 201 31 l 1
 287 40 385 64 400 144 c 0
 403 165 373 182 290 190 c 0
 279 188 272 199 276 214 c 1
 276 215 l 1
 276 215 l 1
 279 230 291 243 302 246 c 2
 303 246 l 1
 412 268 383 310 382 311 c 0
 352 343 257 337 212 332 c 1xe4
 139 -13 l 2
 136 -25 122 -36 107 -38 c 0
 93 -39 84 -29 87 -18 c 2xcc
 87 -18 174 364 174 365 c 0
 175 368 184 373 193 376 c 0
 195 377 197 378 199 378 c 0
 205 379 210 380 214 380 c 0
 261 388 420 407 448 325 c 0xd2
303 246 m 2
 301 246 223 231 302 246 c 1
 303 246 l 2
197 30 m 1
 198 30 l 1
 198 30 124 22 197 30 c 1
EndSplineSet
AlternateSubs2: "'salt' Stylistic Alternatives in Latin lookup 0 subtable" uniE001
EndChar

StartChar: agrave
Encoding: 224 224 162
Width: 720
GlyphClass: 2
Flags: MW
HStem: 0 82 503 82 666 93
VStem: 54 79 591 74
LayerCount: 2
Back
Fore
SplineSet
578 14 m 2
 576 0 503 -7 505 7 c 0
 510 35 514 63 518 90 c 1
 457 29 378 -14 300 -21 c 0
 170 -32 99 61 130 179 c 0
 158 290 271 400 392 431 c 0
 525 465 630 396 612 266 c 2
 578 14 l 2
182 188 m 0
 162 106 217 38 314 50 c 0
 420 62 525 160 539 253 c 0
 553 342 479 397 380 373 c 0
 288 352 202 268 182 188 c 0
368 504 m 0
 363 518 372 533 390 538 c 0
 408 544 427 536 433 523 c 0
 441 512 456 495 455 485 c 0
 455 477 422 462 396 452 c 1
 415 465 432 474 424 495 c 1
 420 491 415 489 409 487 c 0
 391 482 373 490 368 504 c 0
EndSplineSet
EndChar

StartChar: aacute
Encoding: 225 225 163
Width: 720
GlyphClass: 2
Flags: MW
HStem: 0 82 503 82 666 93
VStem: 54 79 591 74
LayerCount: 2
Back
Fore
SplineSet
578 14 m 2
 576 0 503 -7 505 7 c 0
 510 35 514 63 518 90 c 1
 457 29 378 -14 300 -21 c 0
 170 -32 99 61 130 179 c 0
 158 290 271 400 392 431 c 0
 525 465 630 396 612 266 c 2
 578 14 l 2
182 188 m 0
 162 106 217 38 314 50 c 0
 420 62 525 160 539 253 c 0
 553 342 479 397 380 373 c 0
 288 352 202 268 182 188 c 0
450 528 m 0
 438 508 413 488 395 483 c 0
 389 482 385 482 382 483 c 0
 364 456 379 456 394 451 c 1
 370 448 342 447 344 454 c 0
 348 465 371 492 384 509 c 0
 396 527 420 547 439 553 c 0
 458 558 462 547 450 528 c 0
EndSplineSet
EndChar

StartChar: acircumflex
Encoding: 226 226 164
Width: 720
GlyphClass: 2
Flags: MW
HStem: 0 82 503 82
VStem: 54 79 250 51 413 51 591 74
LayerCount: 2
Back
Fore
SplineSet
578 14 m 2
 576 0 503 -7 505 7 c 0
 510 35 514 63 518 90 c 1
 457 29 378 -14 300 -21 c 0
 170 -32 99 61 130 179 c 0
 158 290 271 400 392 431 c 0
 525 465 630 396 612 266 c 2
 578 14 l 2
182 188 m 0
 162 106 217 38 314 50 c 0
 420 62 525 160 539 253 c 0
 553 342 479 397 380 373 c 0
 288 352 202 268 182 188 c 0
414 548 m 0
 424 551 434 549 437 543 c 0
 441 537 478 487 478 487 c 1
 478 486 l 1
 479 485 l 2
 479 480 477 474 472 468 c 0
 468 464 462 461 457 460 c 0
 447 457 439 461 438 468 c 2
 405 505 l 1
 354 445 l 2
 348 437 339 429 330 426 c 0
 325 425 321 425 319 428 c 0
 316 431 316 436 319 442 c 2
 319 443 l 1
 320 445 l 1
 320 445 379 519 386 528 c 0
 392 538 403 545 414 548 c 0
EndSplineSet
EndChar

StartChar: atilde
Encoding: 227 227 165
Width: 720
GlyphClass: 2
Flags: MW
HStem: 0 82 503 82
VStem: 54 79 591 74
LayerCount: 2
Back
Fore
SplineSet
578 14 m 2
 576 0 503 -7 505 7 c 0
 510 35 514 63 518 90 c 1
 457 29 378 -14 300 -21 c 0
 170 -32 99 61 130 179 c 0
 158 290 271 400 392 431 c 0
 525 465 630 396 612 266 c 2
 578 14 l 2
182 188 m 0
 162 106 217 38 314 50 c 0
 420 62 525 160 539 253 c 0
 553 342 479 397 380 373 c 0
 288 352 202 268 182 188 c 0
427 533 m 1
 435 529 431 525 432 516 c 0
 433 508 440 503 463 514 c 0
 487 526 490 537 489 545 c 0
 488 547 499 576 506 568 c 1
 506 568 508 569 509 570 c 0
 520 575 533 577 534 567 c 0
 542 524 493 490 467 477 c 0
 447 468 409 454 394 479 c 0
 387 483 390 486 389 495 c 0
 389 503 383 509 361 498 c 0
 339 487 336 475 336 469 c 0
 337 466 326 437 319 446 c 1
 317 444 l 2
 307 439 296 439 296 448 c 0
 293 489 335 520 358 532 c 0
 377 541 413 555 427 533 c 1
EndSplineSet
EndChar

StartChar: adieresis
Encoding: 228 228 166
Width: 720
GlyphClass: 2
Flags: MW
HStem: 0 82 503 82 631 89
VStem: 54 79 234 93 382 93 591 74
LayerCount: 2
Back
Fore
SplineSet
578 14 m 2
 576 0 503 -7 505 7 c 0
 510 35 514 63 518 90 c 1
 457 29 378 -14 300 -21 c 0
 170 -32 99 61 130 179 c 0
 158 290 271 400 392 431 c 0
 525 465 630 396 612 266 c 2
 578 14 l 2
182 188 m 0
 162 106 217 38 314 50 c 0
 420 62 525 160 539 253 c 0
 553 342 479 397 380 373 c 0
 288 352 202 268 182 188 c 0
340 446 m 0
 322 442 310 450 314 466 c 0
 318 482 335 499 353 504 c 0
 370 509 383 501 380 484 c 0
 376 468 358 451 340 446 c 0
450 476 m 0
 431 471 417 479 420 496 c 0
 424 512 442 530 461 536 c 0
 480 541 495 533 492 516 c 0
 488 499 469 481 450 476 c 0
EndSplineSet
EndChar

StartChar: aring
Encoding: 229 229 167
Width: 720
GlyphClass: 2
Flags: MW
HStem: 0 82 503 82 625 44 735 44
VStem: 54 79 281 45 397 45 591 74
LayerCount: 2
Back
Fore
SplineSet
578 14 m 2
 576 0 503 -7 505 7 c 0
 510 35 514 63 518 90 c 1
 457 29 378 -14 300 -21 c 0
 170 -32 99 61 130 179 c 0
 158 290 271 400 392 431 c 0
 525 465 630 396 612 266 c 2
 578 14 l 2
182 188 m 0
 162 106 217 38 314 50 c 0
 420 62 525 160 539 253 c 0
 553 342 479 397 380 373 c 0
 288 352 202 268 182 188 c 0
382 502 m 0
 380 490 390 483 404 487 c 0
 419 491 433 505 435 517 c 0
 438 528 428 535 413 531 c 0
 399 526 385 513 382 502 c 0
351 492 m 0
 357 520 387 549 419 559 c 0
 452 569 475 554 469 526 c 0
 464 498 432 467 398 458 c 0
 366 449 345 465 351 492 c 0
EndSplineSet
EndChar

StartChar: ae
Encoding: 230 230 168
Width: 1208
GlyphClass: 2
Flags: MW
HStem: 0 82 503 82
VStem: 44 79 581 75
LayerCount: 2
Back
Fore
SplineSet
175 187 m 0
 155 105 210 38 306 49 c 0
 403 60 501 145 526 232 c 0
 526 246 528 259 532 273 c 1
 531 349 462 393 372 372 c 0
 281 350 195 266 175 187 c 0
567 13 m 2
 565 -1 493 -8 495 6 c 0
 500 34 504 62 508 89 c 1
 448 28 369 -14 292 -21 c 0
 162 -33 92 60 123 178 c 0
 152 289 264 398 384 429 c 0
 470 451 543 430 580 377 c 1
 609 419 650 460 700 494 c 0
 822 577 974 604 1080 562 c 0
 1105 552 1172 537 1142 511 c 0
 1063 440 982 373 900 309 c 0
 886 298 860 290 846 303 c 0
 833 315 836 333 849 344 c 0
 880 371 1043 494 1015 497 c 0
 924 508 826 510 734 449 c 0
 663 402 617 337 604 277 c 0
 603 273 603 269 602 264 c 2
 600 248 l 2
 599 226 604 204 615 186 c 0
 660 106 818 76 940 169 c 2
 1099 290 l 2
 1114 302 1138 309 1160 299 c 0
 1182 289 1187 265 1173 252 c 0
 1086 175 1108 179 989 107 c 0
 847 21 665 21 579 98 c 1
 567 13 l 2
EndSplineSet
EndChar

StartChar: ccedilla
Encoding: 231 231 169
Width: 684
GlyphClass: 2
Flags: MW
HStem: -143 93 0 75 506 75
VStem: 23 82 47 82 303 89 368 32 392 32
LayerCount: 2
Back
Fore
SplineSet
593 479 m 2xe9
 606 483 616 474 613 458 c 0
 611 442 598 428 585 424 c 2
 585 424 451 393 365 372 c 0
 284 353 200 271 179 186 c 0
 158 98 211 31 297 41 c 0
 389 52 532 68 532 68 c 2
 546 70 556 57 554 37 c 0
 551 18 536 1 521 0 c 2
 521 0 420 -10 283 -22 c 1
 311 -24 348 -29 349 -39 c 0xf2
 352 -53 338 -84 330 -103 c 0
 325 -127 304 -147 283 -148 c 0
 262 -149 251 -130 256 -108 c 0xf4
 260 -85 279 -65 300 -64 c 0
 306 -63 312 -65 317 -68 c 1
 323 -36 304 -32 283 -22 c 1
 160 -33 94 59 124 176 c 0
 153 287 261 394 376 424 c 0
 501 456 593 479 593 479 c 2xe9
EndSplineSet
EndChar

StartChar: egrave
Encoding: 232 232 170
Width: 675
GlyphClass: 2
Flags: MW
HStem: 670 93
LayerCount: 2
Back
Fore
SplineSet
559 144 m 0
 492 82 507 84 418 26 c 0
 294 -56 147 -37 117 67 c 0
 91 161 158 293 269 372 c 0
 364 440 472 457 539 415 c 0
 554 406 596 389 573 368 c 0
 511 310 447 254 384 202 c 0
 373 193 354 187 346 198 c 0
 339 209 343 224 353 234 c 0
 378 256 504 357 486 361 c 0
 426 374 359 381 287 331 c 0
 202 270 151 169 172 103 c 0
 194 33 299 3 393 80 c 2
 515 179 l 2
 527 189 543 193 557 184 c 0
 570 175 570 154 559 144 c 0
328 495 m 0
 323 508 332 523 350 529 c 0
 367 534 386 527 391 513 c 1
 399 503 413 486 412 475 c 0
 412 468 379 453 355 443 c 1
 372 457 389 465 382 485 c 1
 378 482 373 480 367 478 c 0
 350 473 332 481 328 495 c 0
EndSplineSet
EndChar

StartChar: eacute
Encoding: 233 233 171
Width: 675
GlyphClass: 2
Flags: MW
HStem: 670 93
LayerCount: 2
Back
Fore
SplineSet
559 144 m 0
 492 82 507 84 418 26 c 0
 294 -56 147 -37 117 67 c 0
 91 161 158 293 269 372 c 0
 364 440 472 457 539 415 c 0
 554 406 596 389 573 368 c 0
 511 310 447 254 384 202 c 0
 373 193 354 187 346 198 c 0
 339 209 343 224 353 234 c 0
 378 256 504 357 486 361 c 0
 426 374 359 381 287 331 c 0
 202 270 151 169 172 103 c 0
 194 33 299 3 393 80 c 2
 515 179 l 2
 527 189 543 193 557 184 c 0
 570 175 570 154 559 144 c 0
421 522 m 0
 409 503 385 483 367 478 c 0
 362 476 357 476 354 478 c 1
 337 451 352 451 366 446 c 1
 343 443 315 442 318 450 c 0
 321 460 344 487 357 503 c 0
 369 522 393 541 411 547 c 0
 429 552 433 541 421 522 c 0
EndSplineSet
EndChar

StartChar: ecircumflex
Encoding: 234 234 172
Width: 675
GlyphClass: 2
Flags: MW
VStem: 239 51 402 51
LayerCount: 2
Back
Fore
SplineSet
559 144 m 0
 492 82 507 84 418 26 c 0
 294 -56 147 -37 117 67 c 0
 91 161 158 293 269 372 c 0
 364 440 472 457 539 415 c 0
 554 406 596 389 573 368 c 0
 511 310 447 254 384 202 c 0
 373 193 354 187 346 198 c 0
 339 209 343 224 353 234 c 0
 378 256 504 357 486 361 c 0
 426 374 359 381 287 331 c 0
 202 270 151 169 172 103 c 0
 194 33 299 3 393 80 c 2
 515 179 l 2
 527 189 543 193 557 184 c 0
 570 175 570 154 559 144 c 0
406 550 m 0
 417 553 426 551 429 544 c 0
 433 538 470 489 470 489 c 1
 470 488 l 1
 471 487 l 2
 471 482 469 476 464 470 c 0
 460 466 455 463 450 462 c 0
 439 459 432 463 430 470 c 2
 397 507 l 1
 346 447 l 2
 341 439 332 431 323 428 c 0
 319 427 315 427 312 429 c 0
 309 432 309 438 312 444 c 2
 312 445 l 1
 313 446 l 1
 313 446 372 521 379 529 c 0
 385 539 396 546 406 550 c 0
EndSplineSet
EndChar

StartChar: edieresis
Encoding: 235 235 173
Width: 675
GlyphClass: 2
Flags: MW
HStem: 633 89
VStem: 219 93 366 93
LayerCount: 2
Back
Fore
SplineSet
559 144 m 0
 492 82 507 84 418 26 c 0
 294 -56 147 -37 117 67 c 0
 91 161 158 293 269 372 c 0
 364 440 472 457 539 415 c 0
 554 406 596 389 573 368 c 0
 511 310 447 254 384 202 c 0
 373 193 354 187 346 198 c 0
 339 209 343 224 353 234 c 0
 378 256 504 357 486 361 c 0
 426 374 359 381 287 331 c 0
 202 270 151 169 172 103 c 0
 194 33 299 3 393 80 c 2
 515 179 l 2
 527 189 543 193 557 184 c 0
 570 175 570 154 559 144 c 0
329 445 m 0
 312 440 300 448 304 464 c 0
 307 480 325 497 342 502 c 0
 360 507 372 499 369 482 c 0
 365 466 347 449 329 445 c 0
438 474 m 0
 419 469 406 477 409 494 c 0
 412 510 431 528 450 533 c 0
 469 539 483 530 480 514 c 0
 476 497 457 479 438 474 c 0
EndSplineSet
EndChar

StartChar: igrave
Encoding: 236 236 174
Width: 225
GlyphClass: 2
Flags: MW
HStem: 669 93
VStem: 104 74
LayerCount: 2
Back
Fore
SplineSet
258 382 m 2
 165 -10 l 2
 162 -23 148 -34 133 -36 c 0
 118 -37 110 -27 113 -16 c 2
 209 369 l 2
 211 379 224 390 238 394 c 0
 252 398 260 392 258 382 c 2
199 457 m 0
 196 470 204 484 220 489 c 0
 236 494 252 487 256 473 c 0
 262 463 274 447 273 437 c 0
 272 430 242 416 220 407 c 1
 237 419 252 427 246 447 c 1
 243 444 238 441 233 440 c 0
 217 436 202 444 199 457 c 0
EndSplineSet
EndChar

StartChar: iacute
Encoding: 237 237 175
Width: 225
GlyphClass: 2
Flags: MW
HStem: 671 93
VStem: 48 74
LayerCount: 2
Back
Fore
SplineSet
221 373 m 2
 125 -14 l 2
 123 -26 109 -38 94 -39 c 0
 80 -40 72 -31 75 -19 c 2
 173 360 l 2
 175 370 188 381 201 385 c 0
 215 388 223 382 221 373 c 2
280 481 m 0
 268 464 246 445 230 440 c 0
 225 439 221 439 219 440 c 0
 202 415 215 415 227 410 c 1
 207 407 182 407 185 414 c 0
 188 424 210 449 222 465 c 0
 233 482 256 501 272 506 c 0
 289 511 291 499 280 481 c 0
EndSplineSet
EndChar

StartChar: icircumflex
Encoding: 238 238 176
Width: 279
GlyphClass: 2
Flags: MW
VStem: 32 51 101 74 196 51
LayerCount: 2
Back
Fore
SplineSet
256 381 m 2
 163 -10 l 2
 160 -23 146 -34 131 -36 c 0
 116 -37 108 -28 111 -16 c 2
 207 369 l 2
 209 379 222 390 236 393 c 0
 250 397 258 391 256 381 c 2
262 499 m 0
 272 502 280 500 282 494 c 0
 286 488 315 439 315 439 c 1
 316 439 l 1
 316 437 l 2
 316 433 314 427 309 421 c 0
 305 418 300 415 296 414 c 0
 286 411 280 416 279 422 c 2
 252 458 l 1
 204 402 l 2
 199 394 191 386 183 384 c 0
 179 383 175 383 173 385 c 0
 170 388 171 394 174 399 c 2
 174 401 l 1
 175 402 l 1
 175 402 231 472 237 480 c 0
 243 490 253 497 262 499 c 0
EndSplineSet
EndChar

StartChar: idieresis
Encoding: 239 239 177
Width: 302
GlyphClass: 2
Flags: MW
HStem: 615 89
VStem: 28 93 113 74 176 93
LayerCount: 2
Back
Fore
SplineSet
265 384 m 2xa0
 172 -10 l 2
 169 -22 155 -34 140 -35 c 0
 125 -36 116 -27 119 -15 c 2
 215 371 l 2
 217 381 230 392 244 396 c 0
 258 399 267 393 265 384 c 2xa0
200 399 m 0
 184 395 174 403 178 419 c 0
 182 434 198 450 214 455 c 0
 230 459 241 451 237 435 c 0xc0
 233 419 216 403 200 399 c 0
298 425 m 0
 281 421 270 429 273 445 c 0
 277 461 295 478 312 483 c 0
 329 488 341 479 337 463 c 0x90
 334 446 316 430 298 425 c 0
EndSplineSet
EndChar

StartChar: eth
Encoding: 240 240 178
Width: 832
GlyphClass: 2
Flags: MW
HStem: 0 82 503 82 616 74
VStem: 40 79 577 74
LayerCount: 2
Back
Fore
SplineSet
173 187 m 0
 152 104 207 37 303 48 c 0
 407 61 512 158 526 251 c 0
 540 339 467 394 369 371 c 0
 278 349 192 266 173 187 c 0
647 618 m 2
 640 568 l 1
 695 583 743 597 743 597 c 2
 757 601 769 593 767 577 c 0
 765 562 752 547 737 542 c 2
 633 515 l 1
 599 264 l 2
 579 124 433 -9 289 -22 c 0
 159 -33 90 59 120 177 c 0
 149 288 261 397 381 428 c 0
 452 446 513 435 554 401 c 1
 555 412 562 455 569 498 c 1
 475 473 l 2
 463 470 455 478 457 492 c 0
 460 506 472 520 484 523 c 2
 484 523 526 535 577 550 c 1
 581 574 584 593 585 600 c 0
 586 610 649 628 647 618 c 2
EndSplineSet
EndChar

StartChar: ntilde
Encoding: 241 241 179
Width: 698
GlyphClass: 2
Flags: MW
HStem: 508 82
VStem: 59 75 565 75
LayerCount: 2
Back
Fore
SplineSet
554 28 m 2
 552 14 534 1 514 -1 c 0
 494 -3 481 8 483 21 c 2
 483 21 505 161 520 254 c 0
 534 342 465 397 373 375 c 0
 286 355 203 271 184 192 c 0
 163 110 133 -13 133 -13 c 2
 130 -26 116 -37 102 -38 c 0
 87 -40 79 -30 82 -19 c 2
 82 -19 103 65 133 183 c 0
 162 295 270 403 384 432 c 0
 509 465 606 395 588 266 c 0
 568 127 554 28 554 28 c 2
420 532 m 1
 428 528 425 524 426 516 c 0
 427 507 433 502 456 513 c 0
 479 525 483 537 482 544 c 0
 481 546 492 575 499 568 c 1
 499 568 501 569 502 569 c 0
 512 574 525 576 527 566 c 0
 534 523 486 489 460 477 c 0
 440 467 402 453 388 478 c 1
 380 482 384 486 383 494 c 0
 382 503 376 508 355 497 c 0
 333 486 329 475 330 468 c 0
 330 465 319 437 313 445 c 1
 313 445 312 444 310 443 c 0
 301 439 290 438 289 448 c 0
 287 489 329 519 352 531 c 0
 370 541 406 555 420 532 c 1
EndSplineSet
EndChar

StartChar: ograve
Encoding: 242 242 180
Width: 716
GlyphClass: 2
Flags: MW
HStem: 0 82 503 82 666 93
VStem: 52 79 585 79
LayerCount: 2
Back
Fore
SplineSet
181 188 m 0
 161 106 216 38 313 50 c 0
 418 62 523 159 538 253 c 0
 551 342 477 396 379 373 c 0
 287 351 200 267 181 188 c 0
128 179 m 0
 157 290 270 399 390 430 c 0
 523 465 628 396 610 266 c 0
 591 126 444 -8 299 -21 c 0
 168 -32 98 60 128 179 c 0
369 504 m 0
 365 518 374 533 392 539 c 0
 410 544 429 537 435 523 c 0
 443 513 458 496 457 485 c 0
 457 478 424 462 398 452 c 1
 417 466 434 475 426 495 c 1
 422 492 417 489 411 488 c 0
 392 482 374 491 369 504 c 0
EndSplineSet
EndChar

StartChar: oacute
Encoding: 243 243 181
Width: 716
GlyphClass: 2
Flags: MW
HStem: 0 82 503 82 666 93
VStem: 52 79 585 79
LayerCount: 2
Back
Fore
SplineSet
181 188 m 0
 161 106 216 38 313 50 c 0
 418 62 523 159 538 253 c 0
 551 342 477 396 379 373 c 0
 287 351 200 267 181 188 c 0
128 179 m 0
 157 290 270 399 390 430 c 0
 523 465 628 396 610 266 c 0
 591 126 444 -8 299 -21 c 0
 168 -32 98 60 128 179 c 0
452 528 m 0
 440 509 415 489 396 484 c 0
 391 482 386 482 384 483 c 0
 366 456 381 456 396 452 c 1
 372 448 343 447 346 455 c 0
 349 466 372 493 386 509 c 1
 397 528 422 548 441 553 c 0
 460 559 464 547 452 528 c 0
EndSplineSet
EndChar

StartChar: ocircumflex
Encoding: 244 244 182
Width: 716
GlyphClass: 2
Flags: MW
HStem: 0 82 503 82
VStem: 52 79 253 51 416 51 585 79
LayerCount: 2
Back
Fore
SplineSet
181 188 m 0
 161 106 216 38 313 50 c 0
 418 62 523 159 538 253 c 0
 551 342 477 396 379 373 c 0
 287 351 200 267 181 188 c 0
128 179 m 0
 157 290 270 399 390 430 c 0
 523 465 628 396 610 266 c 0
 591 126 444 -8 299 -21 c 0
 168 -32 98 60 128 179 c 0
416 549 m 0
 427 552 436 550 439 543 c 0
 443 538 480 488 480 488 c 1
 481 487 l 1
 481 486 l 2
 482 481 480 475 474 469 c 0
 470 465 465 462 460 460 c 0
 449 458 442 462 440 469 c 2
 407 506 l 1
 356 446 l 2
 351 437 341 429 332 427 c 0
 328 426 324 426 321 428 c 0
 318 431 318 437 321 442 c 2
 321 444 l 1
 322 445 l 1
 322 445 381 520 388 528 c 0
 394 538 405 546 416 549 c 0
EndSplineSet
EndChar

StartChar: otilde
Encoding: 245 245 183
Width: 716
GlyphClass: 2
Flags: MW
HStem: 0 82 503 82
VStem: 52 79 585 79
LayerCount: 2
Back
Fore
SplineSet
181 188 m 0
 161 106 216 38 313 50 c 0
 418 62 523 159 538 253 c 0
 551 342 477 396 379 373 c 0
 287 351 200 267 181 188 c 0
128 179 m 0
 157 290 270 399 390 430 c 0
 523 465 628 396 610 266 c 0
 591 126 444 -8 299 -21 c 0
 168 -32 98 60 128 179 c 0
429 533 m 1
 437 529 433 526 434 517 c 0
 435 509 442 503 465 514 c 0
 489 526 492 538 491 545 c 0
 490 548 501 577 508 569 c 1
 508 569 510 570 511 571 c 0
 522 576 535 577 536 568 c 0
 544 524 495 490 469 478 c 0
 449 468 411 455 396 479 c 0
 389 483 392 487 391 496 c 0
 390 504 384 509 363 498 c 0
 341 487 338 476 338 469 c 0
 338 466 327 438 321 446 c 1
 321 446 320 445 318 444 c 0
 309 440 298 439 297 449 c 0
 295 490 337 521 360 532 c 0
 379 542 415 556 429 533 c 1
EndSplineSet
EndChar

StartChar: odieresis
Encoding: 246 246 184
Width: 716
GlyphClass: 2
Flags: MW
HStem: 0 82 503 82 631 89
VStem: 52 79 234 93 381 93 585 79
LayerCount: 2
Back
Fore
SplineSet
181 188 m 0
 161 106 216 38 313 50 c 0
 418 62 523 159 538 253 c 0
 551 342 477 396 379 373 c 0
 287 351 200 267 181 188 c 0
128 179 m 0
 157 290 270 399 390 430 c 0
 523 465 628 396 610 266 c 0
 591 126 444 -8 299 -21 c 0
 168 -32 98 60 128 179 c 0
340 446 m 0
 322 441 310 450 314 466 c 0
 317 482 335 499 352 504 c 0
 370 509 383 501 379 484 c 0
 376 468 358 451 340 446 c 0
449 476 m 0
 430 471 417 479 420 496 c 0
 423 512 442 530 461 535 c 0
 480 541 494 532 491 516 c 0
 488 498 469 481 449 476 c 0
EndSplineSet
EndChar

StartChar: divide
Encoding: 247 247 185
Width: 582
GlyphClass: 2
Flags: MW
HStem: 52 93 229 74 387 93
VStem: 251 89
CounterMasks: 1 e0
LayerCount: 2
Back
Fore
SplineSet
232 53 m 0
 237 73 255 92 274 94 c 0
 293 97 305 82 301 61 c 0
 296 40 277 21 257 19 c 0
 238 16 228 32 232 53 c 0
456 188 m 2
 135 136 l 2
 125 134 119 145 123 160 c 0
 127 175 139 188 149 189 c 2
 466 248 l 2
 479 250 488 239 485 222 c 0
 482 205 469 190 456 188 c 2
289 306 m 0
 293 324 310 342 328 346 c 0
 346 350 358 338 354 320 c 0
 351 302 332 284 314 280 c 0
 295 276 285 288 289 306 c 0
EndSplineSet
EndChar

StartChar: oslash
Encoding: 248 248 186
Width: 716
GlyphClass: 2
Flags: MW
HStem: 0 82 503 82
VStem: 52 79 585 79
LayerCount: 2
Back
Fore
SplineSet
224 66 m 1
 247 52 277 45 313 50 c 0
 418 62 523 159 538 253 c 0
 543 290 533 322 512 345 c 1
 224 66 l 1
192 99 m 1
 264 170 393 295 471 371 c 1
 445 380 413 381 379 373 c 0
 287 351 200 267 181 188 c 0
 173 154 177 123 192 99 c 1
128 179 m 0
 157 290 270 399 390 430 c 0
 443 444 490 442 528 426 c 1
 534 432 l 2
 544 442 562 445 573 437 c 0
 587 427 581 411 569 400 c 1
 601 370 618 323 610 266 c 0
 591 126 444 -8 299 -21 c 0
 244 -26 200 -12 169 14 c 1
 163 8 l 2
 153 -2 139 -1 132 9 c 0
 124 20 127 36 136 45 c 2
 136 45 138 46 140 49 c 0
 120 83 115 128 128 179 c 0
EndSplineSet
EndChar

StartChar: ugrave
Encoding: 249 249 187
Width: 696
GlyphClass: 2
Flags: MW
HStem: 0 82 666 93
VStem: 58 75 564 75
LayerCount: 2
Back
Fore
SplineSet
616 473 m 2
 616 473 605 391 587 261 c 0
 567 123 427 -9 290 -21 c 0
 167 -33 101 61 132 179 c 0
 161 291 179 362 179 362 c 2
 182 372 194 383 208 387 c 0
 221 390 230 384 228 375 c 2
 228 375 201 268 182 188 c 0
 162 106 213 38 305 49 c 0
 404 60 504 156 518 249 c 0
 533 338 552 456 552 456 c 2
 553 467 568 480 586 485 c 0
 605 490 617 484 616 473 c 2
374 506 m 0
 369 519 378 535 396 540 c 0
 414 545 434 538 439 525 c 1
 448 514 463 497 462 486 c 0
 462 479 428 463 403 454 c 1
 421 467 439 476 430 497 c 1
 426 493 421 490 415 489 c 0
 397 484 379 492 374 506 c 0
EndSplineSet
EndChar

StartChar: uacute
Encoding: 250 250 188
Width: 696
GlyphClass: 2
Flags: MW
HStem: 0 82 666 93
VStem: 58 75 564 75
LayerCount: 2
Back
Fore
SplineSet
616 473 m 2
 616 473 605 391 587 261 c 0
 567 123 427 -9 290 -21 c 0
 167 -33 101 61 132 179 c 0
 161 291 179 362 179 362 c 2
 182 372 194 383 208 387 c 0
 221 390 230 384 228 375 c 2
 228 375 201 268 182 188 c 0
 162 106 213 38 305 49 c 0
 404 60 504 156 518 249 c 0
 533 338 552 456 552 456 c 2
 553 467 568 480 586 485 c 0
 605 490 617 484 616 473 c 2
456 529 m 0
 444 510 420 490 401 485 c 0
 395 483 391 483 388 485 c 1
 370 457 386 458 400 453 c 1
 376 449 348 448 350 456 c 0
 354 467 377 494 390 510 c 0
 402 529 427 549 445 555 c 0
 464 560 468 549 456 529 c 0
EndSplineSet
EndChar

StartChar: ucircumflex
Encoding: 251 251 189
Width: 696
GlyphClass: 2
Flags: MW
HStem: 0 82
VStem: 58 75 241 51 404 51 564 75
LayerCount: 2
Back
Fore
SplineSet
616 473 m 2
 616 473 605 391 587 261 c 0
 567 123 427 -9 290 -21 c 0
 167 -33 101 61 132 179 c 0
 161 291 179 362 179 362 c 2
 182 372 194 383 208 387 c 0
 221 390 230 384 228 375 c 2
 228 375 201 268 182 188 c 0
 162 106 213 38 305 49 c 0
 404 60 504 156 518 249 c 0
 533 338 552 456 552 456 c 2
 553 467 568 480 586 485 c 0
 605 490 617 484 616 473 c 2
407 546 m 0
 418 549 427 547 430 541 c 0
 434 535 471 485 471 485 c 1
 471 484 l 1
 471 483 l 2
 472 478 470 472 465 466 c 0
 461 462 455 459 450 458 c 0
 440 455 433 460 431 466 c 2
 398 503 l 1
 347 444 l 2
 342 435 333 427 323 425 c 0
 319 423 315 424 313 426 c 0
 309 429 310 435 312 440 c 2
 313 442 l 1
 314 443 l 1
 314 443 373 518 379 526 c 0
 386 536 397 543 407 546 c 0
EndSplineSet
EndChar

StartChar: udieresis
Encoding: 252 252 190
Width: 696
GlyphClass: 2
Flags: MW
HStem: 0 82 631 89
VStem: 58 75 235 93 382 93 564 75
LayerCount: 2
Back
Fore
SplineSet
616 473 m 2
 616 473 605 391 587 261 c 0
 567 123 427 -9 290 -21 c 0
 167 -33 101 61 132 179 c 0
 161 291 179 362 179 362 c 2
 182 372 194 383 208 387 c 0
 221 390 230 384 228 375 c 2
 228 375 201 268 182 188 c 0
 162 106 213 38 305 49 c 0
 404 60 504 156 518 249 c 0
 533 338 552 456 552 456 c 2
 553 467 568 480 586 485 c 0
 605 490 617 484 616 473 c 2
340 446 m 0
 323 442 311 450 314 466 c 0
 318 482 335 499 353 504 c 0
 371 509 383 501 380 484 c 0
 376 468 358 451 340 446 c 0
450 476 m 0
 431 471 417 479 421 496 c 0
 424 512 442 530 461 536 c 0
 481 541 495 533 492 516 c 0
 489 499 470 481 450 476 c 0
EndSplineSet
EndChar

StartChar: yacute
Encoding: 253 253 191
Width: 661
GlyphClass: 2
Flags: MW
HStem: -65 75 108 82 666 93
VStem: 56 75 530 75
LayerCount: 2
Back
Fore
SplineSet
558 477 m 1
 576 482 588 476 586 465 c 2
 586 465 587 465 569 343 c 0
 568 336 567 330 565 324 c 0
 545 190 541 166 541 166 c 1
 525 6 393 -71 256 -80 c 0
 133 -89 161 -86 161 -86 c 2
 150 -87 144 -74 148 -57 c 0
 152 -39 165 -25 176 -24 c 2
 176 -24 184 -23 270 -15 c 0
 362 -7 454 36 472 140 c 0
 473 145 473 149 474 153 c 2
 474 156 l 1
 477 172 l 1
 422 115 366 77 297 68 c 0
 176 53 121 141 150 254 c 2
 178 362 l 2
 181 372 193 383 207 386 c 0
 220 390 229 384 227 374 c 2
 227 374 218 341 200 265 c 0
 180 186 221 122 311 135 c 0
 404 149 483 235 502 321 c 1
 523 449 l 2
 525 460 540 473 558 477 c 1
 558 477 l 1
478 175 m 0
 485 218 478 177 477 172 c 1
 477 173 477 174 478 175 c 0
453 528 m 0
 441 509 416 489 398 484 c 0
 392 482 388 482 385 484 c 1
 367 456 382 457 397 452 c 1
 373 449 344 447 347 455 c 0
 350 466 373 493 387 509 c 0
 399 528 423 548 442 554 c 0
 461 559 465 548 453 528 c 0
EndSplineSet
EndChar

StartChar: thorn
Encoding: 254 254 192
Width: 728
GlyphClass: 2
Flags: MW
HStem: 0 82 503 82
VStem: 59 75 591 79
LayerCount: 2
Back
Fore
SplineSet
318 50 m 0
 423 63 528 160 543 254 c 0
 556 343 482 398 383 374 c 0
 291 352 205 268 185 189 c 0
 165 106 220 39 318 50 c 0
205 461 m 2
 207 470 255 484 253 475 c 0
 248 456 221 344 215 323 c 1
 263 373 327 414 395 432 c 1
 395 432 l 1
 395 432 l 1
 528 466 634 397 616 267 c 0
 597 127 449 -7 304 -20 c 1
 303 -20 l 1
 303 -20 l 1
 230 -27 175 0 147 44 c 1
 141 20 114 -90 108 -116 c 0
 105 -129 53 -131 56 -118 c 2
 132 179 l 2
 133 183 134 188 136 192 c 2
 205 461 l 2
EndSplineSet
EndChar

StartChar: ydieresis
Encoding: 255 255 193
Width: 661
GlyphClass: 2
Flags: MW
HStem: -65 75 108 82 631 89
VStem: 56 75 219 93 367 93 530 75
LayerCount: 2
Back
Fore
SplineSet
558 477 m 1
 576 482 588 476 586 465 c 2
 586 465 587 465 569 343 c 0
 568 336 567 330 565 324 c 0
 545 190 541 166 541 166 c 1
 525 6 393 -71 256 -80 c 0
 133 -89 161 -86 161 -86 c 2
 150 -87 144 -74 148 -57 c 0
 152 -39 165 -25 176 -24 c 2
 176 -24 184 -23 270 -15 c 0
 362 -7 454 36 472 140 c 0
 473 145 473 149 474 153 c 2
 474 156 l 1
 477 172 l 1
 422 115 366 77 297 68 c 0
 176 53 121 141 150 254 c 2
 178 362 l 2
 181 372 193 383 207 386 c 0
 220 390 229 384 227 374 c 2
 227 374 218 341 200 265 c 0
 180 186 221 122 311 135 c 0
 404 149 483 235 502 321 c 1
 523 449 l 2
 525 460 540 473 558 477 c 1
 558 477 l 1
478 175 m 0
 485 218 478 177 477 172 c 1
 477 173 477 174 478 175 c 0
329 443 m 0
 312 439 300 447 304 463 c 0
 307 479 325 496 342 501 c 0
 360 506 372 498 369 481 c 0
 365 465 347 448 329 443 c 0
438 473 m 0
 419 468 406 476 409 493 c 0
 412 509 431 527 450 532 c 0
 469 538 483 529 480 512 c 0
 477 495 458 478 438 473 c 0
EndSplineSet
EndChar

StartChar: Aogonek
Encoding: 260 260 194
Width: 753
GlyphClass: 2
Flags: MW
HStem: -132 76 0 82 503 82
VStem: 40 79 577 74
LayerCount: 2
Back
Fore
SplineSet
173 187 m 0
 152 104 207 37 303 48 c 0
 407 61 512 158 526 251 c 0
 540 339 467 394 369 371 c 0
 278 349 192 266 173 187 c 0
609 -77 m 0
 619 -102 607 -124 580 -125 c 0
 554 -126 527 -106 519 -82 c 1
 508 -64 491 -11 492 5 c 1
 492 5 l 1
 492 6 l 1
 496 34 500 62 505 89 c 1
 444 27 365 -15 288 -22 c 0
 159 -33 90 59 120 177 c 0
 149 288 261 397 381 428 c 0
 513 462 617 393 599 264 c 2
 563 13 l 1
 540 -2 537 -45 549 -79 c 1
 554 -75 570 -50 578 -49 c 0
 604 -47 600 -52 609 -77 c 0
EndSplineSet
EndChar

StartChar: aogonek
Encoding: 261 261 195
Width: 753
GlyphClass: 2
Flags: MW
HStem: -132 76 0 82 503 82
VStem: 40 79 577 74
LayerCount: 2
Back
Fore
SplineSet
173 187 m 0
 152 104 207 37 303 48 c 0
 407 61 512 158 526 251 c 0
 540 339 467 394 369 371 c 0
 278 349 192 266 173 187 c 0
609 -77 m 0
 619 -102 607 -124 580 -125 c 0
 554 -126 527 -106 519 -82 c 1
 508 -64 491 -11 492 5 c 1
 492 5 l 1
 492 6 l 1
 496 34 500 62 505 89 c 1
 444 27 365 -15 288 -22 c 0
 159 -33 90 59 120 177 c 0
 149 288 261 397 381 428 c 0
 513 462 617 393 599 264 c 2
 563 13 l 1
 540 -2 537 -45 549 -79 c 1
 554 -75 570 -50 578 -49 c 0
 604 -47 600 -52 609 -77 c 0
EndSplineSet
EndChar

StartChar: Cacute
Encoding: 262 262 196
Width: 684
GlyphClass: 2
Flags: MW
HStem: 0 75 506 75 666 93
VStem: 47 82
LayerCount: 2
Back
Fore
SplineSet
593 479 m 2
 606 483 616 474 613 458 c 0
 611 442 598 428 585 424 c 2
 585 424 451 393 365 372 c 0
 284 353 200 271 179 186 c 0
 158 98 211 31 297 41 c 0
 389 52 532 68 532 68 c 2
 546 70 556 57 554 37 c 0
 551 18 536 1 521 0 c 2
 521 0 420 -10 283 -22 c 0
 160 -33 94 59 124 176 c 0
 153 287 261 394 376 424 c 0
 501 456 593 479 593 479 c 2
458 530 m 0
 446 511 422 491 403 485 c 0
 397 484 393 484 390 485 c 0
 373 458 388 458 402 453 c 1
 378 450 350 449 353 457 c 0
 356 468 379 495 392 511 c 0
 404 530 429 550 447 555 c 0
 466 561 470 549 458 530 c 0
EndSplineSet
EndChar

StartChar: cacute
Encoding: 263 263 197
Width: 684
GlyphClass: 2
Flags: MW
HStem: 0 75 506 75 666 93
VStem: 47 82
LayerCount: 2
Back
Fore
SplineSet
593 479 m 2
 606 483 616 474 613 458 c 0
 611 442 598 428 585 424 c 2
 585 424 451 393 365 372 c 0
 284 353 200 271 179 186 c 0
 158 98 211 31 297 41 c 0
 389 52 532 68 532 68 c 2
 546 70 556 57 554 37 c 0
 551 18 536 1 521 0 c 2
 521 0 420 -10 283 -22 c 0
 160 -33 94 59 124 176 c 0
 153 287 261 394 376 424 c 0
 501 456 593 479 593 479 c 2
458 530 m 0
 446 511 422 491 403 485 c 0
 397 484 393 484 390 485 c 0
 373 458 388 458 402 453 c 1
 378 450 350 449 353 457 c 0
 356 468 379 495 392 511 c 0
 404 530 429 550 447 555 c 0
 466 561 470 549 458 530 c 0
EndSplineSet
EndChar

StartChar: Ccircumflex
Encoding: 264 264 198
Width: 684
GlyphClass: 2
Flags: MW
HStem: 0 75 506 75
VStem: 47 82 249 51 412 51
LayerCount: 2
Back
Fore
SplineSet
593 479 m 2
 606 483 616 474 613 458 c 0
 611 442 598 428 585 424 c 2
 585 424 451 393 365 372 c 0
 284 353 200 271 179 186 c 0
 158 98 211 31 297 41 c 0
 389 52 532 68 532 68 c 2
 546 70 556 57 554 37 c 0
 551 18 536 1 521 0 c 2
 521 0 420 -10 283 -22 c 0
 160 -33 94 59 124 176 c 0
 153 287 261 394 376 424 c 0
 501 456 593 479 593 479 c 2
413 548 m 0
 424 551 433 549 436 542 c 0
 440 537 477 487 477 487 c 1
 478 486 l 1
 478 485 l 2
 479 480 476 474 471 468 c 0
 467 464 462 461 457 460 c 0
 446 457 439 461 437 468 c 2
 404 505 l 1
 353 445 l 2
 348 436 339 429 329 426 c 0
 325 425 321 425 318 427 c 0
 315 430 315 436 318 442 c 2
 318 443 l 1
 320 444 l 1
 320 444 378 519 385 527 c 0
 391 537 402 545 413 548 c 0
EndSplineSet
EndChar

StartChar: ccircumflex
Encoding: 265 265 199
Width: 684
GlyphClass: 2
Flags: MW
HStem: 0 75 506 75
VStem: 47 82 249 51 412 51
LayerCount: 2
Back
Fore
SplineSet
593 479 m 2
 606 483 616 474 613 458 c 0
 611 442 598 428 585 424 c 2
 585 424 451 393 365 372 c 0
 284 353 200 271 179 186 c 0
 158 98 211 31 297 41 c 0
 389 52 532 68 532 68 c 2
 546 70 556 57 554 37 c 0
 551 18 536 1 521 0 c 2
 521 0 420 -10 283 -22 c 0
 160 -33 94 59 124 176 c 0
 153 287 261 394 376 424 c 0
 501 456 593 479 593 479 c 2
413 548 m 0
 424 551 433 549 436 542 c 0
 440 537 477 487 477 487 c 1
 478 486 l 1
 478 485 l 2
 479 480 476 474 471 468 c 0
 467 464 462 461 457 460 c 0
 446 457 439 461 437 468 c 2
 404 505 l 1
 353 445 l 2
 348 436 339 429 329 426 c 0
 325 425 321 425 318 427 c 0
 315 430 315 436 318 442 c 2
 318 443 l 1
 320 444 l 1
 320 444 378 519 385 527 c 0
 391 537 402 545 413 548 c 0
EndSplineSet
EndChar

StartChar: Cdotaccent
Encoding: 266 266 200
Width: 684
GlyphClass: 2
Flags: MW
HStem: 0 75 506 75 615 89
VStem: 47 82 314 93
LayerCount: 2
Back
Fore
SplineSet
593 479 m 2
 606 483 616 474 613 458 c 0
 611 442 598 428 585 424 c 2
 585 424 451 393 365 372 c 0
 284 353 200 271 179 186 c 0
 158 98 211 31 297 41 c 0
 389 52 532 68 532 68 c 2
 546 70 556 57 554 37 c 0
 551 18 536 1 521 0 c 2
 521 0 420 -10 283 -22 c 0
 160 -33 94 59 124 176 c 0
 153 287 261 394 376 424 c 0
 501 456 593 479 593 479 c 2
396 451 m 0
 377 446 364 455 368 471 c 0
 371 488 389 505 408 510 c 0
 426 516 440 507 436 490 c 0
 433 473 415 456 396 451 c 0
EndSplineSet
EndChar

StartChar: cdotaccent
Encoding: 267 267 201
Width: 684
GlyphClass: 2
Flags: MW
HStem: 0 75 506 75 615 89
VStem: 47 82 314 93
LayerCount: 2
Back
Fore
SplineSet
593 479 m 2
 606 483 616 474 613 458 c 0
 611 442 598 428 585 424 c 2
 585 424 451 393 365 372 c 0
 284 353 200 271 179 186 c 0
 158 98 211 31 297 41 c 0
 389 52 532 68 532 68 c 2
 546 70 556 57 554 37 c 0
 551 18 536 1 521 0 c 2
 521 0 420 -10 283 -22 c 0
 160 -33 94 59 124 176 c 0
 153 287 261 394 376 424 c 0
 501 456 593 479 593 479 c 2
396 451 m 0
 377 446 364 455 368 471 c 0
 371 488 389 505 408 510 c 0
 426 516 440 507 436 490 c 0
 433 473 415 456 396 451 c 0
EndSplineSet
EndChar

StartChar: Eogonek
Encoding: 280 280 202
Width: 677
GlyphClass: 2
Flags: MW
HStem: -118 76
LayerCount: 2
Back
Fore
SplineSet
560 144 m 0
 493 82 508 84 419 26 c 0
 404 16 388 7 372 0 c 1
 359 -17 356 -50 364 -77 c 1
 368 -73 383 -50 390 -49 c 0
 413 -48 410 -52 416 -75 c 0
 423 -98 411 -119 388 -120 c 0
 366 -121 343 -102 338 -80 c 0
 331 -67 323 -38 320 -17 c 1
 225 -40 140 -10 118 67 c 0
 92 161 159 293 270 373 c 0
 365 441 473 458 539 416 c 0
 555 406 597 389 574 368 c 0
 512 310 448 255 384 202 c 0
 374 193 355 187 347 198 c 0
 340 209 344 225 354 234 c 0
 379 256 505 358 487 362 c 0
 427 375 359 381 288 331 c 0
 202 271 152 169 173 103 c 0
 195 33 300 3 394 80 c 2
 516 179 l 2
 528 189 544 194 558 185 c 0
 571 175 571 155 560 144 c 0
EndSplineSet
EndChar

StartChar: eogonek
Encoding: 281 281 203
Width: 677
GlyphClass: 2
Flags: MW
HStem: -118 76
LayerCount: 2
Back
Fore
SplineSet
560 144 m 0
 493 82 508 84 419 26 c 0
 404 16 388 7 372 0 c 1
 359 -17 356 -50 364 -77 c 1
 368 -73 383 -50 390 -49 c 0
 413 -48 410 -52 416 -75 c 0
 423 -98 411 -119 388 -120 c 0
 366 -121 343 -102 338 -80 c 0
 331 -67 323 -38 320 -17 c 1
 225 -40 140 -10 118 67 c 0
 92 161 159 293 270 373 c 0
 365 441 473 458 539 416 c 0
 555 406 597 389 574 368 c 0
 512 310 448 255 384 202 c 0
 374 193 355 187 347 198 c 0
 340 209 344 225 354 234 c 0
 379 256 505 358 487 362 c 0
 427 375 359 381 288 331 c 0
 202 271 152 169 173 103 c 0
 195 33 300 3 394 80 c 2
 516 179 l 2
 528 189 544 194 558 185 c 0
 571 175 571 155 560 144 c 0
EndSplineSet
EndChar

StartChar: Hbar
Encoding: 294 294 204
Width: 759
GlyphClass: 2
Flags: MW
HStem: 400 82 508 74
VStem: 165 74 638 75
LayerCount: 2
Back
Fore
SplineSet
177 -32 m 2
 162 -33 153 -23 156 -11 c 2
 156 -11 155 -11 186 116 c 0
 187 122 189 128 190 134 c 0
 208 207 228 291 241 344 c 1
 180 329 l 2
 171 327 165 335 169 349 c 0
 172 363 183 375 193 377 c 2
 193 377 218 384 253 393 c 0
 253 396 254 398 254 398 c 2
 256 408 269 419 283 423 c 0
 298 427 307 421 305 411 c 2
 304 406 l 1
 363 421 426 437 426 437 c 2
 437 440 445 432 442 417 c 0
 440 402 427 388 415 385 c 2
 292 356 l 1
 273 270 l 1
 321 321 371 358 437 373 c 0
 571 404 664 324 647 185 c 2
 628 36 l 2
 626 21 608 7 586 5 c 0
 565 3 551 14 553 28 c 2
 553 28 560 75 574 174 c 0
 587 269 525 333 425 312 c 0
 336 293 260 213 242 132 c 2
 210 -6 l 2
 208 -18 193 -30 178 -32 c 2
 177 -32 l 2
EndSplineSet
EndChar

StartChar: hbar
Encoding: 295 295 205
Width: 759
GlyphClass: 2
Flags: MW
HStem: 400 82 508 74
VStem: 165 74 638 75
LayerCount: 2
Back
Fore
SplineSet
177 -32 m 2
 162 -33 153 -23 156 -11 c 2
 156 -11 155 -11 186 116 c 0
 187 122 189 128 190 134 c 0
 208 207 228 291 241 344 c 1
 180 329 l 2
 171 327 165 335 169 349 c 0
 172 363 183 375 193 377 c 2
 193 377 218 384 253 393 c 0
 253 396 254 398 254 398 c 2
 256 408 269 419 283 423 c 0
 298 427 307 421 305 411 c 2
 304 406 l 1
 363 421 426 437 426 437 c 2
 437 440 445 432 442 417 c 0
 440 402 427 388 415 385 c 2
 292 356 l 1
 273 270 l 1
 321 321 371 358 437 373 c 0
 571 404 664 324 647 185 c 2
 628 36 l 2
 626 21 608 7 586 5 c 0
 565 3 551 14 553 28 c 2
 553 28 560 75 574 174 c 0
 587 269 525 333 425 312 c 0
 336 293 260 213 242 132 c 2
 210 -6 l 2
 208 -18 193 -30 178 -32 c 2
 177 -32 l 2
EndSplineSet
EndChar

StartChar: Lslash
Encoding: 321 321 206
Width: 779
GlyphClass: 2
Flags: MW
HStem: 0 75
VStem: 148 82 150 82 156 74
LayerCount: 2
Back
Fore
SplineSet
250 191 m 1xa0
 236 105 293 41 382 51 c 0
 480 63 633 80 633 80 c 2
 649 82 661 68 658 48 c 0
 656 28 640 11 625 9 c 2
 625 9 516 -1 369 -14 c 0
 259 -24 195 41 190 132 c 1
 156 98 131 73 130 73 c 0
 121 64 108 64 101 74 c 0
 94 84 96 99 105 108 c 2
 196 197 l 1xc0
 244 373 l 2x90
 246 382 259 394 273 397 c 0
 288 401 297 395 295 385 c 2
 295 385 282 331 268 267 c 1
 324 323 l 2
 334 332 349 334 358 326 c 0
 367 318 365 303 356 294 c 2
 356 294 304 243 250 191 c 1xa0
EndSplineSet
EndChar

StartChar: lslash
Encoding: 322 322 207
Width: 779
GlyphClass: 2
Flags: MW
HStem: 0 75
VStem: 148 82 150 82 156 74
LayerCount: 2
Back
Fore
SplineSet
250 191 m 1xa0
 236 105 293 41 382 51 c 0
 480 63 633 80 633 80 c 2
 649 82 661 68 658 48 c 0
 656 28 640 11 625 9 c 2
 625 9 516 -1 369 -14 c 0
 259 -24 195 41 190 132 c 1
 156 98 131 73 130 73 c 0
 121 64 108 64 101 74 c 0
 94 84 96 99 105 108 c 2
 196 197 l 1xc0
 244 373 l 2x90
 246 382 259 394 273 397 c 0
 288 401 297 395 295 385 c 2
 295 385 282 331 268 267 c 1
 324 323 l 2
 334 332 349 334 358 326 c 0
 367 318 365 303 356 294 c 2
 356 294 304 243 250 191 c 1xa0
EndSplineSet
EndChar

StartChar: Nacute
Encoding: 323 323 208
Width: 698
GlyphClass: 2
Flags: MW
HStem: 508 82 666 93
VStem: 59 75 565 75
LayerCount: 2
Back
Fore
SplineSet
554 28 m 2
 552 14 534 1 514 -1 c 0
 494 -3 481 8 483 21 c 2
 483 21 505 161 520 254 c 0
 534 342 465 397 373 375 c 0
 286 355 203 271 184 192 c 0
 163 110 133 -13 133 -13 c 2
 130 -26 116 -37 102 -38 c 0
 87 -40 79 -30 82 -19 c 2
 82 -19 103 65 133 183 c 0
 162 295 270 403 384 432 c 0
 509 465 606 395 588 266 c 0
 568 127 554 28 554 28 c 2
459 530 m 0
 447 511 423 491 404 486 c 0
 398 484 394 484 391 485 c 0
 373 458 389 458 403 454 c 1
 379 450 351 449 353 457 c 0
 356 468 380 495 393 511 c 0
 405 530 430 550 448 556 c 0
 467 561 471 549 459 530 c 0
EndSplineSet
EndChar

StartChar: nacute
Encoding: 324 324 209
Width: 698
GlyphClass: 2
Flags: MW
HStem: 508 82 666 93
VStem: 59 75 565 75
LayerCount: 2
Back
Fore
SplineSet
554 28 m 2
 552 14 534 1 514 -1 c 0
 494 -3 481 8 483 21 c 2
 483 21 505 161 520 254 c 0
 534 342 465 397 373 375 c 0
 286 355 203 271 184 192 c 0
 163 110 133 -13 133 -13 c 2
 130 -26 116 -37 102 -38 c 0
 87 -40 79 -30 82 -19 c 2
 82 -19 103 65 133 183 c 0
 162 295 270 403 384 432 c 0
 509 465 606 395 588 266 c 0
 568 127 554 28 554 28 c 2
459 530 m 0
 447 511 423 491 404 486 c 0
 398 484 394 484 391 485 c 0
 373 458 389 458 403 454 c 1
 379 450 351 449 353 457 c 0
 356 468 380 495 393 511 c 0
 405 530 430 550 448 556 c 0
 467 561 471 549 459 530 c 0
EndSplineSet
EndChar

StartChar: Ohungarumlaut
Encoding: 336 336 210
Width: 716
GlyphClass: 2
Flags: MW
HStem: 0 82 503 82 666 93
VStem: 52 79 585 79
LayerCount: 2
Back
Fore
SplineSet
181 188 m 0
 161 106 216 38 313 50 c 0
 418 62 523 159 538 253 c 0
 551 342 477 396 379 373 c 0
 287 351 200 267 181 188 c 0
128 179 m 0
 157 290 270 399 390 430 c 0
 523 465 628 396 610 266 c 0
 591 126 444 -8 299 -21 c 0
 168 -32 98 60 128 179 c 0
424 520 m 0
 412 501 388 481 370 476 c 0
 365 475 360 475 357 476 c 0
 340 449 355 449 369 445 c 1
 346 441 318 440 321 448 c 0
 324 459 347 485 360 502 c 0
 372 520 396 540 414 545 c 0
 432 551 436 539 424 520 c 0
528 550 m 0
 515 530 490 510 470 504 c 0
 464 502 460 502 456 504 c 1
 439 476 455 476 470 472 c 1
 445 468 415 466 417 474 c 0
 420 486 444 513 458 530 c 0
 470 549 496 570 515 576 c 0
 535 582 540 570 528 550 c 0
EndSplineSet
EndChar

StartChar: ohungarumlaut
Encoding: 337 337 211
Width: 716
GlyphClass: 2
Flags: MW
HStem: 0 82 503 82 666 93
VStem: 52 79 585 79
LayerCount: 2
Back
Fore
SplineSet
181 188 m 0
 161 106 216 38 313 50 c 0
 418 62 523 159 538 253 c 0
 551 342 477 396 379 373 c 0
 287 351 200 267 181 188 c 0
128 179 m 0
 157 290 270 399 390 430 c 0
 523 465 628 396 610 266 c 0
 591 126 444 -8 299 -21 c 0
 168 -32 98 60 128 179 c 0
424 520 m 0
 412 501 388 481 370 476 c 0
 365 475 360 475 357 476 c 0
 340 449 355 449 369 445 c 1
 346 441 318 440 321 448 c 0
 324 459 347 485 360 502 c 0
 372 520 396 540 414 545 c 0
 432 551 436 539 424 520 c 0
528 550 m 0
 515 530 490 510 470 504 c 0
 464 502 460 502 456 504 c 1
 439 476 455 476 470 472 c 1
 445 468 415 466 417 474 c 0
 420 486 444 513 458 530 c 0
 470 549 496 570 515 576 c 0
 535 582 540 570 528 550 c 0
EndSplineSet
EndChar

StartChar: OE
Encoding: 338 338 212
Width: 1217
GlyphClass: 2
Flags: MW
HStem: 0 82 503 82
VStem: 44 79
LayerCount: 2
Back
Fore
SplineSet
175 187 m 0
 155 105 210 38 306 49 c 0
 410 61 515 158 530 251 c 0
 544 340 470 395 372 372 c 0
 281 350 195 266 175 187 c 0
123 178 m 0
 152 289 264 398 384 429 c 0
 472 452 548 429 583 372 c 1
 613 417 655 460 709 497 c 0
 831 579 984 607 1091 565 c 0
 1117 555 1183 539 1154 514 c 0
 1074 443 993 375 910 311 c 0
 896 300 870 292 856 305 c 0
 843 317 846 335 859 346 c 0
 890 373 1053 497 1025 500 c 0
 934 510 835 513 743 451 c 0
 633 378 581 261 623 187 c 0
 669 107 829 77 951 170 c 2
 1111 292 l 2
 1126 304 1150 311 1172 301 c 0
 1195 291 1200 267 1185 253 c 0
 1098 177 1121 180 1001 108 c 0
 833 7 615 24 553 143 c 1
 553 143 l 1
 492 54 391 -12 292 -21 c 0
 162 -33 92 60 123 178 c 0
EndSplineSet
EndChar

StartChar: oe
Encoding: 339 339 213
Width: 1217
GlyphClass: 2
Flags: MW
HStem: 0 82 503 82
VStem: 44 79
LayerCount: 2
Back
Fore
SplineSet
175 187 m 0
 155 105 210 38 306 49 c 0
 410 61 515 158 530 251 c 0
 544 340 470 395 372 372 c 0
 281 350 195 266 175 187 c 0
123 178 m 0
 152 289 264 398 384 429 c 0
 472 452 548 429 583 372 c 1
 613 417 655 460 709 497 c 0
 831 579 984 607 1091 565 c 0
 1117 555 1183 539 1154 514 c 0
 1074 443 993 375 910 311 c 0
 896 300 870 292 856 305 c 0
 843 317 846 335 859 346 c 0
 890 373 1053 497 1025 500 c 0
 934 510 835 513 743 451 c 0
 633 378 581 261 623 187 c 0
 669 107 829 77 951 170 c 2
 1111 292 l 2
 1126 304 1150 311 1172 301 c 0
 1195 291 1200 267 1185 253 c 0
 1098 177 1121 180 1001 108 c 0
 833 7 615 24 553 143 c 1
 553 143 l 1
 492 54 391 -12 292 -21 c 0
 162 -33 92 60 123 178 c 0
EndSplineSet
EndChar

StartChar: Sacute
Encoding: 346 346 214
Width: 696
GlyphClass: 2
Flags: MW
HStem: 0 75 251 75 504 75 670 93
VStem: 51 82 562 82
LayerCount: 2
Back
Fore
SplineSet
453 264 m 0
 517 276 598 304 579 170 c 0
 560 29 432 -9 294 -21 c 0
 169 -32 92 -39 92 -39 c 2
 82 -40 76 -28 80 -11 c 0
 85 5 97 19 107 20 c 2
 107 20 220 33 307 43 c 0
 400 53 491 85 503 159 c 0
 503 161 531 219 443 204 c 0
 442 204 354 189 231 168 c 0
 180 159 117 137 146 249 c 0
 173 353 264 394 379 423 c 0
 505 455 597 478 597 478 c 2
 610 482 620 473 617 457 c 0
 615 442 602 427 588 424 c 2
 588 424 455 392 368 371 c 0
 287 352 215 320 201 261 c 0
 200 259 174 210 244 223 c 2
 244 223 324 239 453 264 c 0
455 532 m 0
 443 513 419 492 400 487 c 0
 394 485 390 486 387 487 c 0
 369 460 385 460 399 455 c 1
 375 452 347 451 349 458 c 0
 353 469 376 496 389 512 c 0
 401 531 426 551 444 557 c 0
 463 563 467 551 455 532 c 0
EndSplineSet
EndChar

StartChar: sacute
Encoding: 347 347 215
Width: 696
GlyphClass: 2
Flags: MW
HStem: 0 75 251 75 504 75 670 93
VStem: 51 82 562 82
LayerCount: 2
Back
Fore
SplineSet
453 264 m 0
 517 276 598 304 579 170 c 0
 560 29 432 -9 294 -21 c 0
 169 -32 92 -39 92 -39 c 2
 82 -40 76 -28 80 -11 c 0
 85 5 97 19 107 20 c 2
 107 20 220 33 307 43 c 0
 400 53 491 85 503 159 c 0
 503 161 531 219 443 204 c 0
 442 204 354 189 231 168 c 0
 180 159 117 137 146 249 c 0
 173 353 264 394 379 423 c 0
 505 455 597 478 597 478 c 2
 610 482 620 473 617 457 c 0
 615 442 602 427 588 424 c 2
 588 424 455 392 368 371 c 0
 287 352 215 320 201 261 c 0
 200 259 174 210 244 223 c 2
 244 223 324 239 453 264 c 0
455 532 m 0
 443 513 419 492 400 487 c 0
 394 485 390 486 387 487 c 0
 369 460 385 460 399 455 c 1
 375 452 347 451 349 458 c 0
 353 469 376 496 389 512 c 0
 401 531 426 551 444 557 c 0
 463 563 467 551 455 532 c 0
EndSplineSet
EndChar

StartChar: Scaron
Encoding: 352 352 216
Width: 696
GlyphClass: 2
Flags: MW
HStem: 0 75 251 75 504 75
VStem: 51 82 240 51 403 51 562 82
LayerCount: 2
Back
Fore
SplineSet
453 264 m 0
 517 276 598 304 579 170 c 0
 560 29 432 -9 294 -21 c 0
 169 -32 92 -39 92 -39 c 2
 82 -40 76 -28 80 -11 c 0
 85 5 97 19 107 20 c 2
 107 20 220 33 307 43 c 0
 400 53 491 85 503 159 c 0
 503 161 531 219 443 204 c 0
 442 204 354 189 231 168 c 0
 180 159 117 137 146 249 c 0
 173 353 264 394 379 423 c 0
 505 455 597 478 597 478 c 2
 610 482 620 473 617 457 c 0
 615 442 602 427 588 424 c 2
 588 424 455 392 368 371 c 0
 287 352 215 320 201 261 c 0
 200 259 174 210 244 223 c 2
 244 223 324 239 453 264 c 0
386 447 m 0
 375 445 366 447 363 454 c 0
 360 460 328 509 328 509 c 1
 328 510 l 1
 328 511 l 2
 327 515 330 521 335 527 c 0
 338 530 343 533 347 534 c 0
 356 537 363 534 364 527 c 2
 395 492 l 1
 447 552 l 2
 451 560 461 568 471 572 c 0
 476 573 480 573 483 571 c 0
 487 568 487 563 484 557 c 2
 484 556 l 1
 483 554 l 1
 483 554 422 477 415 468 c 0
 409 458 397 450 386 447 c 0
EndSplineSet
EndChar

StartChar: scaron
Encoding: 353 353 217
Width: 696
GlyphClass: 2
Flags: MW
HStem: 0 75 251 75 504 75
VStem: 51 82 240 51 403 51 562 82
LayerCount: 2
Back
Fore
SplineSet
453 264 m 0
 517 276 598 304 579 170 c 0
 560 29 432 -9 294 -21 c 0
 169 -32 92 -39 92 -39 c 2
 82 -40 76 -28 80 -11 c 0
 85 5 97 19 107 20 c 2
 107 20 220 33 307 43 c 0
 400 53 491 85 503 159 c 0
 503 161 531 219 443 204 c 0
 442 204 354 189 231 168 c 0
 180 159 117 137 146 249 c 0
 173 353 264 394 379 423 c 0
 505 455 597 478 597 478 c 2
 610 482 620 473 617 457 c 0
 615 442 602 427 588 424 c 2
 588 424 455 392 368 371 c 0
 287 352 215 320 201 261 c 0
 200 259 174 210 244 223 c 2
 244 223 324 239 453 264 c 0
386 447 m 0
 375 445 366 447 363 454 c 0
 360 460 328 509 328 509 c 1
 328 510 l 1
 328 511 l 2
 327 515 330 521 335 527 c 0
 338 530 343 533 347 534 c 0
 356 537 363 534 364 527 c 2
 395 492 l 1
 447 552 l 2
 451 560 461 568 471 572 c 0
 476 573 480 573 483 571 c 0
 487 568 487 563 484 557 c 2
 484 556 l 1
 483 554 l 1
 483 554 422 477 415 468 c 0
 409 458 397 450 386 447 c 0
EndSplineSet
EndChar

StartChar: Ydieresis
Encoding: 376 376 218
Width: 661
GlyphClass: 2
Flags: MW
HStem: -65 75 108 82 631 89
VStem: 56 75 219 93 367 93 530 75
LayerCount: 2
Back
Fore
SplineSet
558 477 m 1
 576 482 588 476 586 465 c 2
 586 465 587 465 569 343 c 0
 568 336 567 330 565 324 c 0
 545 190 541 166 541 166 c 1
 525 6 393 -71 256 -80 c 0
 133 -89 161 -86 161 -86 c 2
 150 -87 144 -74 148 -57 c 0
 152 -39 165 -25 176 -24 c 2
 176 -24 184 -23 270 -15 c 0
 362 -7 454 36 472 140 c 0
 473 145 473 149 474 153 c 2
 474 156 l 1
 477 172 l 1
 422 115 366 77 297 68 c 0
 176 53 121 141 150 254 c 2
 178 362 l 2
 181 372 193 383 207 386 c 0
 220 390 229 384 227 374 c 2
 227 374 218 341 200 265 c 0
 180 186 221 122 311 135 c 0
 404 149 483 235 502 321 c 1
 523 449 l 2
 525 460 540 473 558 477 c 1
 558 477 l 1
478 175 m 0
 485 218 478 177 477 172 c 1
 477 173 477 174 478 175 c 0
329 443 m 0
 312 439 300 447 304 463 c 0
 307 479 325 496 342 501 c 0
 360 506 372 498 369 481 c 0
 365 465 347 448 329 443 c 0
438 473 m 0
 419 468 406 476 409 493 c 0
 412 509 431 527 450 532 c 0
 469 538 483 529 480 512 c 0
 477 495 458 478 438 473 c 0
EndSplineSet
EndChar

StartChar: Zacute
Encoding: 377 377 219
Width: 698
GlyphClass: 2
Flags: MW
HStem: 0 75 252 75 504 75 670 93
VStem: 52 82 563 82
LayerCount: 2
Back
Fore
SplineSet
245 224 m 0
 366 247 454 263 454 263 c 2
 541 280 531 328 531 330 c 0
 541 395 462 393 375 373 c 0
 293 353 185 328 185 328 c 2
 176 325 170 334 174 348 c 0
 177 361 188 374 198 376 c 2
 198 376 270 395 386 425 c 0
 512 457 622 465 605 345 c 0
 586 214 508 215 444 204 c 0
 313 182 233 169 232 169 c 0
 162 157 165 110 164 109 c 0
 148 43 215 32 301 42 c 0
 394 53 537 69 537 69 c 2
 551 71 562 57 559 38 c 0
 556 18 542 2 527 1 c 2
 527 1 426 -9 288 -22 c 0
 164 -33 77 -19 108 100 c 0
 138 215 194 214 245 224 c 0
456 532 m 0
 444 513 419 492 401 487 c 0
 395 486 391 486 388 487 c 0
 370 460 385 460 400 455 c 1
 376 452 348 451 350 459 c 0
 353 469 376 496 390 513 c 0
 402 531 426 552 445 557 c 0
 464 563 468 551 456 532 c 0
EndSplineSet
EndChar

StartChar: zacute
Encoding: 378 378 220
Width: 698
GlyphClass: 2
Flags: MW
HStem: 0 75 252 75 504 75 670 93
VStem: 52 82 563 82
LayerCount: 2
Back
Fore
SplineSet
245 224 m 0
 366 247 454 263 454 263 c 2
 541 280 531 328 531 330 c 0
 541 395 462 393 375 373 c 0
 293 353 185 328 185 328 c 2
 176 325 170 334 174 348 c 0
 177 361 188 374 198 376 c 2
 198 376 270 395 386 425 c 0
 512 457 622 465 605 345 c 0
 586 214 508 215 444 204 c 0
 313 182 233 169 232 169 c 0
 162 157 165 110 164 109 c 0
 148 43 215 32 301 42 c 0
 394 53 537 69 537 69 c 2
 551 71 562 57 559 38 c 0
 556 18 542 2 527 1 c 2
 527 1 426 -9 288 -22 c 0
 164 -33 77 -19 108 100 c 0
 138 215 194 214 245 224 c 0
456 532 m 0
 444 513 419 492 401 487 c 0
 395 486 391 486 388 487 c 0
 370 460 385 460 400 455 c 1
 376 452 348 451 350 459 c 0
 353 469 376 496 390 513 c 0
 402 531 426 552 445 557 c 0
 464 563 468 551 456 532 c 0
EndSplineSet
EndChar

StartChar: Zdotaccent
Encoding: 379 379 221
Width: 698
GlyphClass: 2
Flags: MW
HStem: 0 75 252 75 504 75 652 93
VStem: 52 82 309 89 563 82
LayerCount: 2
Back
Fore
SplineSet
245 224 m 0
 366 247 454 263 454 263 c 2
 541 280 531 328 531 330 c 0
 541 395 462 393 375 373 c 0
 293 353 185 328 185 328 c 2
 176 325 170 334 174 348 c 0
 177 361 188 374 198 376 c 2
 198 376 270 395 386 425 c 0
 512 457 622 465 605 345 c 0
 586 214 508 215 444 204 c 0
 313 182 233 169 232 169 c 0
 162 157 165 110 164 109 c 0
 148 43 215 32 301 42 c 0
 394 53 537 69 537 69 c 2
 551 71 562 57 559 38 c 0
 556 18 542 2 527 1 c 2
 527 1 426 -9 288 -22 c 0
 164 -33 77 -19 108 100 c 0
 138 215 194 214 245 224 c 0
370 496 m 0
 374 512 390 530 408 535 c 0
 427 541 439 531 436 515 c 0
 432 498 414 480 396 475 c 0
 377 470 367 480 370 496 c 0
EndSplineSet
EndChar

StartChar: zdotaccent
Encoding: 380 380 222
Width: 698
GlyphClass: 2
Flags: MW
HStem: 0 75 252 75 504 75 652 93
VStem: 52 82 309 89 563 82
LayerCount: 2
Back
Fore
SplineSet
245 224 m 0
 366 247 454 263 454 263 c 2
 541 280 531 328 531 330 c 0
 541 395 462 393 375 373 c 0
 293 353 185 328 185 328 c 2
 176 325 170 334 174 348 c 0
 177 361 188 374 198 376 c 2
 198 376 270 395 386 425 c 0
 512 457 622 465 605 345 c 0
 586 214 508 215 444 204 c 0
 313 182 233 169 232 169 c 0
 162 157 165 110 164 109 c 0
 148 43 215 32 301 42 c 0
 394 53 537 69 537 69 c 2
 551 71 562 57 559 38 c 0
 556 18 542 2 527 1 c 2
 527 1 426 -9 288 -22 c 0
 164 -33 77 -19 108 100 c 0
 138 215 194 214 245 224 c 0
370 496 m 0
 374 512 390 530 408 535 c 0
 427 541 439 531 436 515 c 0
 432 498 414 480 396 475 c 0
 377 470 367 480 370 496 c 0
EndSplineSet
EndChar

StartChar: Zcaron
Encoding: 381 381 223
Width: 698
GlyphClass: 2
Flags: MW
HStem: 0 75 252 75 504 75
VStem: 52 82 243 51 406 51 563 82
LayerCount: 2
Back
Fore
SplineSet
245 224 m 0
 366 247 454 263 454 263 c 2
 541 280 531 328 531 330 c 0
 541 395 462 393 375 373 c 0
 293 353 185 328 185 328 c 2
 176 325 170 334 174 348 c 0
 177 361 188 374 198 376 c 2
 198 376 270 395 386 425 c 0
 512 457 622 465 605 345 c 0
 586 214 508 215 444 204 c 0
 313 182 233 169 232 169 c 0
 162 157 165 110 164 109 c 0
 148 43 215 32 301 42 c 0
 394 53 537 69 537 69 c 2
 551 71 562 57 559 38 c 0
 556 18 542 2 527 1 c 2
 527 1 426 -9 288 -22 c 0
 164 -33 77 -19 108 100 c 0
 138 215 194 214 245 224 c 0
388 448 m 0
 377 445 368 448 366 455 c 2
 330 509 l 1
 330 510 l 1
 330 511 l 2
 329 516 331 522 336 527 c 0
 340 530 345 533 349 535 c 0
 359 538 365 534 367 528 c 2
 397 492 l 1
 449 552 l 2
 454 561 463 569 473 572 c 0
 478 574 482 574 485 572 c 0
 489 569 489 564 487 558 c 2
 486 556 l 1
 485 555 l 1
 485 555 424 477 417 469 c 0
 410 458 399 451 388 448 c 0
EndSplineSet
EndChar

StartChar: zcaron
Encoding: 382 382 224
Width: 698
GlyphClass: 2
Flags: MW
HStem: 0 75 252 75 504 75
VStem: 52 82 243 51 406 51 563 82
LayerCount: 2
Back
Fore
SplineSet
245 224 m 0
 366 247 454 263 454 263 c 2
 541 280 531 328 531 330 c 0
 541 395 462 393 375 373 c 0
 293 353 185 328 185 328 c 2
 176 325 170 334 174 348 c 0
 177 361 188 374 198 376 c 2
 198 376 270 395 386 425 c 0
 512 457 622 465 605 345 c 0
 586 214 508 215 444 204 c 0
 313 182 233 169 232 169 c 0
 162 157 165 110 164 109 c 0
 148 43 215 32 301 42 c 0
 394 53 537 69 537 69 c 2
 551 71 562 57 559 38 c 0
 556 18 542 2 527 1 c 2
 527 1 426 -9 288 -22 c 0
 164 -33 77 -19 108 100 c 0
 138 215 194 214 245 224 c 0
388 448 m 0
 377 445 368 448 366 455 c 2
 330 509 l 1
 330 510 l 1
 330 511 l 2
 329 516 331 522 336 527 c 0
 340 530 345 533 349 535 c 0
 359 538 365 534 367 528 c 2
 397 492 l 1
 449 552 l 2
 454 561 463 569 473 572 c 0
 478 574 482 574 485 572 c 0
 489 569 489 564 487 558 c 2
 486 556 l 1
 485 555 l 1
 485 555 424 477 417 469 c 0
 410 458 399 451 388 448 c 0
EndSplineSet
EndChar

StartChar: florin
Encoding: 402 402 225
Width: 803
GlyphClass: 2
Flags: MW
HStem: 279 74 506 75
LayerCount: 2
Back
Fore
SplineSet
562 246 m 2
 255 192 l 2
 244 190 240 201 248 217 c 0
 255 233 271 247 281 249 c 2
 589 310 l 2
 603 313 609 301 601 283 c 0
 594 265 576 249 562 246 c 2
121 -15 m 2
 115 -27 98 -39 84 -40 c 0
 70 -41 64 -32 70 -20 c 2
 161 183 l 1
 225 303 355 419 479 450 c 0
 615 485 714 510 714 510 c 2
 728 514 735 504 728 486 c 0
 721 469 703 453 689 449 c 2
 689 449 546 415 453 393 c 0
 367 372 261 284 218 193 c 0
 175 101 121 -15 121 -15 c 2
EndSplineSet
EndChar

StartChar: uni01C7
Encoding: 455 455 226
Width: 1333
GlyphClass: 2
Flags: MW
HStem: 0 75
VStem: 37 82 46 74 1177 74 1177 82 1195 74
LayerCount: 2
Back
Fore
SplineSet
1215 616 m 2x84
 1215 629 1236 645 1263 652 c 0
 1291 659 1314 654 1315 641 c 1x90
 1314 641 1342 396 1342 396 c 1
 1336 224 1159 57 938 37 c 0
 745 20 627 10 627 10 c 2
 612 8 601 23 603 42 c 0
 606 62 621 79 636 80 c 2
 636 80 808 100 942 116 c 0
 1088 132 1226 253 1223 374 c 0x88
 1219 488 1215 616 1215 616 c 2x84
230 369 m 2
 230 369 206 272 185 188 c 0
 164 99 217 32 303 42 c 0
 396 53 540 69 540 69 c 2
 554 71 565 58 562 38 c 0
 559 19 544 2 530 1 c 2
 530 1 428 -9 290 -21 c 0
 166 -33 107 61 130 178 c 1xc0
 181 357 l 2xa0
 184 367 196 378 210 381 c 0
 224 385 232 379 230 369 c 2
EndSplineSet
EndChar

StartChar: uni01C8
Encoding: 456 456 227
Width: 1333
GlyphClass: 2
Flags: MW
HStem: 0 75
VStem: 37 82 46 74 1177 74 1177 82 1195 74
LayerCount: 2
Back
Fore
SplineSet
1215 616 m 2x84
 1215 629 1236 645 1263 652 c 0
 1291 659 1314 654 1315 641 c 1x90
 1314 641 1342 396 1342 396 c 1
 1336 224 1159 57 938 37 c 0
 745 20 627 10 627 10 c 2
 612 8 601 23 603 42 c 0
 606 62 621 79 636 80 c 2
 636 80 808 100 942 116 c 0
 1088 132 1226 253 1223 374 c 0x88
 1219 488 1215 616 1215 616 c 2x84
230 369 m 2
 230 369 206 272 185 188 c 0
 164 99 217 32 303 42 c 0
 396 53 540 69 540 69 c 2
 554 71 565 58 562 38 c 0
 559 19 544 2 530 1 c 2
 530 1 428 -9 290 -21 c 0
 166 -33 107 61 130 178 c 1xc0
 181 357 l 2xa0
 184 367 196 378 210 381 c 0
 224 385 232 379 230 369 c 2
EndSplineSet
EndChar

StartChar: uni01C9
Encoding: 457 457 228
Width: 1333
GlyphClass: 2
Flags: MW
HStem: 0 75
VStem: 37 82 46 74 1177 74 1177 82 1195 74
LayerCount: 2
Back
Fore
SplineSet
1215 616 m 2x84
 1215 629 1236 645 1263 652 c 0
 1291 659 1314 654 1315 641 c 1x90
 1314 641 1342 396 1342 396 c 1
 1336 224 1159 57 938 37 c 0
 745 20 627 10 627 10 c 2
 612 8 601 23 603 42 c 0
 606 62 621 79 636 80 c 2
 636 80 808 100 942 116 c 0
 1088 132 1226 253 1223 374 c 0x88
 1219 488 1215 616 1215 616 c 2x84
230 369 m 2
 230 369 206 272 185 188 c 0
 164 99 217 32 303 42 c 0
 396 53 540 69 540 69 c 2
 554 71 565 58 562 38 c 0
 559 19 544 2 530 1 c 2
 530 1 428 -9 290 -21 c 0
 166 -33 107 61 130 178 c 1xc0
 181 357 l 2xa0
 184 367 196 378 210 381 c 0
 224 385 232 379 230 369 c 2
EndSplineSet
EndChar

StartChar: uni01CA
Encoding: 458 458 229
Width: 1338
GlyphClass: 2
Flags: MW
HStem: 0 75 508 82
VStem: 56 75 58 75 562 75 564 75 1195 74 1195 82 1197 74
LayerCount: 2
Back
Fore
SplineSet
1218 616 m 2xd480
 1218 629 1238 646 1266 653 c 0
 1294 660 1317 654 1317 641 c 2xea
 1345 396 l 1
 1339 224 1162 57 941 37 c 0
 747 20 630 10 630 10 c 2
 614 8 603 23 605 43 c 0
 608 62 623 79 638 81 c 2
 638 81 810 100 945 116 c 0
 1091 133 1229 254 1225 375 c 0xe9
 1222 488 1218 616 1218 616 c 2xd480
553 28 m 2
 551 14 534 1 514 -1 c 0
 494 -3 480 8 483 21 c 2
 483 21 505 161 520 254 c 0
 534 342 465 397 372 375 c 0
 286 354 203 271 183 192 c 2
 133 -13 l 2
 130 -26 116 -37 101 -38 c 0
 87 -40 79 -30 82 -19 c 2
 82 -19 103 65 133 183 c 0
 162 295 270 403 384 432 c 0
 509 465 606 395 588 266 c 0
 568 127 553 28 553 28 c 2
EndSplineSet
EndChar

StartChar: uni01CB
Encoding: 459 459 230
Width: 1338
GlyphClass: 2
Flags: MW
HStem: 0 75 508 82
VStem: 56 75 58 75 562 75 564 75 1195 74 1195 82 1197 74
LayerCount: 2
Back
Fore
SplineSet
1218 616 m 2xd480
 1218 629 1238 646 1266 653 c 0
 1294 660 1317 654 1317 641 c 2xea
 1345 396 l 1
 1339 224 1162 57 941 37 c 0
 747 20 630 10 630 10 c 2
 614 8 603 23 605 43 c 0
 608 62 623 79 638 81 c 2
 638 81 810 100 945 116 c 0
 1091 133 1229 254 1225 375 c 0xe9
 1222 488 1218 616 1218 616 c 2xd480
553 28 m 2
 551 14 534 1 514 -1 c 0
 494 -3 480 8 483 21 c 2
 483 21 505 161 520 254 c 0
 534 342 465 397 372 375 c 0
 286 354 203 271 183 192 c 2
 133 -13 l 2
 130 -26 116 -37 101 -38 c 0
 87 -40 79 -30 82 -19 c 2
 82 -19 103 65 133 183 c 0
 162 295 270 403 384 432 c 0
 509 465 606 395 588 266 c 0
 568 127 553 28 553 28 c 2
EndSplineSet
EndChar

StartChar: uni01CC
Encoding: 460 460 231
Width: 1338
GlyphClass: 2
Flags: MW
HStem: 0 75 508 82
VStem: 56 75 58 75 562 75 564 75 1195 74 1195 82 1197 74
LayerCount: 2
Back
Fore
SplineSet
1218 616 m 2xd480
 1218 629 1238 646 1266 653 c 0
 1294 660 1317 654 1317 641 c 2xea
 1345 396 l 1
 1339 224 1162 57 941 37 c 0
 747 20 630 10 630 10 c 2
 614 8 603 23 605 43 c 0
 608 62 623 79 638 81 c 2
 638 81 810 100 945 116 c 0
 1091 133 1229 254 1225 375 c 0xe9
 1222 488 1218 616 1218 616 c 2xd480
553 28 m 2
 551 14 534 1 514 -1 c 0
 494 -3 480 8 483 21 c 2
 483 21 505 161 520 254 c 0
 534 342 465 397 372 375 c 0
 286 354 203 271 183 192 c 2
 133 -13 l 2
 130 -26 116 -37 101 -38 c 0
 87 -40 79 -30 82 -19 c 2
 82 -19 103 65 133 183 c 0
 162 295 270 403 384 432 c 0
 509 465 606 395 588 266 c 0
 568 127 553 28 553 28 c 2
EndSplineSet
EndChar

StartChar: uni01F1
Encoding: 497 497 232
Width: 1353
GlyphClass: 2
Flags: MW
HStem: 0 75 0 82 252 75 503 82 504 75
VStem: 27 79 50 79 564 75 587 75 686 82 709 82 1197 82 1220 82
LayerCount: 2
Back
Fore
SplineSet
824 334 m 0xaaa8
 1010 370 1148 395 1148 395 c 2
 1287 421 1254 479 1254 481 c 0
 1251 560 1122 550 988 519 c 0
 865 489 705 451 705 451 c 2
 690 448 680 457 681 473 c 0
 683 489 697 504 711 508 c 2
 711 508 818 536 991 580 c 0
 1185 630 1362 650 1372 505 c 0
 1384 345 1251 340 1149 323 c 0
 943 288 819 268 819 268 c 2
 712 250 728 194 727 193 c 0
 719 112 828 102 963 118 c 0
 1111 135 1347 162 1347 162 c 2
 1371 165 1394 148 1395 124 c 0
 1397 99 1377 77 1352 75 c 2
 1352 75 1184 59 960 39 c 0
 764 21 625 36 643 180 c 0
 660 316 746 319 824 334 c 0xaaa8
652 590 m 2
 609 265 l 2
 589 126 442 -8 297 -21 c 0
 167 -33 97 60 127 178 c 0
 156 290 268 399 389 430 c 0x7550
 460 448 522 438 563 403 c 1
 566 426 586 552 589 573 c 0
 590 583 654 601 652 590 c 2
180 188 m 0
 160 105 214 38 311 49 c 0
 416 62 521 159 536 252 c 0
 550 341 476 396 377 373 c 0
 286 351 199 267 180 188 c 0
EndSplineSet
EndChar

StartChar: uni01F2
Encoding: 498 498 233
Width: 1353
GlyphClass: 2
Flags: MW
HStem: 0 75 0 82 252 75 503 82 504 75
VStem: 27 79 50 79 564 75 587 75 686 82 709 82 1197 82 1220 82
LayerCount: 2
Back
Fore
SplineSet
824 334 m 0xaaa8
 1010 370 1148 395 1148 395 c 2
 1287 421 1254 479 1254 481 c 0
 1251 560 1122 550 988 519 c 0
 865 489 705 451 705 451 c 2
 690 448 680 457 681 473 c 0
 683 489 697 504 711 508 c 2
 711 508 818 536 991 580 c 0
 1185 630 1362 650 1372 505 c 0
 1384 345 1251 340 1149 323 c 0
 943 288 819 268 819 268 c 2
 712 250 728 194 727 193 c 0
 719 112 828 102 963 118 c 0
 1111 135 1347 162 1347 162 c 2
 1371 165 1394 148 1395 124 c 0
 1397 99 1377 77 1352 75 c 2
 1352 75 1184 59 960 39 c 0
 764 21 625 36 643 180 c 0
 660 316 746 319 824 334 c 0xaaa8
652 590 m 2
 609 265 l 2
 589 126 442 -8 297 -21 c 0
 167 -33 97 60 127 178 c 0
 156 290 268 399 389 430 c 0x7550
 460 448 522 438 563 403 c 1
 566 426 586 552 589 573 c 0
 590 583 654 601 652 590 c 2
180 188 m 0
 160 105 214 38 311 49 c 0
 416 62 521 159 536 252 c 0
 550 341 476 396 377 373 c 0
 286 351 199 267 180 188 c 0
EndSplineSet
EndChar

StartChar: uni01F3
Encoding: 499 499 234
Width: 1353
GlyphClass: 2
Flags: MW
HStem: 0 75 0 82 252 75 503 82 504 75
VStem: 27 79 50 79 564 75 587 75 686 82 709 82 1197 82 1220 82
LayerCount: 2
Back
Fore
SplineSet
824 334 m 0xaaa8
 1010 370 1148 395 1148 395 c 2
 1287 421 1254 479 1254 481 c 0
 1251 560 1122 550 988 519 c 0
 865 489 705 451 705 451 c 2
 690 448 680 457 681 473 c 0
 683 489 697 504 711 508 c 2
 711 508 818 536 991 580 c 0
 1185 630 1362 650 1372 505 c 0
 1384 345 1251 340 1149 323 c 0
 943 288 819 268 819 268 c 2
 712 250 728 194 727 193 c 0
 719 112 828 102 963 118 c 0
 1111 135 1347 162 1347 162 c 2
 1371 165 1394 148 1395 124 c 0
 1397 99 1377 77 1352 75 c 2
 1352 75 1184 59 960 39 c 0
 764 21 625 36 643 180 c 0
 660 316 746 319 824 334 c 0xaaa8
652 590 m 2
 609 265 l 2
 589 126 442 -8 297 -21 c 0
 167 -33 97 60 127 178 c 0
 156 290 268 399 389 430 c 0x7550
 460 448 522 438 563 403 c 1
 566 426 586 552 589 573 c 0
 590 583 654 601 652 590 c 2
180 188 m 0
 160 105 214 38 311 49 c 0
 416 62 521 159 536 252 c 0
 550 341 476 396 377 373 c 0
 286 351 199 267 180 188 c 0
EndSplineSet
EndChar

StartChar: circumflex
Encoding: 710 710 235
Width: 527
GlyphClass: 2
Flags: MW
HStem: 469 320
LayerCount: 2
Back
Fore
SplineSet
350 544 m 0
 371 550 389 547 394 533 c 0
 402 522 475 419 475 419 c 1
 476 417 l 1
 476 414 l 2
 478 404 473 391 462 379 c 0
 454 371 443 365 433 363 c 0
 411 358 397 368 394 382 c 1
 332 460 l 1
 231 343 l 1
 221 325 204 310 186 306 c 0
 178 304 171 306 167 310 c 0
 161 316 162 328 168 339 c 2
 169 342 l 1
 171 344 l 1
 171 344 285 489 297 504 c 0
 310 524 331 538 350 544 c 0
EndSplineSet
EndChar

StartChar: tilde
Encoding: 732 732 236
Width: 465
GlyphClass: 2
Flags: MW
HStem: 380 51 428 48
VStem: 176 25 177 25<362 362 362 367> 280 48 281 48<412.5 441> 411 31 412 31
LayerCount: 2
Back
Fore
SplineSet
324 461 m 1x6a
 332 456 328 452 329 441 c 0
 329 431 336 425 362 437 c 0
 388 450 392 464 392 472 c 0
 391 475 404 509 412 500 c 1
 412 500 414 501 415 502 c 0
 427 508 442 509 443 497 c 0
 449 445 394 407 365 393 c 0
 342 383 300 368 285 398 c 1xaa
 277 403 281 407 281 418 c 0
 280 427 274 434 250 422 c 0
 226 410 222 397 222 389 c 0
 222 386 208 352 202 362 c 1
 202 362 201 361 199 361 c 0
 189 356 177 356 177 367 c 0
 176 415 223 450 249 462 c 0
 269 473 309 488 324 461 c 1x6a
EndSplineSet
EndChar

StartChar: Euro
Encoding: 8364 8364 237
Width: 772
GlyphClass: 2
Flags: MW
HStem: 0 75 191 74 315 74 506 75
VStem: 151 82
LayerCount: 2
Back
Fore
SplineSet
671 499 m 2
 685 503 696 494 694 478 c 0
 692 462 678 447 664 443 c 2
 664 443 538 413 446 391 c 0
 385 377 324 331 287 275 c 1
 368 292 460 311 460 311 c 2
 472 314 481 304 478 287 c 0
 475 271 462 257 449 254 c 2
 258 218 l 1
 256 212 255 206 253 200 c 0
 252 193 251 187 250 181 c 1
 335 196 442 214 442 214 c 2
 455 216 464 205 461 188 c 0
 458 171 444 156 432 154 c 2
 254 127 l 1
 269 76 318 44 383 51 c 0
 481 63 617 78 617 78 c 2
 633 80 644 66 642 46 c 0
 639 26 624 9 608 8 c 2
 608 8 518 -1 371 -14 c 0
 266 -24 198 34 189 117 c 1
 125 107 l 2
 115 106 109 116 113 132 c 0
 117 147 129 160 138 162 c 2
 138 162 160 165 191 171 c 1
 192 177 193 183 195 189 c 0
 196 195 198 201 200 207 c 1
 147 197 l 2
 138 196 132 205 136 220 c 0
 140 234 151 247 161 249 c 2
 161 249 187 255 224 262 c 1
 270 346 360 420 456 444 c 0
 589 479 671 499 671 499 c 2
EndSplineSet
EndChar

StartChar: uniE000
Encoding: 57344 57344 238
Width: 751
GlyphClass: 3
Flags: MW
HStem: 0 74 186 93 339 99
VStem: 53 106 308 106 480 101 627 72
LayerCount: 2
Back
Fore
SplineSet
181 112 m 1
 146 -34 l 1
 72 -41 l 1
 159 297 l 1
 229 313 l 1
 198 182 l 1
 306 201 l 1
 335 337 l 1
 416 355 l 1
 345 -17 l 1
 258 -24 l 1
 291 129 l 1
 181 112 l 1
402 -11 m 1
 447 239 l 1
 535 255 l 1
 495 -3 l 1
 402 -11 l 1
463 311 m 0
 466 332 488 353 509 357 c 0
 532 362 548 349 545 328 c 0
 541 307 519 285 497 281 c 0
 475 277 459 290 463 311 c 0
543 36 m 0
 546 54 564 72 583 74 c 0
 602 76 617 62 614 43 c 0
 612 24 593 6 574 4 c 0
 554 2 540 17 543 36 c 0
EndSplineSet
Ligature2: "'liga' Standard Ligatures lookup 1 subtable" H i period
EndChar

StartChar: uniE001
Encoding: 57345 57345 239
Width: 1339
GlyphClass: 3
Flags: MW
HStem: 0 75 251 75 504 75
VStem: 49 82 560 82 696 82 1207 82
LayerCount: 2
Back
Fore
SplineSet
1131 393 m 0
 1230 412 1356 452 1367 288 c 0
 1379 111 1176 58 953 38 c 0
 758 21 640 11 640 11 c 2
 624 9 613 24 615 44 c 0
 618 63 633 80 648 82 c 2
 648 82 822 102 957 117 c 0
 1104 134 1246 177 1243 269 c 0
 1243 271 1271 344 1131 320 c 0
 1130 320 992 296 804 265 c 0
 726 251 635 222 652 355 c 0
 668 477 796 530 967 574 c 0
 1158 623 1300 659 1300 659 c 2
 1320 664 1339 654 1340 636 c 0
 1341 617 1324 598 1303 593 c 2
 1303 593 1096 544 964 513 c 0
 842 484 740 441 733 372 c 0
 733 370 705 311 810 331 c 2
 810 331 931 355 1131 393 c 0
452 263 m 0
 515 275 596 304 577 170 c 0
 558 29 430 -9 292 -21 c 0
 168 -33 91 -39 91 -39 c 2
 80 -40 75 -28 79 -11 c 0
 83 5 95 18 105 20 c 2
 105 20 219 33 305 42 c 0
 398 53 489 84 501 159 c 0
 501 160 529 219 441 204 c 2
 441 204 352 188 230 168 c 0
 178 159 116 137 145 249 c 0
 172 353 262 393 377 423 c 0
 503 455 595 478 595 478 c 2
 608 481 618 472 616 457 c 0
 613 441 600 426 587 423 c 2
 587 423 453 391 367 371 c 0
 285 351 214 319 199 260 c 0
 199 259 173 210 243 223 c 2
 243 223 323 239 452 263 c 0
EndSplineSet
EndChar

StartChar: uniE002
Encoding: 57346 57346 240
Width: 833
GlyphClass: 2
Flags: MW
HStem: -1 1 0 74
VStem: 36 82 45 74 679 74 679 82
LayerCount: 2
Back
Fore
SplineSet
347 -17 m 0x80
 353 -16 412 -11 412 -11 c 2
 393 -12 377 -2 375 11 c 2
 366 84 l 1
 329 6 l 2
 322 -7 303 -20 286 -22 c 2
 286 -22 341 -17 347 -17 c 0x80
331 394 m 2
 330 403 340 414 355 418 c 0
 370 422 384 417 386 408 c 2
 386 408 394 351 404 280 c 1
 443 362 476 430 476 430 c 2
 483 442 501 456 518 460 c 0
 536 464 544 457 537 446 c 2
 416 189 l 1
 423 139 430 90 434 57 c 1
 531 76 629 171 642 269 c 0xa4
 654 367 668 478 668 478 c 2
 670 490 686 503 705 508 c 0
 725 513 739 507 738 496 c 2x88
 724 284 l 1
 698 139 559 2 408 -11 c 0
 366 -15 350 -17 347 -17 c 0
 344 -17 328 -19 289 -22 c 0
 165 -33 106 61 129 177 c 1xa4
 180 356 l 2x90
 183 366 195 377 209 380 c 0
 223 384 231 378 229 368 c 2
 229 368 205 271 184 187 c 0xa0
 164 103 210 39 289 41 c 1
 305 74 330 125 356 179 c 1
 331 394 l 2
422 55 m 1
 420 55 l 1x40
 422 55 l 1
EndSplineSet
EndChar

StartChar: uniE003
Encoding: 57347 57347 241
Width: 697
GlyphClass: 2
Flags: MW
HStem: 0 75 262 74 506 75
VStem: 53 82 570 74
LayerCount: 2
Back
Fore
SplineSet
598 481 m 2
 612 484 621 475 619 460 c 0
 617 444 604 429 590 426 c 2
 590 426 457 394 370 373 c 0
 288 354 205 272 184 187 c 0
 162 99 216 32 302 42 c 0
 362 49 444 58 494 64 c 1
 520 225 l 1
 383 202 l 2
 371 200 363 211 366 227 c 0
 369 243 382 257 394 259 c 2
 563 292 l 2
 582 296 595 288 593 276 c 2
 560 38 l 2
 557 18 542 2 528 0 c 2
 528 0 426 -9 289 -22 c 0
 164 -33 98 60 129 177 c 0
 157 288 265 395 381 425 c 0
 507 458 598 481 598 481 c 2
EndSplineSet
EndChar

StartChar: uniE004
Encoding: 57348 57348 242
Width: 585
GlyphClass: 2
Flags: MW
HStem: 277 74
VStem: 61 2 62 74 450 74
LayerCount: 2
Back
Fore
SplineSet
487 260 m 1xb0
 468 149 445 18 445 18 c 2
 443 4 427 -9 408 -11 c 0
 390 -12 378 -2 380 11 c 2
 418 219 l 1
 353 208 239 188 136 -13 c 0
 133 -25 119 -37 104 -38 c 0
 90 -40 81 -30 84 -18 c 2
 84 -18 111 85 136 185 c 1
 136 176 139 170 145 171 c 2
 145 171 159 174 182 178 c 1
 195 231 l 1
 158 224 l 2
 153 223 146 215 142 205 c 1
 165 297 187 381 187 381 c 2
 189 390 201 401 215 405 c 0
 229 409 237 403 235 393 c 2
 195 231 l 1
 429 277 l 1
 461 452 l 2
 464 463 478 475 495 479 c 0
 511 484 523 478 521 468 c 2
 521 468 505 371 487 266 c 1
 487 260 l 1xb0
136 185 m 1
 136 188 137 191 138 195 c 0
 139 199 140 202 142 205 c 1
 140 198 138 192 136 185 c 1
EndSplineSet
EndChar

StartChar: uniE005
Encoding: 57349 57349 243
Width: 706
GlyphClass: 2
Flags: MW
HStem: 272 74
VStem: 316 74
LayerCount: 2
Back
Fore
SplineSet
415 440 m 2
 380 264 l 1
 485 284 589 305 589 305 c 2
 603 307 613 296 611 279 c 0
 608 262 594 246 580 244 c 2
 369 207 l 1
 330 6 l 2
 327 -7 312 -20 294 -21 c 0
 278 -23 267 -12 270 0 c 2
 270 0 290 97 311 197 c 1
 138 166 l 2
 128 165 122 175 126 189 c 0
 130 204 141 217 151 219 c 2
 151 219 230 234 323 253 c 1
 343 345 360 426 360 426 c 2
 362 436 376 448 391 452 c 0
 407 456 417 450 415 440 c 2
EndSplineSet
EndChar

StartChar: uniE006
Encoding: 57350 57350 244
Width: 292
GlyphClass: 2
Flags: MW
HStem: 499 247
VStem: 131 30
LayerCount: 2
Back
Fore
SplineSet
194 437 m 2
 189 442 205 458 210 455 c 2
 210 455 224 445 241 434 c 1
 248 461 254 484 254 484 c 2
 255 488 260 492 265 494 c 0
 271 495 274 493 273 490 c 2
 261 439 l 1
 288 463 310 484 310 484 c 2
 319 491 330 482 320 473 c 2
 262 420 l 1
 283 406 302 393 302 393 c 2
 309 388 291 370 285 374 c 2
 251 398 l 1
 238 344 l 2
 237 340 232 336 226 335 c 0
 221 333 217 336 218 340 c 2
 218 340 224 364 231 393 c 1
 183 349 l 2
 175 342 165 352 174 361 c 2
 174 361 201 385 231 412 c 1
 194 437 l 2
EndSplineSet
EndChar

StartChar: uniE007
Encoding: 57351 57351 245
Width: 581
GlyphClass: 2
Flags: MW
HStem: -20 21G -4 21G<226 226>
VStem: 63 470 67 470
LayerCount: 2
Back
Fore
SplineSet
364 427 m 2x50
 121 -15 l 2
 114 -27 97 -39 82 -40 c 0
 68 -41 63 -32 70 -20 c 2xa0
 311 413 l 2
 317 424 334 437 349 441 c 0
 364 445 370 438 364 427 c 2x50
535 471 m 2
 283 1 l 2
 276 -12 257 -24 241 -26 c 0
 225 -27 219 -17 226 -4 c 2x60
 474 455 l 2
 481 467 499 481 516 485 c 0
 533 490 541 483 535 471 c 2
EndSplineSet
EndChar

StartChar: uniE008
Encoding: 57352 57352 246
Width: 739
GlyphClass: 2
Flags: MW
HStem: 202 74 338 74
LayerCount: 2
Back
Fore
SplineSet
601 488 m 2
 523 342 l 1
 584 355 629 364 629 364 c 2
 643 367 654 357 651 340 c 0
 649 323 635 307 621 304 c 2
 490 279 l 1
 462 226 l 1
 528 238 578 247 578 247 c 2
 592 249 603 238 600 220 c 0
 598 202 583 186 569 184 c 2
 428 162 l 1
 347 8 l 2
 339 -6 320 -19 302 -20 c 0
 286 -22 279 -11 286 2 c 2
 286 2 322 69 366 153 c 1
 255 135 l 1
 176 -9 l 2
 169 -22 151 -34 136 -35 c 0
 121 -37 116 -27 123 -15 c 2
 123 -15 157 49 201 127 c 1
 123 115 l 2
 113 113 107 124 111 139 c 0
 115 154 127 167 137 169 c 2
 137 169 177 176 233 186 c 1
 242 202 251 218 260 235 c 1
 173 218 l 2
 163 216 157 225 161 240 c 0
 165 254 176 267 186 270 c 2
 186 270 231 279 292 292 c 1
 333 368 366 427 366 427 c 2
 373 439 390 451 406 456 c 0
 421 460 428 453 422 442 c 2
 347 304 l 1
 383 312 423 320 460 328 c 1
 503 408 537 472 537 472 c 2
 544 484 563 497 580 502 c 0
 598 507 607 500 601 488 c 2
315 245 m 1
 288 196 l 1
 323 202 362 209 400 215 c 1
 409 233 419 250 428 267 c 1
 315 245 l 1
EndSplineSet
EndChar

StartChar: uniE009
Encoding: 57353 57353 247
Width: 750
GlyphClass: 2
Flags: MW
HStem: 275 70
LayerCount: 2
Back
Fore
SplineSet
549 475 m 2
 442 274 l 1
 614 307 l 2
 629 310 646 301 651 286 c 0
 656 270 646 256 630 253 c 2
 630 253 523 235 411 216 c 1
 297 3 l 2
 290 -10 271 -23 255 -25 c 0
 238 -26 232 -16 239 -3 c 2
 239 -3 294 98 351 205 c 1
 312 199 275 192 243 187 c 1
 133 -14 l 2
 126 -26 109 -38 94 -39 c 0
 80 -40 75 -31 82 -19 c 2
 82 -19 135 77 191 178 c 1
 165 173 149 171 149 171 c 2
 138 169 128 177 127 190 c 0
 126 203 134 215 145 217 c 2
 220 231 l 1
 274 328 323 416 323 416 c 2
 329 427 346 440 361 444 c 0
 377 448 383 441 377 430 c 2
 273 241 l 1
 382 262 l 1
 438 366 488 459 488 459 c 2
 495 471 513 484 530 489 c 0
 548 494 555 487 549 475 c 2
EndSplineSet
EndChar

StartChar: uniE00A
Encoding: 57354 57354 248
Width: 675
GlyphClass: 2
Flags: MW
HStem: -23 60 373 67
VStem: 113 55
LayerCount: 2
Back
Fore
SplineSet
559 146 m 0
 492 84 507 86 419 28 c 0
 294 -53 147 -35 118 69 c 0
 92 163 159 295 270 374 c 0
 365 442 473 459 539 418 c 0
 555 408 597 391 574 370 c 0
 514 317 285 123 208 58 c 1
 252 27 326 27 393 82 c 2
 515 181 l 2
 527 191 544 196 557 187 c 0
 570 178 570 157 559 146 c 0
179 90 m 1
 237 140 503 360 486 364 c 0
 426 376 359 383 287 333 c 0
 194 267 145 153 179 90 c 1
EndSplineSet
EndChar

StartChar: uniE00D
Encoding: 57357 57357 249
Width: 662
GlyphClass: 2
Flags: MW
HStem: -27 21G 108 82
VStem: 57 75 530 74
LayerCount: 2
Back
Fore
SplineSet
558 478 m 1
 576 482 589 476 587 465 c 2
 569 343 l 2
 568 337 567 330 566 324 c 0
 545 190 517 0 517 0 c 2
 515 -15 497 -28 477 -30 c 0
 458 -31 445 -20 447 -7 c 2
 477 172 l 1
 422 115 367 77 297 68 c 0
 177 53 121 141 151 255 c 0
 178 362 179 362 179 362 c 2
 181 372 194 383 207 386 c 0
 221 390 229 384 227 374 c 2
 227 374 219 341 200 265 c 0
 181 186 222 122 311 135 c 0
 404 149 483 235 502 321 c 1
 524 449 l 2
 525 460 540 473 558 477 c 1
 558 478 l 1
EndSplineSet
EndChar

StartChar: uniE012
Encoding: 57362 57362 250
Width: 515
GlyphClass: 2
Flags: MW
HStem: 248 74
VStem: 285 54 285 74 290 74
LayerCount: 2
Back
Fore
SplineSet
337 402 m 1x90
 339 412 353 424 368 428 c 0
 383 432 393 426 392 416 c 2
 356 242 l 1
 421 254 l 2
 434 256 442 245 439 229 c 0
 436 212 423 197 410 195 c 2
 345 184 l 1
 308 4 l 2
 306 -9 290 -21 274 -23 c 0
 257 -24 247 -14 249 -2 c 2
 249 -2 268 83 288 175 c 1
 135 149 l 2
 117 146 112 154 120 166 c 0
 122 168 337 402 337 402 c 1x90
318 314 m 1xc0
 221 216 l 1
 300 231 l 1xa0
 306 260 312 289 318 314 c 1xc0
361 336 m 1xc0
 356 322 355 310 362 296 c 1
 361 336 l 1xc0
EndSplineSet
EndChar

StartChar: uniE015
Encoding: 57365 57365 251
Width: 446
GlyphClass: 2
Flags: MW
VStem: 59 74 312 75
LayerCount: 2
Back
Fore
SplineSet
228 374 m 2
 146 37 l 1
 223 71 295 135 312 212 c 0
 329 295 353 406 353 406 c 2
 355 416 369 428 384 432 c 0
 400 436 410 431 408 420 c 2
 408 420 394 343 370 222 c 0
 344 93 218 -28 102 -38 c 0
 87 -40 79 -30 82 -19 c 2
 180 362 l 2
 182 372 195 383 208 386 c 0
 222 390 230 384 228 374 c 2
EndSplineSet
EndChar

StartChar: uniE016
Encoding: 57366 57366 252
Width: 689
GlyphClass: 2
Flags: MW
HStem: 0 75 210 75 504 75
VStem: 48 82 558 82
LayerCount: 2
Back
Fore
SplineSet
89 -39 m 2
 79 -40 74 -28 78 -11 c 0
 82 5 94 19 104 20 c 2
 104 20 217 33 304 43 c 0
 396 53 484 64 493 118 c 0
 493 120 532 185 433 170 c 2
 433 170 344 155 221 136 c 0
 154 125 117 146 144 248 c 0
 172 355 262 393 377 423 c 0
 503 455 594 478 594 478 c 2
 607 481 617 472 615 457 c 0
 613 441 599 426 586 423 c 2
 586 423 452 391 366 371 c 0
 285 352 218 341 199 260 c 0
 188 215 196 185 234 192 c 2
 234 192 315 207 444 230 c 0
 508 242 589 266 570 129 c 0
 549 -15 428 -9 290 -21 c 0
 166 -32 89 -39 89 -39 c 2
EndSplineSet
EndChar

StartChar: uniE017
Encoding: 57367 57367 253
Width: 690
GlyphClass: 2
Flags: MW
HStem: 0 75 294 75 503 75
VStem: 49 82 559 82
LayerCount: 2
Back
Fore
SplineSet
195 375 m 2
 195 375 267 394 382 424 c 0
 509 456 622 499 606 381 c 0
 588 253 509 248 446 236 c 0
 316 213 236 199 236 199 c 2
 198 192 174 156 162 109 c 0
 139 17 212 32 298 41 c 0
 390 52 534 68 534 68 c 2
 548 70 558 57 556 37 c 0
 553 18 538 1 523 0 c 2
 523 0 422 -10 285 -22 c 0
 161 -33 74 -22 106 100 c 0
 133 206 183 240 249 254 c 0
 369 278 456 295 456 295 c 2
 552 314 532 363 533 365 c 0
 540 411 458 392 371 372 c 0
 290 352 183 327 183 327 c 2
 173 325 167 333 171 347 c 0
 174 360 185 373 195 375 c 2
EndSplineSet
EndChar

StartChar: uniE018
Encoding: 57368 57368 254
Width: 708
GlyphClass: 2
Flags: MW
HStem: 0 82 503 82
VStem: 48 79 581 79
LayerCount: 2
Back
Fore
SplineSet
126 178 m 0
 155 290 267 399 387 430 c 0
 520 464 624 395 607 265 c 0
 587 125 440 -8 295 -21 c 0
 165 -33 95 60 126 178 c 0
178 188 m 0
 158 105 213 38 310 49 c 0
 343 53 377 66 408 85 c 1
 366 129 252 250 226 277 c 1
 203 249 186 218 178 188 c 0
466 131 m 1
 502 167 527 210 534 252 c 0
 548 341 474 396 376 372 c 0
 339 364 303 345 272 321 c 1
 466 131 l 1
EndSplineSet
EndChar

StartChar: uniE019
Encoding: 57369 57369 255
Width: 708
GlyphClass: 2
Flags: MW
HStem: 0 82 503 82
VStem: 48 79 581 79
LayerCount: 2
Back
Fore
SplineSet
607 265 m 0
 587 125 440 -8 295 -21 c 0
 165 -33 95 60 126 178 c 0
 155 290 267 399 387 430 c 0
 520 464 624 395 607 265 c 0
534 252 m 0
 539 287 531 316 513 338 c 1
 466 293 284 117 228 62 c 1
 249 51 277 45 310 49 c 0
 414 62 519 159 534 252 c 0
193 92 m 1
 475 367 l 1
 448 379 414 381 376 372 c 0
 284 351 198 267 178 188 c 0
 169 151 175 117 193 92 c 1
EndSplineSet
EndChar

StartChar: uniFCB7
Encoding: 64695 64695 256
Width: 1325
GlyphClass: 2
Flags: MW
HStem: 0 75 251 75 504 75
VStem: 42 82 553 82 689 82 1200 82
LayerCount: 2
Back
Fore
SplineSet
1122 391 m 0
 1220 410 1346 450 1356 286 c 0
 1367 110 1166 58 944 38 c 0
 750 20 632 10 632 10 c 2
 617 9 605 23 608 43 c 0
 611 63 626 79 641 81 c 2
 641 81 814 101 948 116 c 0
 1095 133 1235 176 1233 268 c 0
 1232 270 1261 343 1122 319 c 0
 1121 319 983 295 796 263 c 0
 719 250 628 221 646 354 c 0
 661 475 789 528 959 572 c 0
 1149 621 1290 656 1290 656 c 2
 1310 662 1329 652 1330 634 c 0
 1332 615 1314 596 1293 591 c 2
 1293 591 1087 542 956 511 c 0
 835 482 733 440 726 370 c 0
 726 369 698 309 802 329 c 2
 802 329 923 353 1122 391 c 0
446 262 m 0
 509 274 590 303 571 169 c 0
 551 28 424 -9 286 -22 c 0
 162 -33 86 -39 86 -39 c 2
 76 -40 70 -28 74 -12 c 0
 79 4 91 18 101 19 c 2
 101 19 213 32 300 42 c 0
 392 52 483 84 495 158 c 0
 495 159 523 218 435 203 c 2
 435 203 347 187 225 167 c 0
 173 158 111 136 140 248 c 0
 167 352 258 392 372 421 c 0
 498 454 589 476 589 476 c 2
 602 480 612 471 609 455 c 0
 607 440 594 425 581 422 c 2
 581 422 448 390 361 370 c 0
 281 350 209 318 195 259 c 0
 194 258 168 209 238 222 c 2
 238 222 318 238 446 262 c 0
EndSplineSet
EndChar
